<svg id="Capa_1" data-name="Capa 1" xmlns="http://www.w3.org/2000/svg" viewBox="0 0 146 207"><defs><style>.cls-1{fill:#725514;}.cls-2{fill:#4f3810;}</style></defs><path class="cls-1" d="M76.76,145.4a52.33,52.33,0,0,0-1.21,40.27c3.79,9.94,14.67,19.51,25.33,19.82,23.23.68,22.71-33.41,23.75-45.46,1.53-17.7-5.27-49.81-4.6-70.92C121.57,39.94,144.5,1.5,144.5,1.5s-59.82,11-104.68,62.77C16.27,91.44-3.07,126.21,2.43,150.85c4,17.64,24.11,21.07,24.11,21.07s.52,13.88,17.69,20.31C58.92,197.74,71,193.71,74.75,187,68.41,168.71,76.76,145.4,76.76,145.4Z"/><path class="cls-2" d="M30.44,136.85s-15,56.61,43,45.2l2.14,3.62s-14.36,24.88-43-2.78C32.52,182.89,17.85,172,30.44,136.85Z"/><path class="cls-2" d="M31.19,77.78s-38.48,65.11-6.79,81.7l2.14,12.44s-31-6.63-25-31.88C1.52,140,4.09,104.59,31.19,77.78Z"/><path class="cls-2" d="M73,162.26s11.42,51.78,47,28.6c0,0-3,23.09-31,11.55C89,202.41,69.7,189.52,73,162.26Z"/><path d="M101.57,207h-.73c-11.88-.35-22.9-10.84-26.69-20.79a53.33,53.33,0,0,1,1.28-41.49,1.5,1.5,0,0,1,2.65,1.39,51.31,51.31,0,0,0-1.12,39c3.36,8.83,13.48,18.55,24,18.86h.62c18.84,0,20.44-25.84,21.3-39.8.1-1.62.19-3.08.3-4.31.77-9-.64-21.81-2.14-35.34-1.37-12.41-2.79-25.23-2.47-35.5,1.29-41.26,17.75-75.4,23.05-85.38C128.65,6.83,79.07,21.28,41,65.25,19.39,90.13-1.67,125.6,3.9,150.52,7.57,167,26.6,170.41,26.79,170.44a1.5,1.5,0,0,1-.51,2.95c-.86-.15-21.19-3.8-25.31-22.22C-4,129.09,10.13,96.23,38.69,63.29,83.38,11.73,143.62.14,144.23,0a1.52,1.52,0,0,1,1.5.62,1.49,1.49,0,0,1,.06,1.62c-.23.38-22.75,38.71-24.26,86.9-.32,10,1.09,22.77,2.45,35.07,1.52,13.68,3,26.6,2.14,35.93-.1,1.21-.19,2.64-.29,4.24C125,178.28,123.2,207,101.57,207Z"/><path d="M57.66,197a31.28,31.28,0,0,1-9.2-1.48c-10.71-3.31-16.79-8.08-21-16.44s-5.94-24,1.76-42.53A1.5,1.5,0,0,1,32,137.73c-7.31,17.63-5.75,32.25-1.85,40.05,3.83,7.65,9.21,11.84,19.18,14.92,16.94,5.24,24.44-6.31,24.75-6.81a1.5,1.5,0,0,1,2.55,1.58A23.06,23.06,0,0,1,57.66,197Z"/></svg>