<svg id="Capa_1" data-name="Capa 1" xmlns="http://www.w3.org/2000/svg" viewBox="0 0 186 212"><defs><style>.cls-1{fill:#725514;}.cls-2{fill:#4f3810;}</style></defs><path class="cls-1" d="M81.79,140.68A57.07,57.07,0,0,0,72,183.39c1.92,11.41,11.48,23.93,22.75,26.52,24.59,5.65,31.29-30.84,35-43.47,5.39-18.57,5-54.27,10.17-76.65C151.92,37.66,184.5,1.5,184.5,1.5s-66-.93-124.78,44.78c-30.85,24-58.84,57-58.21,84.45.45,19.66,21.18,27.59,21.18,27.59s-2.39,14.92,14.52,25.43c14.47,9,28.15,7.25,33.61.86C68,163.77,81.79,140.68,81.79,140.68Z"/><path class="cls-2" d="M34.3,121.73S6.32,179,70.44,179.07L72,183.39S51.38,206.88,26.73,171.3C26.73,171.3,13.42,156.6,34.3,121.73Z"/><path class="cls-2" d="M47.66,58.86s-54.81,61.31-24.6,85.74l-.37,13.72S-8.89,144.67,2.84,119C2.84,119,13.1,81.72,47.66,58.86Z"/><path class="cls-2" d="M74.17,157.86s1.15,57.67,44,40.48c0,0-8.14,24-35.45,5.75C82.68,204.09,64.9,186.26,74.17,157.86Z"/><path d="M99.68,212a23.6,23.6,0,0,1-5.31-.63c-12.52-2.88-22-16.36-23.89-27.73C66.16,158,80,140.47,80.62,139.74A1.5,1.5,0,0,1,83,141.62a56,56,0,0,0-9.53,41.52c1.72,10.18,10.46,22.75,21.61,25.31,20.68,4.74,28-23,31.94-37.9.45-1.71.86-3.24,1.23-4.53,2.76-9.49,4-23.43,5.25-38.19,1.17-13.52,2.38-27.5,4.9-38.38,10.23-44.07,35.31-77.16,42.85-86.38-14,.56-70.29,5.28-120.57,44.39C32.36,69.46,2.37,102.87,3,130.69c.42,18.45,20,26.15,20.22,26.23a1.5,1.5,0,0,1-1.07,2.8c-.22-.08-21.68-8.52-22.15-29C-.55,106.19,21.43,74.17,58.8,45.1,117.31-.42,183.87,0,184.52,0a1.49,1.49,0,0,1,1.35.9,1.47,1.47,0,0,1-.26,1.6c-.32.36-32.46,36.5-44.32,87.63-2.48,10.67-3.68,24.54-4.85,38-1.29,14.91-2.51,29-5.35,38.76-.37,1.27-.77,2.78-1.21,4.47C126.29,184.9,119.14,212,99.68,212Z"/><path d="M55.72,192.12a30.58,30.58,0,0,1-14.65-4C30.4,182.29,25,176,22.3,166.17s-1.22-26.77,10.89-44.9a1.5,1.5,0,0,1,2.5,1.67c-11.56,17.29-13,33.26-10.5,42.44,2.46,9,7.31,14.64,17.31,20.06,17,9.24,27.51-1.57,28-2a1.5,1.5,0,1,1,2.19,2A24.63,24.63,0,0,1,55.72,192.12Z"/></svg>