<svg id="Capa_1" data-name="Capa 1" xmlns="http://www.w3.org/2000/svg" viewBox="0 0 147 116"><defs><style>.cls-1{fill:#9e9e9e;}.cls-2{fill:#cecece;}.cls-3{fill:#888889;}</style></defs><path class="cls-1" d="M71.12,27.25s44.13,26.53,45.28,26.12S145.51,27,145.51,27L101.58,1.49Z"/><polygon class="cls-1" points="80.07 87.74 80.07 109.42 65.6 100.72 80.07 87.74"/><polygon class="cls-2" points="71.12 27.25 116.4 53.37 50.8 114.51 1.49 86.23 71.12 27.25"/><polygon class="cls-3" points="80.07 87.74 145.51 27.02 145.51 51.49 80.07 109.42 80.07 87.74"/><path d="M80.07,89.23A1.47,1.47,0,0,1,79,88.75a1.5,1.5,0,0,1,.08-2.11L143,27.3l-41.28-24L69.55,30.53a1.49,1.49,0,1,1-1.92-2.28l33-27.9A1.49,1.49,0,0,1,102.33.2l43.93,25.54a1.46,1.46,0,0,1,.73,1.12,1.49,1.49,0,0,1-.47,1.26L81.09,88.83A1.48,1.48,0,0,1,80.07,89.23Z"/><path d="M80.07,110.91a1.46,1.46,0,0,1-.78-.22l-13.4-8.34a1.49,1.49,0,1,1,1.58-2.53l11.11,6.91v-19a1.5,1.5,0,0,1,3,0v21.68a1.49,1.49,0,0,1-.77,1.3A1.47,1.47,0,0,1,80.07,110.91Z"/><path d="M80.07,110.91a1.49,1.49,0,0,1-1-2.59L144,49V27a1.49,1.49,0,1,1,3,0V49.69a1.48,1.48,0,0,1-.49,1.1L81.08,110.52A1.51,1.51,0,0,1,80.07,110.91Z"/><path d="M50.8,116a1.52,1.52,0,0,1-.74-.2L.75,87.52a1.49,1.49,0,0,1-.22-2.43l69.63-59A1.51,1.51,0,0,1,71.87,26l45.27,26.12a1.49,1.49,0,0,1,.28,2.38L51.82,115.6A1.53,1.53,0,0,1,50.8,116ZM4.08,86l46.51,26.68,63.32-59L71.29,29.07Z"/><path d="M78.47,80.85h-.09L58.73,79.57a1.48,1.48,0,0,1-1.39-1.34,1.5,1.5,0,0,1,1.1-1.59l12.47-3.3.53-10.59a1.49,1.49,0,0,1,1.28-1.41,1.5,1.5,0,0,1,1.62,1l5.55,16.53a1.49,1.49,0,0,1-1.42,2ZM68,77.19l8.31.53L74,70.79l-.19,3.78a1.48,1.48,0,0,1-1.11,1.37Z"/><path d="M54,73.5a1.49,1.49,0,0,1-1.43-1.06L48.09,57.52a1.5,1.5,0,0,1,1.55-1.92L66.29,57a1.48,1.48,0,0,1,1.36,1.49v11.1A1.49,1.49,0,0,1,66.45,71L54.32,73.47ZM51.58,58.76l3.48,11.52,9.61-1.93v-8.5Z"/></svg>