<svg id="Capa_1" data-name="Capa 1" xmlns="http://www.w3.org/2000/svg" viewBox="0 0 140 111"><defs><style>.cls-1{fill:#cecece;}.cls-2{fill:#666;}.cls-3{fill:#9e9e9e;}.cls-4{fill:#888889;}</style></defs><path class="cls-1" d="M82.3,14.22l41.48,27.63L70.88,89.6H62.76l-9.84-8.74S38.1,87.49,26.57,82.68L1.49,63.54l14.67-2.47,11.71-4.93L42.64,45.32Z"/><polygon class="cls-2" points="29.76 83.99 43.59 84.51 52.92 80.86 57.36 87.81 69.27 91.69 60.45 97.19 50.24 97.52 39.33 93.57 29.76 83.99"/><polygon class="cls-3" points="80.76 13.1 95.52 1.49 137.84 27.66 123.78 41.84 80.76 13.1"/><polygon class="cls-3" points="72.93 88.61 71.77 108.79 55.53 98.7 62.87 95.63 72.93 88.61"/><polygon class="cls-4" points="72.93 109.51 138.5 49.73 138.5 27.66 72.93 88.61 72.93 109.51"/><path d="M72.93,89.3a1.49,1.49,0,0,1-1-2.59L121.5,40.77,79.09,15.12a1.49,1.49,0,0,1-.19-2.41L93.51.35A1.51,1.51,0,0,1,95.23.2l44,25.55a1.5,1.5,0,0,1,.26,2.39L125,41.58l-.05.06-51,47.26A1.47,1.47,0,0,1,72.93,89.3Zm9.49-75.66,41.36,25L136,27.32l-41.37-24Z"/><path d="M72.93,111a1.48,1.48,0,0,1-.79-.23L53.27,99.05a1.49,1.49,0,0,1,1.57-2.54l16.59,10.31v-19a1.5,1.5,0,1,1,3,0v21.7a1.47,1.47,0,0,1-.77,1.3A1.41,1.41,0,0,1,72.93,111Z"/><path d="M72.93,111a1.48,1.48,0,0,1-1.11-.49,1.5,1.5,0,0,1,.1-2.11L137,49.07v-22a1.5,1.5,0,1,1,3,0V49.73a1.48,1.48,0,0,1-.49,1.1L73.93,110.61A1.47,1.47,0,0,1,72.93,111Z"/><path d="M81.61,69.35h-.1L61.82,68.07a1.49,1.49,0,0,1-.28-2.93L74,61.83l.53-10.6a1.5,1.5,0,0,1,2.91-.4L83,67.38a1.48,1.48,0,0,1-.23,1.38A1.52,1.52,0,0,1,81.61,69.35ZM71.15,65.68l8.34.54-2.34-6.94L77,63.07a1.52,1.52,0,0,1-1.11,1.37Z"/><path d="M57.11,62a1.49,1.49,0,0,1-1.43-1.06L51.16,46a1.5,1.5,0,0,1,.27-1.37,1.46,1.46,0,0,1,1.29-.55L69.4,45.47A1.49,1.49,0,0,1,70.77,47v11.1a1.5,1.5,0,0,1-1.2,1.47L57.4,62A1.36,1.36,0,0,1,57.11,62ZM54.66,47.24l3.49,11.52,9.63-1.92V48.33Z"/><path d="M53.54,99.25a22.71,22.71,0,0,1-13.79-4.64L.59,64.73a1.49,1.49,0,0,1,.66-2.66l8.81-1.45A55.64,55.64,0,0,0,36.9,48.22l42-35.51A1.49,1.49,0,1,1,80.83,15l-42,35.51A58.6,58.6,0,0,1,10.54,63.56l-5.39.89L41.56,92.24a19.83,19.83,0,0,0,25-.84l5.39-4.72a1.5,1.5,0,0,1,2,2.25l-5.4,4.72A22.71,22.71,0,0,1,53.54,99.25Z"/><path d="M69.56,92.25h-.08c-11.18-.57-15.57-5.9-17.17-8.95-7.79,5.17-24,2-24.73,1.84a1.49,1.49,0,0,1-1.17-1.76,1.51,1.51,0,0,1,1.76-1.17c5,1,19,2.53,23.67-2.38a1.51,1.51,0,0,1,2.54.69c.08.32,2.19,8.08,15.25,8.75a1.5,1.5,0,0,1-.07,3Z"/></svg>