<svg id="Capa_1" data-name="Capa 1" xmlns="http://www.w3.org/2000/svg" viewBox="0 0 67 83"><defs><style>.cls-1{fill:#9e9e9e;}.cls-2{fill:#cecece;}</style></defs><path class="cls-1" d="M60.49,1.5l4.72,11.39L62.37,42.36l-4.59,22s-1,8-12.39,9.46c0,0,18.55-9.14-.06-28.41Z"/><path class="cls-2" d="M51.63,24.85C28.1,46.64,1.47,48.25,1.47,48.25s4.7,6.66,3.2,33.25L38.1,77.77,50,71.37S59.16,58,45.33,45.43h0l6.3-20.58"/><path d="M39.34,78a1.5,1.5,0,0,1-.48-2.91C46.55,72.37,51,68.65,52,64c1.78-8.33-7.56-17.36-7.66-17.45a1.52,1.52,0,0,1-.38-1.58L59.09,1A1.47,1.47,0,0,1,60.4,0a1.46,1.46,0,0,1,1.42.84l3.11,6.41a20.43,20.43,0,0,1,1.78,12.38c-.39,2.32-.77,4.52-1.13,6.62-.94,5.5-1.76,10.24-2.35,14.69-.76,5.7-2.23,14.67-3.33,21.2a16.49,16.49,0,0,1-11.45,13.1l-8.68,2.65A1.29,1.29,0,0,1,39.34,78ZM47,45c2.34,2.46,9.66,11,7.83,19.55a13.09,13.09,0,0,1-2.19,4.9A13.56,13.56,0,0,0,57,61.63c1.1-6.5,2.57-15.43,3.32-21.09.6-4.5,1.42-9.27,2.37-14.8q.54-3.15,1.13-6.61A17.47,17.47,0,0,0,62.26,8.56L60.72,5.38Z"/><path d="M38.62,68a.74.74,0,0,1-.57-.27L30,57.93a.75.75,0,0,1,0-1,.74.74,0,0,1,.93-.17l7,3.86,7-6.67a.74.74,0,0,1,1-.05.75.75,0,0,1,.2,1l-6.7,12.72a.75.75,0,0,1-.58.4Zm-5-8,4.87,5.9,4.05-7.69-4.06,3.89a.74.74,0,0,1-.87.12Z"/><path d="M37.27,56.58a.7.7,0,0,1-.39-.11L30,52.2a.75.75,0,0,1-.28-1l5.49-10.9a.73.73,0,0,1,.57-.4.76.76,0,0,1,.65.24L44,48.71a.76.76,0,0,1,0,1l-6.12,6.62A.75.75,0,0,1,37.27,56.58ZM31.4,51.29l5.75,3.59,5.24-5.68L36.08,42Z"/><path d="M5.28,83H4.65a1.48,1.48,0,0,1-1.06-.48,1.51,1.51,0,0,1-.4-1.11C4.62,56,.3,49.17.25,49.1a1.53,1.53,0,0,1-.11-1.48,1.49,1.49,0,0,1,1.18-.86A98,98,0,0,0,51.88,22.44a1.48,1.48,0,0,1,2.09.09,1.5,1.5,0,0,1-.09,2.12A100.46,100.46,0,0,1,3.67,49.46C5,53,7.12,61.69,6.24,80,11,79.92,25.8,79.34,38.88,75a1.49,1.49,0,0,1,.92,2.84C25.07,82.73,8.73,83,5.28,83Z"/></svg>