<svg id="Capa_1" data-name="Capa 1" xmlns="http://www.w3.org/2000/svg" xmlns:xlink="http://www.w3.org/1999/xlink" viewBox="0 0 440 751"><defs><style>.cls-1{fill:none;}.cls-2{fill:#fbbb10;}.cls-3{fill:#725514;}.cls-4{fill:#430e6b;}.cls-5{fill:#2a0944;}.cls-6{fill:#33230a;}.cls-7{fill:#a0752a;}.cls-8{fill:#cecece;}.cls-9{fill:#fcfcfc;}.cls-10{fill:#9e9e9e;}.cls-11{fill:#888889;}.cls-12{opacity:0.6;}.cls-13{clip-path:url(#clip-path);}.cls-14{fill:#d89a0f;}.cls-15{clip-path:url(#clip-path-2);}.cls-16{fill:#fff;}.cls-17{clip-path:url(#clip-path-3);}.cls-18{fill:#daa520;}.cls-19{fill:#411f0a;}.cls-20{clip-path:url(#clip-path-4);}.cls-21{fill:#936f2e;}.cls-22{fill:#821bd1;}.cls-23{fill:#4f3810;}.cls-24{fill:#8e681c;}</style><clipPath id="clip-path"><rect class="cls-1" x="154.86" y="199.32" width="153.89" height="130.64"/></clipPath><clipPath id="clip-path-2"><rect class="cls-1" x="56.3" y="159.96" width="151.31" height="131.5"/></clipPath><clipPath id="clip-path-3"><polygon class="cls-1" points="181.85 218.29 270.62 207.54 283.36 258.13 189.84 295.36 181.85 218.29"/></clipPath><clipPath id="clip-path-4"><polygon class="cls-1" points="161.3 211.87 103.86 174.35 53.37 201.21 134.45 260.15 161.3 211.87"/></clipPath></defs><path class="cls-2" d="M52.06,457.44l32.59,87.34,17.25-2.25C129.48,574.34,171,591.1,228,591.1c100.34,0,167-69.33,167-175.74,0-48.26-12.39-92-39.21-123.73,15.75-21.28,25-49.81,25-86.51a135.55,135.55,0,0,0-3.61-28.06l-58.81-6.87-73.53-12.34-5.37-19.29s5-41.77-31.47-48.09c0,0-32.53-4.6-42.38,27L181,123.62l-5.32,15.54-37.06-14.38-20.38-8.36s6.36,12-12.3,29.14c-4,6.42-35.22,36.77-22.22,92.31,0,0,14.29,40.14,30.66,52.76-2.56,9.07-44.5,103.85-44.5,103.85Z"/><path class="cls-3" d="M77,446.6a52.55,52.55,0,0,0,7.12,39.72c5.75,9,18.37,16.11,28.85,14.23,22.86-4.11,15.34-37.43,13.87-49.45-2.15-17.67-15.41-47.75-19.11-68.57-8.62-48.52,5.89-90.92,5.89-90.92S57.4,314.7,24.18,374.66C6.74,406.14-5,444.2,5.44,467.21c7.5,16.49,27.92,15.7,27.92,15.7s3.37,13.5,21.49,16.28c15.5,2.38,26.46-4,28.77-11.43C73.65,471.16,77,446.6,77,446.6Z"/><path class="cls-3" d="M84.66,544.7c5.66.49,11.66,1.18,18.74-.75,11.8-3.24,32.32-19.54,32.32-19.54s1.27,28,25.86,20.24c19.28-6.06,52.37-54,74.14-70.72C263.14,452.84,326,443,349,421.74c41.24-38.14,37.26-72.38,33.33-83,0,0-15.15-37-25.38-47.13-21.63,1.47-46.2,17.09-62.47,28.35C250.82,350.18,227,392,204.11,410.12c-47.22,37.47-81.8,20.71-81.8,20.71l6.1,28.13,16.31,9.29L144.05,491Z"/><path class="cls-3" d="M23.17,482.28s-19.28,14.8-17,31.66c0,0,.48,24.72,37,16L31,522.37V500.85l10.5-8.41s-7.12-4-8.55-10.16C32.92,482.28,26.61,484.19,23.17,482.28Z"/><path class="cls-4" d="M382.19,136.53C377.62,63.9,313.93,8.79,239.93,13.44A134.32,134.32,0,0,0,117.7,116c.43.12,38.44,20.93,101.69,37.1,84.5,21.6,159.35,24.36,158,23.86C380.69,164.06,383.07,150.48,382.19,136.53Zm-143.57-5.06-.16,8.66c-48.12-8.36-74.66-21.48-74.66-21.48l2.89-5.73a38,38,0,0,1,71.93,18.55Z"/><path class="cls-5" d="M373,95.91s55.07.73,64.86,36.61c0,0,12.89,38.14-60.21,46.07l4-23.51S385.15,123.19,373,95.91Z"/><circle class="cls-4" cx="279.72" cy="9.15" r="7.8"/><path class="cls-3" d="M340.17,552.73l-4.36,57,1.53,24.64s11.18,52.24-25.63,50.79l2.81,32.42s5.84,31.13-22.73,31.13l-44.44-.26-28.67,1.09s-22.5-.15-20.8-21L202.26,689s-15-2-11.63-15.28S195.92,648,195.92,648l.47-13.63,5.53-6.86,5-11.34s3,28.76,32.39,31.71l3.9-6.1,1.58-7s10.36,3.32,13-5.79c0,0,3.14-5.4-1.48-11.61,0,0,10.14-.73,10.14-9l-1.75-7.16L256.2,590l19.11-3.09,35.14-13.78L328,562.7Z"/><path class="cls-3" d="M166.37,137.49s16.29,29.61,9.92,51c0,0-4.07-36.74-43.82-64.36l16.73,6.35Z"/><path class="cls-3" d="M175.63,190.52S196,157.37,224.4,155.16l45,9.5s-39.92-8.66-66.7,6.18C196.12,174.49,179.72,184.27,175.63,190.52Z"/><polygon class="cls-6" points="208.09 592.07 206.76 615.12 166.33 584.87 208.09 592.07"/><polygon class="cls-6" points="206.53 613.4 247.67 591.24 215.38 592.81 208.19 591.06 206.53 613.4"/><path class="cls-7" d="M161.29,582.75l-11.64,15.58,1.73,7.86,4.16,3.15-.52,11.9,4.39,6.28,9.49,2.77.81,12.09,8,.77s22.18-1.35,30.48-28.27l3.21,16.44s12.08,19.56,30.4,17.11c0,0,3.62.42,2.54-13,0,0,10,3,13.2-3.57s.26-14.09.26-14.09,11.44,1.21,8.56-12.41l-8.76-14.08-9.79-.21-39,22.37-3-.68-38.93-28.29Z"/><path class="cls-4" d="M113.8,296.57c.68-5.77,8.76-5.24,14.45-.57,4.76,3.91,6.66,9.87,3.95,12.58s-8.43,1.37-12.79-3c-3.1-3.11-7-7.3-4.86-11.17"/><ellipse class="cls-4" cx="140.96" cy="316.37" rx="6.9" ry="11.15" transform="translate(-197.76 244.04) rotate(-53.93)"/><ellipse class="cls-4" cx="159.77" cy="330.07" rx="6.93" ry="11.15" transform="translate(-205.97 303.43) rotate(-60.01)"/><ellipse class="cls-4" cx="185.92" cy="341.42" rx="6.93" ry="11.15" transform="translate(-172.19 492.71) rotate(-84.33)"/><ellipse class="cls-4" cx="209.67" cy="342.83" rx="11.15" ry="6.93" transform="translate(-17.77 11.52) rotate(-3.02)"/><ellipse class="cls-4" cx="232.95" cy="341.6" rx="11.15" ry="6.93" transform="translate(-42.65 33.37) rotate(-7.51)"/><ellipse class="cls-4" cx="256.34" cy="337.1" rx="11.15" ry="6.93" transform="translate(-41.86 36.39) rotate(-7.51)"/><path class="cls-4" d="M272.71,339c-2.35-1-3.72-2.48-4-4.48-.5-3.8,4-7.53,10.15-8.33a15.15,15.15,0,0,1,8.2,1"/><path class="cls-4" d="M173.09,344a3.41,3.41,0,0,1-2.12-.44,34.69,34.69,0,0,1-4.07-2.2,1.83,1.83,0,0,1-.67-.59,1.92,1.92,0,0,1-.17-.86,8.33,8.33,0,0,1,.1-2.06,2.71,2.71,0,0,1,1.09-1.69c1-.62,1.74-2.08,2.87-2.25a4.24,4.24,0,0,1,2.95,1.08,2.3,2.3,0,0,1,1.07,1.37,5.31,5.31,0,0,1-.23,2.91,6,6,0,0,0-.43.79,2.83,2.83,0,0,0-.14,1C173.32,341.88,173.11,343.16,173.09,344Z"/><polygon class="cls-8" points="167.01 342.18 136 363.66 156.24 364.66 167.01 381.34 168.7 342.83 167.01 342.18"/><polygon class="cls-9" points="136 364.57 139.55 389.58 166.04 381.98 155.58 363.66 136 364.57"/><path class="cls-8" d="M127.62,374.26c0,.21-1.13,39.14-1.13,39.14l37-21.2-29.3,5.39Z"/><polygon class="cls-10" points="30.97 500.85 78.19 529.95 78.19 551.73 30.97 522.37 30.97 500.85"/><path class="cls-11" d="M78,550.33l66-56.63-.18-24.31-15.13,12.89s.67,18-21.33,20.66L78.19,530Z"/><path class="cls-8" d="M41.47,492.44,31,500.85,78.19,530l29.13-27s19.31.38,21.33-20.66l16.07-14L128.41,459s9.05,48.55-27.7,41c0,0-6.7-1.43-17.09-12.21,0,0-7.68,14.81-27.31,11.66l-7.25-1.78Z"/><path d="M41.28,515.51a.47.47,0,0,1-.27-.08l-9.74-6.27a.5.5,0,1,1,.54-.84l9.75,6.27a.5.5,0,0,1-.28.92Z"/><path d="M38.31,517.46a.46.46,0,0,1-.27-.09l-7.71-5.08a.5.5,0,0,1,.55-.83l7.71,5.08a.5.5,0,0,1,.14.69A.51.51,0,0,1,38.31,517.46Z"/><path d="M38.9,521.93a.53.53,0,0,1-.27-.08l-7.7-5.08a.5.5,0,1,1,.55-.84l7.7,5.08a.51.51,0,0,1,.14.7A.5.5,0,0,1,38.9,521.93Z"/><path d="M38.31,517.59a.46.46,0,0,1-.27-.09l-7.71-5.08a.5.5,0,0,1,.55-.83l7.71,5.08a.5.5,0,0,1,.14.69A.51.51,0,0,1,38.31,517.59Z"/><path d="M78.12,538.51a.49.49,0,0,1-.37-.16.5.5,0,0,1,0-.71l10.39-9.41a.49.49,0,0,1,.7,0,.5.5,0,0,1,0,.71l-10.38,9.41A.5.5,0,0,1,78.12,538.51Z"/><path d="M78.19,543.7a.5.5,0,0,1-.37-.17.48.48,0,0,1,0-.7L86,535.58a.5.5,0,0,1,.66.75l-8.16,7.25A.5.5,0,0,1,78.19,543.7Z"/><path d="M132.54,488.82a.52.52,0,0,1-.37-.16.5.5,0,0,1,0-.71l11.3-10.4a.5.5,0,0,1,.7,0,.5.5,0,0,1,0,.71l-11.3,10.4A.51.51,0,0,1,132.54,488.82Z"/><path d="M138.19,490.78a.51.51,0,0,1-.36-.15.49.49,0,0,1,0-.7l5.64-5.53a.5.5,0,0,1,.71,0,.49.49,0,0,1,0,.7l-5.65,5.53A.45.45,0,0,1,138.19,490.78Z"/><path d="M157,217.39a1.5,1.5,0,0,1-1-.4l-49.11-45.61a1.49,1.49,0,0,1-.08-2.12,1.51,1.51,0,0,1,2.12-.08L158,214.79a1.5,1.5,0,0,1-1,2.6Z"/><g id="Grupo_42225" data-name="Grupo 42225" class="cls-12"><g id="Grupo_42224" data-name="Grupo 42224"><g class="cls-13"><g id="Grupo_42223" data-name="Grupo 42223"><g id="Trazado_17178" data-name="Trazado 17178"><path class="cls-14" d="M308.76,251.55c0,43.31-34.46,78.41-76.95,78.41s-76.94-35.1-76.94-78.41c44.93,11.67,38.82-8.64,57.48-51.59,4.38,0,29.72-1.07,34.05-.44,9.53,0,15.87-.19,24.2,1.06,21.28,3.2,38.17,23,38.17,51"/></g></g></g></g></g><g class="cls-15"><g id="Grupo_42226" data-name="Grupo 42226"><g id="Trazado_17179" data-name="Trazado 17179"><path class="cls-14" d="M85.39,235.57C91,256.75,98.27,286.91,122.07,288c34.25,1.62,37.68-52.43,37.68-95.74-44.18,11.67.83,2.79-17.52-40.16-5.36,0-15.5-1-20.73-.15-4.18.68-12.78-1.47-16.79-.26-7.13,2.14-7.08,9.39-11.07,16.61-6.86,10.45-9.22,29.63-10.46,35.12"/></g></g></g><path class="cls-16" d="M91.22,259.76c6.06,10.63,22.77,19.3,36.21,19.3l5.39,10.61,26.44-8.92c13,24.62,39.14,39.6,69,39.6a77.75,77.75,0,1,0,0-155.5c-23,0-39.13,11.9-53.37,27.8-1-8.33-1.61-11.92-3.32-17.5-6.59-21.43-23.45-31.07-37.1-33-12.69-1.74-24.23-.15-31.74,8.64C62.52,197.92,91.22,259.76,91.22,259.76Z"/><path class="cls-3" d="M156.05,231l-35.6,17.65s1.48,21.87,12,41.62c0,0,24.33-4.21,50.75-24.29Z"/><g class="cls-17"><g id="Trazado_17229" data-name="Trazado 17229"><path class="cls-18" d="M264.12,239.73c-3.66,20.81-23.21,34.76-43.65,31.16s-34-23.39-30.37-44.2,23.21-34.77,43.65-31.17,34,23.39,30.37,44.21"/></g><g id="Trazado_17230" data-name="Trazado 17230"><path class="cls-19" d="M250.81,237.38a24.06,24.06,0,1,1-19.44-28.3,24.28,24.28,0,0,1,19.44,28.3"/></g><g id="Trazado_17231" data-name="Trazado 17231"><path class="cls-16" d="M257.72,233.88a8.81,8.81,0,1,1-7.38-10.4l.26,0a8.87,8.87,0,0,1,7.12,10.36h0"/></g></g><g class="cls-20"><g id="Trazado_17229-2" data-name="Trazado 17229"><path class="cls-18" d="M95,195.88c-4.76,16.31,4,33.21,19.53,37.75s32-5,36.77-21.34-4-33.22-19.54-37.75-32,5-36.76,21.34"/></g><g id="Trazado_17230-2" data-name="Trazado 17230"><path class="cls-19" d="M105.07,198.83c-3,10.45,2.56,21.27,12.51,24.17s20.5-3.21,23.54-13.66-2.55-21.27-12.51-24.17-20.49,3.21-23.54,13.66"/></g><g id="Trazado_17231-2" data-name="Trazado 17231"><path class="cls-16" d="M101.48,193.88a7.21,7.21,0,0,0,4.24,9.22,7.13,7.13,0,0,0,8.82-4.93,7.21,7.21,0,0,0-4.25-9.22l-.2-.06a7,7,0,0,0-8.61,5h0"/></g></g><path class="cls-21" d="M153.42,235.67,134.1,286.28s-4.41-13.23-5.57-17.68S125,251.1,125,251.1l28.47-15.43"/><path class="cls-5" d="M279.72,17s81.45,58.68,53.77,157.4l-60.3-9.15L250,160.57S287.78,129.67,279.72,17Z"/><path class="cls-22" d="M279.72,17S189.28,19.14,149.2,130.44L117.7,116S148.94-1.85,279.72,17Z"/><path class="cls-23" d="M30,447.73s-3,58.58,51.34,35.48l2.85,3.11s-8.93,27.34-42.67,6.12C41.47,492.44,24.89,484.81,30,447.73Z"/><path class="cls-23" d="M18.52,389.67S-5.71,461.41,28.7,471.16l4.66,11.75s-31.68-.13-31-26.11C2.32,456.8-2.47,421.52,18.52,389.67Z"/><path class="cls-23" d="M76.78,463.91s21.84,48.41,51.87,18.37c0,0,1.78,23.26-27.94,17.69C100.71,500,79.2,491.3,76.78,463.91Z"/><path class="cls-23" d="M199.1,717.54s1.45,32.53,48.25,30.88l24.31.06s45-2.83,42.72-36.56c0,0,6,37-22.59,36.76l-66,.83S188.92,752.94,199.1,717.54Z"/><path class="cls-24" d="M201.92,627.48s1,22.9-5.47,41.73c-3.63,10.54-.75,15.81,7.19,14.89L202.26,689s-15.49,2.42-11.63-15.28l3.77-15.41L195.92,648l.47-13.63Z"/><g id="Trazado_17193" data-name="Trazado 17193"><path class="cls-24" d="M300.89,703.44a60.89,60.89,0,0,1,1.33,7.33,38.19,38.19,0,0,1-.92,9.48c-.32,1.79-1,3.92-2.72,4.34S295,723,294.92,721s.84-3.79,1.36-5.67c1.08-4,.36-8.2.06-12.31-.17-2.43-.41-19.33,2.86-18.45s1.16,16.15,1.7,18.87"/></g><g id="Trazado_17194" data-name="Trazado 17194"><path class="cls-24" d="M289.7,681.08c-1.37,6.24-1.18,12.68-1.5,19.06a6.44,6.44,0,0,0,.6,3.69,2.5,2.5,0,0,0,3.24,1.09c1-.62,1.17-2,1.09-3.16s-.27-2.19-.41-3.28c-.22-1.62-.33-3.26-.39-4.9a79,79,0,0,1,.21-9.23c.14-1.74.55-4.25-.54-4.76-1.69-.79-2.19,1-2.3,1.49"/></g><path class="cls-23" d="M138.18,465.45l-1.69-9.55a8.64,8.64,0,0,1,9.18-10.11c17.51,1.23,51.83-3.74,77.46-53.59l-19,17.92s-32.73,38.63-81.8,20.71l4.55,20.27,1.25,9.61Z"/><path d="M228.32,593.34h0c-56.2,0-99-16.53-127.26-49.1a1.5,1.5,0,1,1,2.26-2c27.65,31.88,69.71,48.05,125,48.06h0c48.88,0,90.37-16.42,120-47.5s45.44-75,45.44-126.74c0-50.21-13.44-92.66-38.87-122.76a1.52,1.52,0,0,1-.06-1.86c16.38-22.13,24.68-50.94,24.68-85.62a135.83,135.83,0,0,0-3.55-27.67,1.5,1.5,0,1,1,2.89-.78,136.9,136.9,0,0,1,3.66,28.45c0,34.84-8.26,63.92-24.57,86.45,25.4,30.59,38.82,73.37,38.82,123.79,0,52.51-16,97-46.27,128.81S278,593.34,228.32,593.34Z"/><path d="M113.71,293.87a1.52,1.52,0,0,1-1.11-.49c-22.78-24.75-33.88-52.16-33-81.46.61-20.28,5.08-47.32,34.41-76.52a1.5,1.5,0,0,1,2.12,2.12C87.54,166,83.19,192.28,82.6,212c-.86,28.49,10,55.18,32.21,79.34a1.5,1.5,0,0,1-.09,2.12A1.47,1.47,0,0,1,113.71,293.87Z"/><path d="M146.13,436.49a105.19,105.19,0,0,1-24.58-2.93,1.5,1.5,0,1,1,.76-2.9c.28.07,27.73,7.14,49.1-1.55,29.52-12,51.47-38.1,70.84-61.12,9-10.72,17.54-20.84,25.79-28.17,49.63-44.08,86.27-48.76,87.81-48.94a1.5,1.5,0,1,1,.34,3c-.36,0-37.31,4.82-86.16,48.2-8.08,7.19-16.54,17.23-25.48,27.86-19.6,23.29-41.8,49.68-72,62C163.91,435.4,154.5,436.49,146.13,436.49Z"/><path d="M109.4,503.12c-10.57,0-21.4-7.24-26.52-15.23A53.54,53.54,0,0,1,75.58,447a1.5,1.5,0,0,1,2.88.82,51.53,51.53,0,0,0,6.94,38.5c5.11,8,17,15.41,27.33,13.56,19.12-3.44,15.29-29.5,13.24-43.5-.24-1.62-.45-3.06-.6-4.29-1.1-9-5.11-21.26-9.37-34.21-3.9-11.88-7.93-24.16-9.73-34.28-7.23-40.72,1.83-77.57,5-88.44-12,5.74-57.52,30.1-85.74,81C9.52,405-3.78,444.07,6.81,467.35c7,15.39,26.29,14.83,26.49,14.82a1.5,1.5,0,1,1,.11,3c-.87,0-21.51.63-29.33-16.58C-5.3,448,1.72,412.85,22.87,374.69,56,315,112.5,291.21,113.07,291a1.5,1.5,0,0,1,2,1.87c-.14.42-14.27,42.62-5.83,90.17,1.77,9.92,5.76,22.1,9.63,33.88,4.3,13.09,8.36,25.46,9.5,34.77.14,1.21.35,2.64.59,4.22,2,13.94,6.29,42.94-15.68,46.89A21.81,21.81,0,0,1,109.4,503.12Z"/><path d="M62.72,501.47c-1.06,0-2.16-.05-3.31-.16-11.15-1-18.07-4.46-23.89-11.8s-10.75-22.28-7-42.05a1.5,1.5,0,1,1,2.94.55c-3.52,18.78,1,32.79,6.45,39.64s11.44,9.7,21.82,10.68C77.46,500,82.45,486.7,82.5,486.57a1.5,1.5,0,0,1,2.82,1C85.27,487.74,80.1,501.47,62.72,501.47Z"/><path d="M115.07,138a1.47,1.47,0,0,1-1-.41,1.5,1.5,0,0,1-.08-2.12c3.83-4.09,5.63-12.51,5.23-16.75a1.5,1.5,0,0,1,3-.28c.51,5.43-1.83,14.61-6,19.08A1.47,1.47,0,0,1,115.07,138Z"/><path d="M175,192.58a1.33,1.33,0,0,1-.28,0,1.5,1.5,0,0,1-1.21-1.34c0-.05-.5-5.5-1-8.17-4.67-27.56-21.25-43.53-46.5-60.35a1.5,1.5,0,0,1,1.66-2.5c25.91,17.27,43,33.72,47.8,62.35,0,.13,0,.26.07.4,1.16-9.64-.36-25.86-10.48-44.34a1.5,1.5,0,0,1,2.63-1.44c13.69,25,12.55,46.74,8.61,54.59A1.51,1.51,0,0,1,175,192.58Z"/><path d="M333.5,215h-.15a1.5,1.5,0,0,1-1.35-1.64c1.92-20.29,17.3-32.92,31.05-38a1.5,1.5,0,0,1,1,2.82C351.19,183,336.77,194.75,335,213.65A1.51,1.51,0,0,1,333.5,215Z"/><path d="M175.41,192.58a1.47,1.47,0,0,1-.94-.34,1.49,1.49,0,0,1-.37-1.89c.76-1.37,19-33.41,49.79-36.77a1.5,1.5,0,0,1,.32,3c-18.42,2-32.38,15.3-40.26,25l3.78-3.33c23.28-20,59.31-18,94.79-12.94a1.5,1.5,0,0,1,1.27,1.69,1.52,1.52,0,0,1-1.7,1.28c-34.77-5-70-7-92.39,12.23L176.4,192.2A1.48,1.48,0,0,1,175.41,192.58Z"/><path d="M377.39,179.3h-.09c-.78-.05-79.88-4.48-158.27-23.91-53.21-13.18-88.6-30.18-101.35-36.88l-.57-.29a1.51,1.51,0,0,1-.87-1.73A136.52,136.52,0,0,1,338.08,45.73a131.22,131.22,0,0,1,45.61,91.56c.75,12.07-.79,25.06-4.85,40.88A1.5,1.5,0,0,1,377.39,179.3Zm-258-63.25c12.95,6.77,47.92,23.45,100.32,36.43,72.77,18,146.17,23.11,156.49,23.75,3.76-15,5.17-27.31,4.45-38.75A128.18,128.18,0,0,0,336.12,48,133.14,133.14,0,0,0,240,15.8C182.54,19.41,133.12,60.57,119.43,116.05Z"/><path d="M378.39,179.3a1.5,1.5,0,0,1-.07-3c24.31-1.21,43.6-8.87,52.91-21a26.67,26.67,0,0,0,5.12-22.45c-5.13-23.63-44.1-36.31-63.63-35.34a1.48,1.48,0,0,1-1.58-1.42,1.5,1.5,0,0,1,1.43-1.57c20.41-1,61.25,12.52,66.71,37.69a29.6,29.6,0,0,1-5.67,24.91C423.76,170,403.66,178,378.47,179.3Z"/><path d="M238.67,141.79a1.14,1.14,0,0,1-.26,0c-47.78-8.3-74.8-21.48-75.06-21.61a1.5,1.5,0,0,1-.68-2l2.89-5.72a39.51,39.51,0,0,1,74.76,19.27l-.15,8.63a1.49,1.49,0,0,1-1.5,1.47Zm-72.62-23.68c5.92,2.68,30.87,13.23,71.15,20.41l.12-6.91a36.51,36.51,0,0,0-69.08-17.84Z"/><path d="M163.31,138a1.5,1.5,0,0,1-1.38-2.08l6.12-14.49a1.5,1.5,0,1,1,2.76,1.17L164.69,137A1.5,1.5,0,0,1,163.31,138Z"/><path d="M175,141.79a1.47,1.47,0,0,1-.54-.1,1.5,1.5,0,0,1-.86-1.94l5.25-13.49a1.5,1.5,0,0,1,2.8,1.09l-5.25,13.49A1.5,1.5,0,0,1,175,141.79Z"/><path d="M218.51,155.22a1.5,1.5,0,0,1-1.41-2l5.9-16.15a1.5,1.5,0,1,1,2.81,1l-5.89,16.15A1.5,1.5,0,0,1,218.51,155.22Z"/><circle cx="189.34" cy="137.49" r="2.81"/><circle cx="198.62" cy="140.78" r="2.81"/><circle cx="208.67" cy="143.26" r="2.81"/><path d="M164,120.32a1.59,1.59,0,0,1-.56-.11c-.69-.28-17.12-6.85-26.3-12a1.49,1.49,0,0,1-.58-2,1.5,1.5,0,0,1,2-.58c9,5,25.79,11.74,26,11.8a1.51,1.51,0,0,1-.56,2.9Z"/><path d="M284.42,147.76h-.1a469.63,469.63,0,0,1-48.61-6.47,1.5,1.5,0,1,1,.57-2.94,467.38,467.38,0,0,0,48.25,6.42,1.5,1.5,0,0,1-.11,3Z"/><path d="M333.12,174.37a1.64,1.64,0,0,1-.37-.05,1.49,1.49,0,0,1-1.08-1.82c12.82-50.7-2.64-89.85-17.86-113.76-16.55-26-36.41-40.14-36.61-40.28A1.5,1.5,0,0,1,278.93,16c.2.14,20.48,14.57,37.34,41,15.58,24.43,31.4,64.42,18.3,116.21A1.5,1.5,0,0,1,333.12,174.37Z"/><path d="M156.85,116.58a1.43,1.43,0,0,1-.5-.09,1.49,1.49,0,0,1-.91-1.91c16.24-45.68,47.83-70.29,71.48-82.89,25.6-13.65,47.72-16.54,47.94-16.57a1.5,1.5,0,1,1,.37,3c-.22,0-21.87,2.88-47,16.3-23.13,12.35-54.05,36.47-70,81.19A1.5,1.5,0,0,1,156.85,116.58Z"/><path d="M263,145.58a1.49,1.49,0,0,1-1.33-2.18c.24-.49,24.69-49.84,13.6-126.23a1.5,1.5,0,0,1,3-.43c11.24,77.39-13.65,127.52-13.9,128A1.51,1.51,0,0,1,263,145.58Z"/><path d="M279.45,18.74a9.15,9.15,0,0,1-3.19-.57A9.23,9.23,0,0,1,271,13.33a9.27,9.27,0,0,1-.32-7.16,9.37,9.37,0,1,1,17.61,6.4h0A9.39,9.39,0,0,1,279.45,18.74Zm0-15.75a6.39,6.39,0,1,0,2.18.39A6.36,6.36,0,0,0,279.45,3Zm7.4,9.07h0Z"/><path d="M88.34,546.92c-1.06,0-2.13,0-3.21-.14a1.5,1.5,0,0,1,.26-3c5,.44,9.93-.2,17.52-2.28,11.37-3.11,31.58-19.1,31.79-19.26a1.5,1.5,0,0,1,2.43,1.11c0,.12.67,12.46,8.23,17.74,4,2.77,9.24,3.15,15.68,1.13,10.94-3.44,27-21.42,42.55-38.82,11.33-12.69,22-24.67,31.12-31.66,13.42-10.31,35.25-18,56.37-25.43,22.17-7.8,45.09-15.87,56.76-26.66,37.09-34.31,38.16-67.28,32.94-81.35a1.5,1.5,0,1,1,2.81-1c1.51,4.07,13.38,41-33.71,84.59-12.13,11.21-34.32,19-57.81,27.29-20.89,7.35-42.5,15-55.53,25-8.86,6.82-19.48,18.7-30.72,31.28-15.81,17.69-32.15,36-43.89,39.68-7.37,2.32-13.53,1.8-18.3-1.54-6.45-4.52-8.54-12.94-9.2-17.3-5.61,4.28-20.9,15.46-30.73,18.15A57.25,57.25,0,0,1,88.34,546.92Z"/><path d="M30.13,533.43c-9.75,0-19.68-3.12-23.33-11.21-9.47-21,15.22-40.13,16.27-40.93a1.5,1.5,0,1,1,1.82,2.38c-.24.19-23.84,18.5-15.36,37.31,4.67,10.35,22.58,11,33.18,7.55a1.5,1.5,0,1,1,.93,2.85A44.48,44.48,0,0,1,30.13,533.43Z"/><path d="M312.51,686.63a1.5,1.5,0,0,1,0-3c.14,0,14.94-.16,21.17-11.58,5.08-9.31,3.37-25.94,1.85-40.61-.77-7.49-1.5-14.57-1.29-20.18.55-14.55,4.4-58.22,4.44-58.66a1.5,1.5,0,0,1,3,.27c0,.43-3.88,44-4.43,58.5-.2,5.4.52,12.38,1.28,19.76,1.55,15.11,3.32,32.22-2.21,42.36C329.22,686.48,313.19,686.63,312.51,686.63Z"/><path d="M219.59,751c-7.46,0-12.62-1.28-18.63-6.67-7.39-6.63-4.41-26.85-1-50.27,2-13.54,4.07-27.54,4.21-39.67a1.5,1.5,0,0,1,1.49-1.48h0a1.5,1.5,0,0,1,1.48,1.51c-.14,12.33-2.22,26.44-4.23,40.07-3.19,21.63-6.2,42.06,0,47.61,7.37,6.6,12.85,6.28,26.09,5.51,6.48-.38,14.55-.85,25.4-.65,4.17.08,8.15.2,12,.32,18.26.57,32.69,1,40.68-4.9,9.69-7.17,5.25-40.87,2-65.47-1.18-9-2.3-17.47-2.61-23.55-.72-14.29,0-57.37,0-57.81a1.5,1.5,0,0,1,3,.05c0,.43-.72,43.41,0,57.61.3,6,1.41,14.39,2.59,23.31,3.52,26.75,7.91,60.05-3.2,68.27-8.83,6.54-23.71,6.08-42.55,5.49-3.84-.12-7.8-.25-12-.32-10.74-.2-18.74.27-25.17.64C225.57,750.82,222.41,751,219.59,751Z"/><path d="M201.53,690.51a12.38,12.38,0,0,1-10.8-6.49c-2.76-4.71-1.47-10.11.32-17.6s4.22-17.64,3.84-32a1.5,1.5,0,0,1,3-.08c.38,14.79-2.1,25.21-3.92,32.82-1.69,7-2.8,11.72-.65,15.38a9.3,9.3,0,0,0,8.76,5,1.5,1.5,0,0,1,.38,3A7,7,0,0,1,201.53,690.51Z"/><path d="M127,311.38c-3.18,0-6.92-1.69-10.06-4.83-2.12-2.12-5.64-5.64-5.91-9.43a1.56,1.56,0,0,1-.14-.83,6.52,6.52,0,0,1,.95-2.74l.09-.13a5.83,5.83,0,0,1,2.67-2.09c3.57-1.44,9,0,13.19,3.4,3.36,2.77,5.56,6.6,5.73,10a6.17,6.17,0,0,1-1.68,4.8A6.64,6.64,0,0,1,127,311.38Zm-12.59-16.27c-1.49,2.82,1.62,6.29,4.65,9.32,3.7,3.7,8.58,5.06,10.66,3a3.3,3.3,0,0,0,.8-2.53c-.12-2.55-1.94-5.62-4.64-7.83-3.28-2.69-7.64-4-10.16-2.94A2.72,2.72,0,0,0,114.42,295.11Z"/><path d="M143.78,326.38a16.07,16.07,0,0,1-9.17-3.33c-5.73-4.18-8.05-10.43-5.28-14.23s9.43-3.52,15.17.66h0c5.73,4.17,8.05,10.42,5.28,14.23A7.13,7.13,0,0,1,143.78,326.38Zm-8.5-17.25a4.18,4.18,0,0,0-3.53,1.45c-1.72,2.37.4,7,4.62,10.05s9.26,3.68,11,1.31-.39-7-4.62-10A13.35,13.35,0,0,0,135.28,309.13Z"/><path d="M162.38,339.65a16.82,16.82,0,0,1-8.23-2.39,16.58,16.58,0,0,1-6.39-6.29c-1.42-2.66-1.55-5.26-.35-7.33s3.51-3.26,6.53-3.36a16.63,16.63,0,0,1,8.64,2.38h0A16.69,16.69,0,0,1,169,329c1.42,2.66,1.55,5.27.35,7.34s-3.51,3.26-6.52,3.36Zm-8-16.38H154c-1.12,0-3.14.32-4,1.86s-.13,3.43.4,4.42a14.82,14.82,0,0,0,12.29,7.09c1.12,0,3.14-.33,4-1.86s.13-3.43-.4-4.42a13.57,13.57,0,0,0-5.24-5.11h0A13.81,13.81,0,0,0,154.34,323.27Z"/><path d="M185.64,349.8a18.65,18.65,0,0,1-2-.1c-7.06-.7-12.22-4.93-11.75-9.64.24-2.37,1.86-4.42,4.56-5.75A17.81,17.81,0,0,1,193.76,336c2.39,1.84,3.58,4.16,3.34,6.54C196.68,346.82,191.8,349.8,185.64,349.8Zm-2.23-14a12.81,12.81,0,0,0-5.59,1.18c-1,.5-2.73,1.59-2.91,3.36-.29,2.93,3.86,5.84,9.07,6.36s9.85-1.52,10.14-4.45c.17-1.77-1.3-3.18-2.19-3.87a13.58,13.58,0,0,0-6.88-2.49h0A15.16,15.16,0,0,0,183.41,335.82Z"/><path d="M207.65,351.17c-6.59,0-11.78-3.3-12-7.78-.25-4.73,5.1-8.72,12.19-9.09s12.82,3,13.07,7.75-5.1,8.71-12.18,9.09Zm1.19-13.9-.87,0c-5.22.28-9.5,3-9.35,5.94s4.71,5.2,9.93,4.91,9.5-3,9.35-5.93C217.75,339.43,213.69,337.27,208.84,337.27Z"/><path d="M230.12,350a15.68,15.68,0,0,1-6.37-1.27c-2.75-1.25-4.44-3.24-4.75-5.61s.8-4.72,3.13-6.64a16.65,16.65,0,0,1,8.31-3.37h0c7-.92,13,2,13.64,6.71.31,2.37-.8,4.72-3.13,6.64a16.65,16.65,0,0,1-8.31,3.37A19.63,19.63,0,0,1,230.12,350Zm.71-13.92a13.7,13.7,0,0,0-6.8,2.72c-.86.71-2.29,2.17-2.06,3.93s2,2.8,3,3.27a14.85,14.85,0,0,0,14.07-1.86c.87-.71,2.29-2.17,2.06-3.93-.39-2.92-5.09-4.81-10.28-4.13Z"/><path d="M253.51,345.52a15.68,15.68,0,0,1-6.37-1.27c-2.75-1.25-4.43-3.24-4.74-5.61-.62-4.68,4.4-9.08,11.43-10h0c7-.92,13,2,13.65,6.71.31,2.37-.8,4.72-3.14,6.64a16.66,16.66,0,0,1-8.3,3.37A19.79,19.79,0,0,1,253.51,345.52Zm.72-13.92c-5.19.69-9.25,3.73-8.86,6.65.23,1.76,2,2.8,3,3.27a14.82,14.82,0,0,0,14.06-1.86c.87-.71,2.29-2.17,2.06-3.93-.38-2.92-5.09-4.81-10.27-4.13Z"/><path d="M271.31,340.36a1.44,1.44,0,0,1-.57-.11c-3.64-1.49-4.68-3.91-4.91-5.67-.62-4.69,4.41-9.09,11.44-10a16.48,16.48,0,0,1,9,1.17,1.49,1.49,0,1,1-1.26,2.71,13.69,13.69,0,0,0-7.37-.9c-5.19.68-9.24,3.72-8.86,6.64.19,1.45,1.2,2.53,3.08,3.3a1.5,1.5,0,0,1-.57,2.88Z"/><path d="M175.16,338.49A1.52,1.52,0,0,1,174,338c-.1-.13-2.4-2.71-5.18-1.62a1.5,1.5,0,0,1-1.09-2.79c4.79-1.88,8.4,2.28,8.55,2.46a1.5,1.5,0,0,1-1.14,2.47Z"/><path d="M170.09,345.15a6.06,6.06,0,0,1-3.26-.89c-3.11-1.93-3.34-6.22-3.35-6.4a1.5,1.5,0,0,1,1.43-1.57,1.48,1.48,0,0,1,1.56,1.42c.05.81.48,3.11,1.95,4,1.11.68,2.75.56,4.88-.37a1.5,1.5,0,1,1,1.2,2.74A11.07,11.07,0,0,1,170.09,345.15Z"/><path d="M139.55,391.17a1.48,1.48,0,0,1-1.48-1.31L134.89,364a1.49,1.49,0,0,1,.59-1.38l29.76-22.33a1.5,1.5,0,0,1,2.31,1.73,1.48,1.48,0,0,1,1.17-.14,1.5,1.5,0,0,1,1.07,1.48l-1,38.3a1.49,1.49,0,0,1-1.08,1.4L140,391.11A1.52,1.52,0,0,1,139.55,391.17Zm27.1-42.31-23.46,38.2,22.63-6.58ZM138,364.5l2.59,21.11,26.26-42.75Z"/><path d="M165.86,383.53a1.5,1.5,0,0,1-1.31-.77l-9.73-17.44H136.38a1.5,1.5,0,0,1,0-3H155.7a1.48,1.48,0,0,1,1.31.77l10.16,18.21a1.5,1.5,0,0,1-.58,2A1.47,1.47,0,0,1,165.86,383.53Z"/><path d="M126.33,415.15a1.52,1.52,0,0,1-.77-.22,1.49,1.49,0,0,1-.73-1.33l1.24-42.89a1.5,1.5,0,0,1,3-.32l6.41,26,29.21-6.52a1.5,1.5,0,0,1,1.08,2.76l-38.65,22.28A1.44,1.44,0,0,1,126.33,415.15Zm2.42-33.35L127.91,411,155.73,395l-21.06,4.71a1.51,1.51,0,0,1-1.79-1.11Z"/><path d="M126.33,415.15a1.56,1.56,0,0,1-.69-.17,1.5,1.5,0,0,1-.64-2l8-15.44a1.5,1.5,0,0,1,2-.65,1.52,1.52,0,0,1,.64,2l-8,15.44A1.51,1.51,0,0,1,126.33,415.15Z"/><path d="M207,615.7a1.54,1.54,0,0,1-.9-.3l-40.64-30.56a1.5,1.5,0,0,1,1.8-2.4l38.41,28.88L206.8,591a1.5,1.5,0,1,1,3,.18l-1.34,23.09a1.51,1.51,0,0,1-.87,1.27A1.56,1.56,0,0,1,207,615.7Z"/><path d="M207,615.7a1.44,1.44,0,0,1-.8-.24,1.5,1.5,0,0,1-.7-1.35L206.8,591a1.5,1.5,0,1,1,3,.18l-1.19,20.38,40.53-22.16a1.5,1.5,0,0,1,1.44,2.63l-42.9,23.46A1.55,1.55,0,0,1,207,615.7Z"/><path d="M171.53,644.88a1.48,1.48,0,0,1-1.05-.43c-.1-.1-9.94-10.14,1.32-25.82,3.87-5.39,7.46-9.81,18.49-17.54a1.5,1.5,0,1,1,1.72,2.46c-10.67,7.47-14,11.52-17.78,16.83-8.56,11.92-3.57,19.61-2,21.5,29.27-.48,33.11-26.75,33.26-27.88a1.5,1.5,0,0,1,3,.39c0,.31-4.35,30.41-36.91,30.49Z"/><path d="M239.19,649.47l-.18,0c-32.32-3.87-33.1-34.27-33.1-34.58a1.49,1.49,0,0,1,1.47-1.51,1.52,1.52,0,0,1,1.52,1.47c0,1.14.78,27.69,29.8,31.56,1.74-1.69,7.6-8.74.48-21.59-3.16-5.72-6-10.12-15.7-18.78a1.5,1.5,0,0,1,2-2.24c10.07,9,13.12,13.76,16.34,19.57,9.35,16.89-1.59,25.71-1.7,25.8A1.56,1.56,0,0,1,239.19,649.47Z"/><path d="M165.55,630.5a13.16,13.16,0,0,1-10.3-5l-.07-.11c-9.89-16.59,18.1-35.42,19.29-36.21a1.5,1.5,0,1,1,1.66,2.5c-.27.18-26.73,18-18.41,32.12a10.23,10.23,0,0,0,10.45,3.43,1.5,1.5,0,1,1,.65,2.92A14.42,14.42,0,0,1,165.55,630.5Z"/><path d="M248.54,637.19a15,15,0,0,1-5-.9,1.5,1.5,0,0,1,1-2.83c6.48,2.28,9.94-1.53,10.09-1.69,10-13-14.32-33.82-14.56-34a1.5,1.5,0,0,1,1.93-2.29c1.1.93,26.71,22.89,14.95,38.21A11.41,11.41,0,0,1,248.54,637.19Z"/><path d="M156.6,611.53a1.52,1.52,0,0,1-.42-.06,12.29,12.29,0,0,1-5.81-3.6c-8.34-10.83,9.91-25.46,10.7-26.07a1.48,1.48,0,0,1,2.1.24,1.52,1.52,0,0,1-.24,2.11c-.17.13-16.73,13.4-10.21,21.86h0a9.6,9.6,0,0,0,4.3,2.59,1.49,1.49,0,0,1-.42,2.93Z"/><path d="M257.79,618.88a1.5,1.5,0,0,1-.25-3,9.49,9.49,0,0,0,4.61-2.1c7.43-7.62-6.75-22.24-6.9-22.39a1.5,1.5,0,0,1,2.14-2.1c.68.68,16.38,16.87,6.87,26.62a12.41,12.41,0,0,1-6.21,2.93Z"/><path d="M176.12,636a3.82,3.82,0,0,1,.17,6.14c-.39.33-.79.69-1.19,1.1-2,2.13-2.79,5-2.11,9a10,10,0,0,1-3-3.86,12.3,12.3,0,0,1,.77-11.34,3.76,3.76,0,0,1,5.36-1.09Z"/><path d="M160.91,618.51a3.82,3.82,0,0,1,.17,6.14,14.9,14.9,0,0,0-1.19,1.1c-2,2.13-2.79,5-2.11,9a10,10,0,0,1-3-3.86,12.3,12.3,0,0,1,.77-11.34,3.76,3.76,0,0,1,5.36-1.09Z"/><path d="M153.1,600.53a2.88,2.88,0,0,1,.13,4.62,11.33,11.33,0,0,0-.9.83c-1.54,1.6-2.1,3.78-1.59,6.79a7.5,7.5,0,0,1-2.27-2.9,9.29,9.29,0,0,1,.58-8.54,2.83,2.83,0,0,1,4-.81Z"/><path d="M240.38,639.14a3.81,3.81,0,0,0-.88,6.08,14.64,14.64,0,0,1,1.05,1.23c1.79,2.35,2.19,5.32,1,9.22a10.1,10.1,0,0,0,3.45-3.49,12.31,12.31,0,0,0,.55-11.35,3.77,3.77,0,0,0-5.19-1.71Z"/><path d="M253.23,623.34a3.81,3.81,0,0,0-.88,6.08,14.64,14.64,0,0,1,1.05,1.23c1.78,2.35,2.19,5.32,1,9.22a10.08,10.08,0,0,0,3.46-3.49,12.31,12.31,0,0,0,.55-11.35,3.77,3.77,0,0,0-5.19-1.71Z"/><path d="M263.08,606.39a2.87,2.87,0,0,0-.66,4.58,10.75,10.75,0,0,1,.79.92c1.34,1.77,1.65,4,.78,6.93a7.42,7.42,0,0,0,2.6-2.62,9.26,9.26,0,0,0,.42-8.54,2.84,2.84,0,0,0-3.91-1.28Z"/><path d="M129.22,484.14a1.47,1.47,0,0,1-1.1-.48,1.49,1.49,0,0,1,.08-2.12l13.25-12.29L127.21,461a1.5,1.5,0,0,1,1.51-2.6l16,9.29a1.5,1.5,0,0,1,.27,2.4l-14.75,13.67A1.45,1.45,0,0,1,129.22,484.14Z"/><path d="M78.19,531.45a1.54,1.54,0,0,1-.77-.21L30.2,502.85a1.5,1.5,0,0,1-.2-2.42l9.3-7.87a1.5,1.5,0,0,1,1.94,2.29l-7.7,6.51L78,528.09l29.74-27.58a1.5,1.5,0,0,1,2,2.2L79.21,531.05A1.46,1.46,0,0,1,78.19,531.45Z"/><path d="M78.19,553.23a1.5,1.5,0,0,1-.79-.22L30.18,523.64a1.5,1.5,0,0,1-.71-1.27v-20.8a1.5,1.5,0,0,1,3,0v20L76.69,549V530a1.5,1.5,0,0,1,3,0v21.78a1.5,1.5,0,0,1-.77,1.31A1.47,1.47,0,0,1,78.19,553.23Z"/><path d="M78.19,553.23a1.48,1.48,0,0,1-1.11-.49,1.5,1.5,0,0,1,.1-2.11l65.28-59.56V469a1.5,1.5,0,0,1,3,0v22.76a1.49,1.49,0,0,1-.49,1.11l-65.77,60A1.51,1.51,0,0,1,78.19,553.23Z"/><path d="M186.23,219.26a1.5,1.5,0,0,1-.18-3l78.17-9.46a1.5,1.5,0,0,1,.36,3l-78.17,9.46Z"/><path d="M155.85,209.8a1.43,1.43,0,0,1-.81-.25l-50.12-32.46a1.5,1.5,0,0,1,1.63-2.51L156.67,207a1.5,1.5,0,0,1,.44,2.07A1.52,1.52,0,0,1,155.85,209.8Z"/></svg>