<svg id="Capa_1" data-name="Capa 1" xmlns="http://www.w3.org/2000/svg" viewBox="0 0 103 66"><defs><style>.cls-1{fill:#9e9e9e;}.cls-2{fill:#cecece;}</style></defs><path class="cls-1" d="M1.49,21.75,6.37,33,29.46,51.28l19,11.86s6.43,4.79,15.41-2.43c0,0-19.47,7.1-20.33-19.63Z"/><path class="cls-2" d="M24.4,31.45c32-2,47.7-30,47.7-30a123.79,123.79,0,0,0,29.41,37.29L71.75,58.15,58.88,62.33s-16-2.61-15.35-21.25h0L24.4,31.45"/><path d="M54.66,66a16.42,16.42,0,0,1-9.29-2.88c-5.43-3.68-12.88-8.8-17.52-12.2-3.6-2.64-7.58-5.33-12.19-8.44l-5.51-3.73a20.1,20.1,0,0,1-7.63-9.82L.09,22.26a1.49,1.49,0,0,1,2-1.86L44.16,39.73A1.49,1.49,0,0,1,45,41.1c0,.13,0,13.11,7.18,17.55,4,2.51,9.8,1.89,17.07-1.83a1.49,1.49,0,0,1,1.4,2.62l-7.94,4.44A16.47,16.47,0,0,1,54.66,66ZM4.11,24.6l1.21,3.31a17.2,17.2,0,0,0,6.51,8.38L17.33,40C22,43.14,26,45.85,29.62,48.52,34.22,51.9,41.64,57,47,60.66A13.45,13.45,0,0,0,55.66,63a12.91,12.91,0,0,1-5-1.8C43.19,56.59,42.19,45.44,42.06,42Z"/><path d="M63.86,52l-.21,0L49.87,48.07a.74.74,0,0,1-.54-.8.73.73,0,0,1,.71-.66l9.63-.44,2.07-7.69a.77.77,0,0,1,.77-.55.76.76,0,0,1,.69.66L64.6,51.2a.73.73,0,0,1-.26.65A.78.78,0,0,1,63.86,52Zm-9.2-4.13L63,50.26l-.85-7.59L61,47.08a.77.77,0,0,1-.69.55Z"/><path d="M56.6,43.18h0l-9-.15a.73.73,0,0,1-.73-.68l-.91-11.29a.74.74,0,0,1,.27-.64.75.75,0,0,1,.69-.14l11.63,3.55a.75.75,0,0,1,.51.87l-1.71,7.89A.75.75,0,0,1,56.6,43.18Zm-8.32-1.62,7.72.12,1.44-6.62-9.93-3Z"/><path d="M70,59.63a1.48,1.48,0,0,1-.78-2.75L99,38.71A133.86,133.86,0,0,1,71.57,4.36C66.73,11,49.86,31.25,22.68,32.94a1.49,1.49,0,0,1-.18-3C53.33,28.05,70.3,1,70.47.71A1.51,1.51,0,0,1,71.82,0a1.48,1.48,0,0,1,1.26.84,128.36,128.36,0,0,0,29.4,37A1.51,1.51,0,0,1,103,39a1.49,1.49,0,0,1-.71,1.15L70.72,59.42A1.54,1.54,0,0,1,70,59.63Z"/></svg>