<svg id="Capa_1" data-name="Capa 1" xmlns="http://www.w3.org/2000/svg" viewBox="0 0 67 83"><defs><style>.cls-1{fill:#9e9e9e;}.cls-2{fill:#cecece;}</style></defs><path class="cls-1" d="M6.51,1.5,1.79,12.89,4.62,42.36l4.59,22s1,8,12.39,9.46c0,0-18.54-9.14.07-28.41Z"/><path class="cls-2" d="M15.37,24.86C38.9,46.64,65.52,48.25,65.52,48.25s-4.7,6.66-3.2,33.25L28.9,77.77,17,71.37S7.84,58,21.67,45.43h0l-6.3-20.57"/><path d="M27.65,78a1.33,1.33,0,0,1-.43-.07l-8.67-2.65A16.48,16.48,0,0,1,7.1,62.14C6,55.61,4.53,46.64,3.77,40.94c-.59-4.45-1.41-9.19-2.35-14.69C1.06,24.15.68,22,.29,19.63A20.43,20.43,0,0,1,2.07,7.25L5.18.84A1.48,1.48,0,0,1,7.91,1L23.07,44.94a1.52,1.52,0,0,1-.38,1.58c-.1.09-9.44,9.12-7.66,17.45,1,4.68,5.41,8.4,13.11,11.08A1.5,1.5,0,0,1,27.65,78ZM6.28,5.38,4.73,8.56A17.54,17.54,0,0,0,3.21,19.13c.39,2.32.77,4.51,1.13,6.61,1,5.53,1.77,10.3,2.37,14.8C7.46,46.2,8.93,55.13,10,61.63a13.6,13.6,0,0,0,4.28,7.86,13.07,13.07,0,0,1-2.18-4.9C10.3,56,17.61,47.5,20,45Z"/><path d="M28.38,68H28.3a.78.78,0,0,1-.58-.4L21,54.89a.76.76,0,0,1,.21-1,.74.74,0,0,1,1,.05l7,6.67,7-3.86A.74.74,0,0,1,37,57a.78.78,0,0,1,0,1L29,67.74A.74.74,0,0,1,28.38,68Zm-3.92-9.78,4.06,7.7L33.38,60l-4,2.22a.74.74,0,0,1-.87-.12Z"/><path d="M29.72,56.58a.71.71,0,0,1-.54-.24l-6.12-6.62a.75.75,0,0,1,0-1l7.48-8.54a.75.75,0,0,1,.65-.24.75.75,0,0,1,.57.4l5.48,10.9a.75.75,0,0,1-.27,1l-6.85,4.26A.68.68,0,0,1,29.72,56.58ZM24.6,49.2l5.25,5.68,5.75-3.59L30.92,42Z"/><path d="M61.71,83c-3.44,0-19.78-.27-34.52-5.12a1.49,1.49,0,0,1-1-1.88,1.48,1.48,0,0,1,1.87-1C41.2,79.34,56,79.92,60.75,80,59.87,61.69,62,53,63.32,49.46a100.44,100.44,0,0,1-50.2-24.81A1.49,1.49,0,0,1,13,22.54a1.47,1.47,0,0,1,2.09-.1C38,43.65,65.4,46.73,65.67,46.76a1.51,1.51,0,0,1,1.06,2.36c0,.05-4.36,6.91-2.93,32.29a1.51,1.51,0,0,1-.4,1.11,1.46,1.46,0,0,1-1.06.48Z"/></svg>