<svg
    width="643"
    height="540"
    viewBox="0 0 643 848"
    fill="none"
    xmlns="http://www.w3.org/2000/svg"
    >
    <g id="owl-flag">
        <g id="foot-right">
        <path
            id="Vector"
            d="M281.146 588.998C281.145 589.376 281.185 589.753 281.266 590.122C281.502 591.26 281.87 592.368 282.361 593.422C283.235 595.314 284.297 597.114 285.531 598.794C287.443 601.409 289.566 603.864 291.878 606.135C294.647 608.899 298.155 611.967 301.86 615.013C305.565 618.059 309.471 621.087 313.03 623.768C316.589 626.449 319.804 628.787 322.13 630.454C324.456 632.121 325.89 633.117 325.89 633.117L250.742 629.605L249.986 590.687C250.771 591.116 251.587 591.488 252.426 591.8C254.575 592.619 256.81 593.194 259.088 593.514C262.374 593.98 265.713 593.939 268.988 593.394C273.269 592.66 277.385 591.171 281.146 588.998V588.998Z"
            fill="#33230A"
        />
        <path
            id="Vector_2"
            d="M317.141 633.254C317.141 633.254 317.847 633.818 318.936 634.761C320.025 635.704 321.499 637.026 323.03 638.54C324.62 640.091 326.11 641.742 327.489 643.484C328.727 644.975 329.702 646.666 330.374 648.484C330.824 649.855 330.933 651.315 330.693 652.738C330.469 654.007 329.915 655.196 329.087 656.184C328.248 657.171 327.169 657.926 325.954 658.375C324.592 658.87 323.132 659.038 321.693 658.864C319.738 658.605 317.845 658.005 316.099 657.09C314.397 656.218 312.781 655.189 311.272 654.016C310.09 653.106 308.958 652.133 307.882 651.101C307.066 650.318 306.603 649.801 306.603 649.801C306.603 649.801 306.747 650.168 306.941 650.775C307.194 651.567 307.405 652.372 307.575 653.186C307.792 654.199 307.913 655.231 307.937 656.268C307.974 657.285 307.812 658.301 307.459 659.256C307.008 660.363 306.286 661.338 305.359 662.092C304.485 662.787 303.455 663.259 302.359 663.469C301.22 663.684 300.049 663.658 298.921 663.391C297.696 663.103 296.538 662.584 295.508 661.862C293.791 660.56 292.224 659.071 290.837 657.422C289.179 655.55 287.489 653.414 285.972 651.398C284.455 649.382 283.113 647.487 282.149 646.098C281.185 644.709 280.599 643.822 280.599 643.822C280.77 644.253 280.919 644.693 281.046 645.14C281.342 646.144 281.533 647.177 281.614 648.221C281.728 649.419 281.566 650.628 281.14 651.754C280.894 652.355 280.53 652.901 280.071 653.36C279.611 653.82 279.064 654.182 278.463 654.428C276.272 655.391 273.709 654.335 271.097 652.21C268.196 649.662 265.624 646.763 263.441 643.579C261.056 640.267 258.941 636.835 257.43 634.231C255.919 631.627 254.999 629.85 254.999 629.85"
            fill="#A0752A"
        />
        <path
            id="Vector_4"
            d="M301.365 665.277C298.984 665.359 296.644 664.652 294.707 663.266C293.697 662.536 292.75 661.722 291.877 660.833C290.877 659.845 289.844 658.709 288.814 657.504C287.784 656.299 286.758 655.029 285.783 653.772C284.808 652.515 283.883 651.272 283.049 650.13C282.997 651.379 282.595 652.589 281.887 653.621C281.18 654.652 280.196 655.464 279.049 655.962C278.893 656.028 278.735 656.09 278.575 656.148C278.414 656.205 278.251 656.252 278.087 656.289C277.922 656.328 277.755 656.361 277.587 656.389C277.418 656.416 277.249 656.432 277.08 656.437C274.75 656.556 272.271 655.295 269.827 653.265C267.184 650.949 264.819 648.336 262.777 645.477C260.716 642.665 258.799 639.751 257.035 636.745C255.46 634.083 254.285 631.877 253.693 630.726C253.536 630.462 253.464 630.157 253.487 629.851C253.51 629.545 253.626 629.253 253.821 629.016C254.014 628.779 254.276 628.607 254.571 628.524C254.866 628.442 255.179 628.452 255.468 628.555C255.516 628.572 255.563 628.591 255.609 628.613C255.7 628.657 255.787 628.709 255.868 628.771C255.908 628.802 255.947 628.835 255.985 628.871C256.097 628.974 256.192 629.094 256.267 629.227C256.292 629.271 256.314 629.317 256.335 629.364C257.793 632.183 259.546 635.227 261.435 638.172C263.245 641.025 265.222 643.768 267.356 646.388C269.035 648.524 270.985 650.433 273.156 652.067C274.962 653.321 276.589 653.828 277.88 653.267C278.335 653.074 278.743 652.787 279.08 652.425C279.416 652.064 279.671 651.635 279.83 651.167C280.127 650.238 280.223 649.256 280.11 648.287C280.024 647.421 279.856 646.566 279.61 645.732C279.415 645.057 279.24 644.618 279.234 644.601C279.169 644.431 279.135 644.251 279.134 644.07C279.131 643.75 279.23 643.438 279.417 643.18C279.605 642.921 279.87 642.729 280.175 642.633C280.479 642.536 280.807 642.54 281.109 642.644C281.411 642.747 281.672 642.945 281.854 643.208C281.878 643.242 282.471 644.134 283.428 645.508C284.385 646.882 285.707 648.744 287.19 650.714C288.673 652.684 290.317 654.762 291.919 656.575C293.246 658.159 294.746 659.591 296.392 660.842C297.274 661.493 298.289 661.942 299.365 662.158C300.44 662.374 301.55 662.352 302.616 662.092C303.404 661.865 304.13 661.461 304.738 660.911C305.347 660.361 305.821 659.679 306.125 658.917C306.382 658.241 306.51 657.524 306.503 656.801C306.506 655.996 306.437 655.193 306.295 654.401C306.165 653.65 305.995 652.907 305.785 652.175C305.596 651.513 305.405 650.957 305.258 650.582C305.13 650.256 305.12 649.896 305.23 649.564C305.339 649.232 305.561 648.948 305.858 648.763C306.005 648.671 306.168 648.606 306.338 648.571C306.508 648.535 306.684 648.53 306.856 648.556C307.203 648.608 307.52 648.781 307.751 649.045C307.769 649.064 308.222 649.56 309 650.306C310.017 651.281 311.085 652.202 312.2 653.064C313.607 654.164 315.114 655.132 316.7 655.955C318.305 656.808 320.05 657.37 321.852 657.613C322.975 657.788 324.124 657.677 325.193 657.29C326.263 656.903 327.217 656.254 327.969 655.401C328.644 654.527 329.087 653.497 329.257 652.407C329.427 651.316 329.319 650.2 328.943 649.163C328.426 647.748 327.688 646.424 326.756 645.241C325.646 643.768 324.443 642.367 323.156 641.047C321.845 639.682 320.484 638.389 319.256 637.285C318.028 636.181 316.943 635.268 316.176 634.661C316.137 634.63 316.1 634.597 316.066 634.561C316.031 634.525 315.998 634.489 315.966 634.453C315.934 634.415 315.905 634.376 315.877 634.336C315.849 634.295 315.825 634.252 315.807 634.206C315.783 634.163 315.761 634.119 315.742 634.074C315.723 634.029 315.706 633.983 315.691 633.936C315.676 633.889 315.664 633.842 315.654 633.794C315.644 633.746 315.636 633.694 315.631 633.649C315.626 633.604 315.623 633.549 315.622 633.502C315.621 633.455 315.622 633.402 315.627 633.355C315.632 633.308 315.638 633.255 315.647 633.21C315.656 633.162 315.667 633.114 315.681 633.067C315.695 633.019 315.711 632.973 315.729 632.927C315.747 632.881 315.767 632.836 315.79 632.794C315.812 632.75 315.837 632.708 315.864 632.667C315.89 632.625 315.919 632.586 315.951 632.548C315.981 632.509 316.015 632.472 316.051 632.438C316.087 632.403 316.123 632.37 316.159 632.338C316.196 632.306 316.235 632.277 316.276 632.249C316.316 632.221 316.358 632.195 316.402 632.172C316.445 632.148 316.489 632.127 316.534 632.108C316.578 632.088 316.624 632.071 316.672 632.057C316.718 632.042 316.766 632.03 316.814 632.02C316.862 632.01 316.914 632.002 316.96 631.997C317.354 631.954 317.75 632.069 318.06 632.318C318.178 632.418 318.965 633.049 320.113 634.049C321.261 635.049 322.768 636.416 324.326 637.975C325.94 639.568 327.447 641.265 328.837 643.057C330.1 644.615 331.095 646.372 331.783 648.257C332.32 649.775 332.462 651.405 332.195 652.993C331.928 654.581 331.261 656.075 330.257 657.334C329.193 658.574 327.833 659.524 326.303 660.097C324.773 660.67 323.123 660.847 321.507 660.612C320.328 660.474 319.167 660.206 318.048 659.812C316.923 659.419 315.832 658.938 314.784 658.372C313.768 657.825 312.784 657.221 311.837 656.562C310.921 655.928 310.078 655.277 309.329 654.656C309.64 656.482 309.477 658.358 308.855 660.104C308.383 661.28 307.648 662.334 306.708 663.185C305.768 664.036 304.647 664.661 303.429 665.014C303.26 665.055 303.09 665.091 302.92 665.123C302.749 665.154 302.578 665.182 302.407 665.206C302.235 665.227 302.062 665.243 301.889 665.255C301.715 665.266 301.541 665.273 301.365 665.277Z"
            fill="black"
        />
        <path
            id="Vector_5"
            d="M306.693 651.469C306.498 651.478 306.303 651.449 306.119 651.384C306.057 651.362 305.998 651.336 305.94 651.306C305.824 651.246 305.717 651.171 305.621 651.084C305.524 650.995 305.44 650.894 305.37 650.784L299.387 641.63C299.183 641.303 299.114 640.909 299.195 640.532C299.276 640.156 299.5 639.825 299.821 639.611C300.153 639.398 300.555 639.323 300.942 639.404C301.328 639.484 301.668 639.713 301.887 640.042L307.873 649.201C308.074 649.53 308.14 649.924 308.057 650.301C307.974 650.677 307.749 651.007 307.429 651.222C307.32 651.296 307.202 651.355 307.078 651.397C306.953 651.438 306.824 651.463 306.693 651.47V651.469Z"
            fill="black"
        />
        <path
            id="Vector_6"
            d="M325.373 658.435C325.358 658.445 325.344 658.456 325.331 658.469C325.318 658.481 325.306 658.495 325.295 658.509C325.284 658.523 325.274 658.537 325.265 658.553C325.256 658.569 325.248 658.585 325.242 658.602C325.235 658.619 325.23 658.636 325.226 658.654C325.222 658.671 325.219 658.689 325.218 658.707C325.214 658.761 325.222 658.815 325.243 658.866C325.256 658.899 325.275 658.93 325.298 658.958C325.309 658.972 325.322 658.985 325.336 658.997C325.349 659.009 325.364 659.02 325.379 659.03C325.394 659.04 325.409 659.048 325.426 659.056C325.442 659.063 325.459 659.07 325.476 659.075C325.493 659.08 325.511 659.084 325.529 659.087C326.27 659.08 326.997 659.288 327.623 659.687C327.831 659.819 328.026 659.972 328.206 660.142C328.439 660.4 328.631 660.692 328.774 661.01C328.937 661.367 329.062 661.741 329.148 662.125C329.243 662.545 329.307 662.971 329.339 663.401C329.373 663.85 329.379 664.301 329.358 664.752C329.357 664.768 329.357 664.784 329.358 664.801C329.361 664.833 329.368 664.865 329.381 664.896C329.387 664.911 329.394 664.926 329.403 664.94C329.411 664.954 329.42 664.967 329.431 664.98C329.451 665.005 329.476 665.027 329.503 665.045C329.53 665.063 329.56 665.077 329.592 665.087C329.624 665.096 329.658 665.101 329.692 665.101C329.741 665.101 329.79 665.09 329.835 665.068C329.849 665.06 329.863 665.052 329.877 665.043C329.89 665.033 329.904 665.023 329.916 665.012C330.181 664.759 330.432 664.492 330.667 664.212C330.901 663.93 331.119 663.636 331.321 663.331C331.521 663.023 331.705 662.705 331.87 662.377C332.036 662.05 332.185 661.714 332.314 661.371C332.541 660.686 332.695 659.98 332.774 659.263C332.86 658.496 332.86 657.722 332.774 656.955C332.687 656.165 332.493 655.391 332.197 654.655C331.891 653.898 331.46 653.197 330.922 652.583C330.912 652.572 330.902 652.562 330.892 652.553C330.881 652.544 330.87 652.535 330.859 652.528C330.847 652.52 330.835 652.513 330.823 652.507L330.784 652.49L330.745 652.477H330.704H330.663H330.622L330.582 652.487L330.544 652.503C330.53 652.508 330.517 652.515 330.504 652.522L330.474 652.546C330.463 652.555 330.454 652.566 330.445 652.577C330.435 652.587 330.427 652.597 330.419 652.608C330.411 652.619 330.403 652.63 330.397 652.642C330.391 652.653 330.385 652.665 330.381 652.677C330.247 653.002 330.106 653.323 329.956 653.641C329.806 653.958 329.646 654.27 329.478 654.577C329.31 654.885 329.134 655.188 328.95 655.487C328.765 655.785 328.572 656.079 328.372 656.367C328.14 656.567 327.903 656.758 327.662 656.94C327.42 657.122 327.175 657.301 326.925 657.477C326.675 657.649 326.42 657.816 326.161 657.977C325.901 658.137 325.639 658.29 325.373 658.435Z"
            fill="black"
        />
        <path
            id="Vector_7"
            d="M301.839 663.861C301.824 663.866 301.81 663.872 301.796 663.879C301.782 663.886 301.768 663.894 301.756 663.903C301.743 663.912 301.732 663.922 301.721 663.933C301.71 663.944 301.7 663.955 301.691 663.968C301.664 664.007 301.647 664.052 301.642 664.099C301.637 664.13 301.637 664.162 301.642 664.194C301.649 664.224 301.66 664.254 301.677 664.281C301.686 664.294 301.696 664.307 301.708 664.319C301.718 664.331 301.729 664.342 301.741 664.353C301.753 664.363 301.765 664.372 301.779 664.38C301.792 664.388 301.806 664.395 301.821 664.401C301.835 664.407 301.85 664.411 301.866 664.415C302.074 664.439 302.279 664.484 302.479 664.549C302.677 664.613 302.868 664.695 303.05 664.796C303.232 664.896 303.404 665.014 303.564 665.147C303.725 665.281 303.873 665.431 304.005 665.595C304.167 665.897 304.3 666.213 304.405 666.539C304.509 666.862 304.584 667.195 304.628 667.532C304.672 667.869 304.685 668.209 304.668 668.548C304.65 668.89 304.601 669.23 304.521 669.563C304.52 669.576 304.52 669.59 304.521 669.604C304.52 669.617 304.52 669.631 304.521 669.645C304.522 669.658 304.525 669.672 304.529 669.685C304.536 669.711 304.548 669.737 304.563 669.76C304.57 669.771 304.579 669.782 304.588 669.793C304.597 669.803 304.606 669.813 304.617 669.822C304.627 669.831 304.638 669.839 304.65 669.847C304.661 669.854 304.673 669.86 304.686 669.866C304.698 669.871 304.711 669.876 304.724 669.88L304.764 669.888C304.777 669.889 304.791 669.889 304.805 669.888C304.818 669.889 304.832 669.889 304.846 669.888C304.859 669.885 304.872 669.882 304.885 669.878C304.898 669.874 304.91 669.869 304.923 669.863C304.935 669.857 304.947 669.85 304.958 669.842C305.205 669.658 305.442 669.46 305.667 669.25C305.893 669.039 306.107 668.816 306.308 668.582C306.507 668.348 306.692 668.103 306.864 667.848C307.035 667.592 307.192 667.326 307.334 667.053C307.481 666.761 307.61 666.461 307.719 666.153C307.827 665.845 307.917 665.531 307.986 665.212C308.055 664.892 308.104 664.569 308.132 664.244C308.16 663.917 308.168 663.589 308.155 663.262C308.142 662.934 308.109 662.607 308.055 662.284C308 661.961 307.925 661.643 307.831 661.33C307.736 661.017 307.622 660.71 307.489 660.412C307.353 660.111 307.199 659.819 307.026 659.538C307.02 659.529 307.014 659.521 307.008 659.513L306.979 659.49L306.952 659.471L306.922 659.455L306.891 659.443L306.859 659.435H306.826H306.792H306.758L306.726 659.441L306.694 659.453L306.664 659.471L306.636 659.487L306.608 659.509L306.589 659.534C306.582 659.542 306.575 659.551 306.569 659.561C306.425 659.819 306.275 660.074 306.117 660.324C305.959 660.574 305.794 660.819 305.623 661.06C305.451 661.3 305.273 661.536 305.088 661.767C304.902 661.997 304.711 662.223 304.513 662.443C304.303 662.583 304.089 662.716 303.872 662.843C303.654 662.969 303.434 663.093 303.212 663.215C302.988 663.333 302.762 663.446 302.534 663.553C302.305 663.659 302.073 663.762 301.839 663.861Z"
            fill="black"
        />
        <path
            id="Vector_8"
            d="M276.292 655.735C276.281 655.741 276.27 655.748 276.26 655.756C276.249 655.764 276.24 655.772 276.231 655.782C276.222 655.791 276.214 655.801 276.207 655.812C276.185 655.844 276.171 655.881 276.166 655.92C276.165 655.933 276.165 655.946 276.166 655.959C276.165 655.972 276.165 655.985 276.166 655.998C276.171 656.023 276.179 656.048 276.192 656.071C276.199 656.082 276.206 656.093 276.215 656.103C276.223 656.113 276.231 656.123 276.241 656.132C276.25 656.141 276.26 656.149 276.271 656.157C276.281 656.164 276.292 656.171 276.304 656.177C276.315 656.182 276.327 656.187 276.34 656.191C276.352 656.196 276.365 656.2 276.378 656.203C276.729 656.215 277.074 656.295 277.394 656.44C277.714 656.583 278.003 656.787 278.245 657.04C278.401 657.284 278.535 657.543 278.645 657.812C278.752 658.078 278.836 658.354 278.894 658.636C278.953 658.917 278.986 659.204 278.994 659.492C279 659.782 278.979 660.072 278.933 660.358C278.932 660.37 278.932 660.382 278.933 660.394C278.934 660.429 278.944 660.463 278.96 660.494C278.965 660.504 278.972 660.514 278.979 660.524C278.986 660.533 278.993 660.542 279.002 660.551C279.01 660.559 279.019 660.567 279.029 660.574C279.038 660.581 279.048 660.587 279.058 660.593L279.09 660.608C279.101 660.612 279.112 660.615 279.124 660.617H279.159H279.195L279.23 660.611L279.256 660.603L279.287 660.587C279.297 660.581 279.307 660.573 279.316 660.566C279.51 660.393 279.695 660.21 279.87 660.017C280.043 659.826 280.207 659.625 280.359 659.417C280.511 659.206 280.651 658.988 280.78 658.762C280.908 658.535 281.025 658.301 281.128 658.062C281.232 657.806 281.32 657.544 281.391 657.278C281.461 657.011 281.514 656.741 281.55 656.468C281.587 656.195 281.607 655.921 281.61 655.646C281.613 655.369 281.598 655.093 281.567 654.819C281.537 654.544 281.489 654.271 281.425 654.003C281.359 653.736 281.277 653.473 281.179 653.216C281.08 652.959 280.966 652.708 280.836 652.466C280.705 652.222 280.56 651.988 280.4 651.763L280.381 651.74L280.36 651.72L280.337 651.703L280.312 651.689L280.285 651.677L280.258 651.67H280.23H280.2H280.171L280.143 651.676L280.116 651.686L280.09 651.703L280.067 651.717L280.05 651.736L280.027 651.759C280.021 651.766 280.016 651.774 280.012 651.783C279.908 652.009 279.797 652.233 279.681 652.453C279.564 652.673 279.441 652.889 279.313 653.103C279.184 653.316 279.051 653.525 278.913 653.731C278.775 653.936 278.629 654.138 278.475 654.336C278.306 654.469 278.134 654.6 277.958 654.728C277.782 654.856 277.603 654.977 277.422 655.093C277.24 655.209 277.055 655.321 276.867 655.429C276.679 655.536 276.487 655.638 276.292 655.735Z"
            fill="black"
        />
        <g id="Vector_3">
            <path
            id="Vector_9"
            d="M325.215 635.932C324.865 635.95 324.487 635.951 324.111 635.94C323.735 635.93 323.361 635.909 323.018 635.884C322.675 635.859 322.363 635.83 322.111 635.804C321.859 635.778 321.667 635.755 321.563 635.743L253.454 632.242C253.299 632.246 253.056 632.243 252.759 632.216C252.463 632.189 252.113 632.137 251.745 632.04C251.377 631.944 250.99 631.803 250.619 631.599C250.249 631.395 249.895 631.127 249.592 630.776C249.446 630.607 249.315 630.422 249.198 630.222C249.082 630.021 248.981 629.806 248.894 629.575C248.808 629.344 248.737 629.098 248.681 628.838C248.625 628.578 248.584 628.303 248.559 628.013C248.547 627.877 248.539 627.746 248.534 627.622C248.53 627.498 248.528 627.383 248.529 627.277C248.529 627.171 248.531 627.075 248.534 626.992C248.538 626.908 248.542 626.837 248.546 626.781L248 590.721C247.998 590.547 248.018 590.376 248.058 590.212C248.099 590.047 248.16 589.889 248.24 589.741C248.32 589.594 248.418 589.456 248.534 589.332C248.649 589.208 248.781 589.098 248.927 589.005C249 588.959 249.075 588.918 249.152 588.882C249.229 588.846 249.308 588.815 249.389 588.79C249.469 588.764 249.55 588.744 249.633 588.729C249.715 588.714 249.798 588.704 249.881 588.7C249.965 588.695 250.05 588.696 250.134 588.702C250.218 588.708 250.302 588.72 250.385 588.737C250.468 588.754 250.55 588.776 250.631 588.804C250.712 588.832 250.792 588.865 250.87 588.904C250.885 588.911 251.295 589.111 252.013 589.4C252.73 589.689 253.755 590.068 255 590.434C256.245 590.8 257.711 591.153 259.308 591.39C260.906 591.628 262.637 591.75 264.413 591.654C266.229 591.555 268.114 591.231 269.92 590.8C271.726 590.368 273.454 589.829 274.958 589.302C276.462 588.773 277.741 588.256 278.65 587.869C279.559 587.481 280.097 587.223 280.118 587.213C280.182 587.182 280.247 587.154 280.313 587.13C280.379 587.106 280.445 587.085 280.513 587.067C280.58 587.05 280.648 587.035 280.717 587.025C280.785 587.014 280.854 587.007 280.922 587.003C281.014 586.998 281.106 586.999 281.197 587.007C281.288 587.015 281.378 587.029 281.468 587.049C281.557 587.07 281.645 587.097 281.731 587.131C281.817 587.165 281.901 587.206 281.983 587.254C282.125 587.336 282.254 587.433 282.369 587.542C282.483 587.652 282.584 587.773 282.668 587.905C282.752 588.036 282.819 588.178 282.869 588.327C282.919 588.477 282.951 588.635 282.963 588.798C282.969 588.839 282.99 588.965 283.04 589.171C283.09 589.378 283.17 589.665 283.293 590.029C283.417 590.394 283.583 590.836 283.809 591.351C284.034 591.866 284.317 592.455 284.673 593.114C285.023 593.76 285.462 594.508 286.01 595.351C286.559 596.194 287.217 597.131 288.004 598.156C288.792 599.181 289.709 600.293 290.775 601.485C291.842 602.678 293.059 603.951 294.445 605.298C296.368 607.166 299.014 609.464 301.924 611.878C304.835 614.292 308.012 616.823 310.997 619.157C313.982 621.491 316.775 623.627 318.918 625.251C321.061 626.876 322.554 627.988 322.937 628.273C323.021 628.321 323.15 628.395 323.311 628.49C323.472 628.584 323.665 628.699 323.881 628.83C324.096 628.96 324.333 629.106 324.58 629.262C324.828 629.418 325.086 629.585 325.343 629.756C325.537 629.885 325.719 630.009 325.89 630.13C326.061 630.25 326.222 630.366 326.372 630.478C326.522 630.59 326.662 630.699 326.793 630.804C326.923 630.909 327.044 631.011 327.155 631.11C327.257 631.201 327.412 631.338 327.579 631.517C327.746 631.695 327.926 631.914 328.079 632.169C328.232 632.424 328.357 632.715 328.417 633.036C328.476 633.357 328.468 633.709 328.354 634.085C328.32 634.2 328.268 634.338 328.19 634.485C328.112 634.633 328.008 634.79 327.87 634.944C327.733 635.099 327.561 635.25 327.346 635.385C327.132 635.52 326.875 635.639 326.567 635.729C326.474 635.756 326.377 635.78 326.275 635.802C326.173 635.824 326.066 635.844 325.953 635.861C325.841 635.878 325.724 635.892 325.601 635.904C325.478 635.916 325.35 635.925 325.215 635.932ZM252.599 628.144C252.647 628.162 252.709 628.18 252.777 628.195C252.845 628.21 252.919 628.224 252.993 628.234C253.067 628.245 253.141 628.253 253.209 628.258C253.276 628.263 253.337 628.264 253.384 628.262C253.4 628.261 253.416 628.261 253.432 628.26C253.448 628.26 253.464 628.26 253.48 628.26C253.496 628.26 253.512 628.26 253.528 628.261C253.544 628.261 253.56 628.262 253.576 628.263L320.905 631.711C320.901 631.709 320.898 631.707 320.894 631.705C320.89 631.703 320.886 631.7 320.883 631.698C320.879 631.696 320.875 631.694 320.871 631.692C320.868 631.69 320.864 631.688 320.86 631.686C320.842 631.675 320.824 631.665 320.806 631.654C320.789 631.644 320.771 631.633 320.754 631.621C320.736 631.61 320.719 631.598 320.702 631.587C320.685 631.575 320.668 631.563 320.652 631.55C320.44 631.393 319.032 630.348 316.911 628.744C314.791 627.141 311.959 624.98 308.898 622.59C305.838 620.201 302.55 617.585 299.517 615.07C296.485 612.556 293.708 610.143 291.667 608.16C290.442 606.971 289.299 605.794 288.238 604.631C287.177 603.469 286.199 602.322 285.305 601.192C284.411 600.061 283.601 598.947 282.877 597.852C282.153 596.757 281.514 595.681 280.963 594.625C280.817 594.346 280.682 594.077 280.557 593.817C280.432 593.558 280.317 593.309 280.211 593.07C280.105 592.831 280.008 592.602 279.92 592.384C279.832 592.166 279.752 591.958 279.679 591.761C278.887 592.091 277.909 592.478 276.798 592.879C275.688 593.28 274.444 593.693 273.119 594.075C271.795 594.457 270.39 594.807 268.956 595.081C267.522 595.356 266.06 595.554 264.621 595.631C263.348 595.7 262.103 595.674 260.905 595.581C259.708 595.488 258.56 595.328 257.481 595.127C256.402 594.927 255.393 594.687 254.476 594.433C253.558 594.18 252.731 593.914 252.016 593.662L252.518 626.814C252.518 626.834 252.518 626.853 252.518 626.872C252.518 626.89 252.517 626.908 252.517 626.925C252.516 626.943 252.515 626.96 252.514 626.979C252.512 626.997 252.511 627.016 252.509 627.036C252.501 627.127 252.498 627.228 252.499 627.331C252.5 627.433 252.505 627.539 252.513 627.64C252.522 627.741 252.533 627.837 252.548 627.924C252.562 628.01 252.58 628.085 252.599 628.144Z"
            fill="black"
            />
        </g>
        </g>
        <g id="foot-left">
        <path
            id="Vector_10"
            d="M235.31 613.003C235.31 613.382 235.35 613.76 235.431 614.129C235.669 615.272 236.038 616.382 236.531 617.439C237.408 619.338 238.473 621.144 239.71 622.829C241.629 625.453 243.758 627.916 246.076 630.194C248.852 632.967 252.368 636.042 256.076 639.094C259.784 642.146 263.698 645.18 267.261 647.866C270.824 650.552 274.039 652.891 276.361 654.559C278.683 656.227 280.12 657.223 280.12 657.223L204.754 653.712L203.998 614.644C204.789 615.076 205.609 615.451 206.453 615.765C208.615 616.592 210.862 617.172 213.153 617.496C216.456 617.969 219.812 617.934 223.104 617.391C227.401 616.663 231.533 615.177 235.31 613.003V613.003Z"
            fill="#33230A"
        />
        <path
            id="Vector_2_2"
            d="M271.379 657.364C271.379 657.364 272.085 657.928 273.179 658.872C274.273 659.816 275.741 661.138 277.279 662.655C278.87 664.207 280.359 665.859 281.737 667.601C282.975 669.093 283.95 670.783 284.621 672.601C285.071 673.973 285.181 675.434 284.941 676.857C284.717 678.128 284.164 679.318 283.336 680.307C282.499 681.298 281.42 682.056 280.204 682.507C278.843 683.007 277.383 683.178 275.943 683.007C273.984 682.749 272.086 682.146 270.337 681.226C268.634 680.356 267.017 679.327 265.506 678.154C264.324 677.247 263.192 676.275 262.115 675.243C261.298 674.46 260.834 673.943 260.834 673.943C260.834 673.943 260.978 674.311 261.172 674.918C261.425 675.712 261.637 676.517 261.807 677.332C262.025 678.348 262.146 679.381 262.169 680.419C262.206 681.439 262.044 682.456 261.69 683.412C261.238 684.522 260.514 685.5 259.585 686.256C258.71 686.955 257.678 687.431 256.578 687.643C255.437 687.861 254.264 687.836 253.133 687.57C251.906 687.284 250.745 686.766 249.713 686.043C247.992 684.741 246.421 683.25 245.03 681.599C243.367 679.725 241.672 677.585 240.151 675.566C238.63 673.547 237.282 671.648 236.315 670.253C235.348 668.858 234.761 667.969 234.761 667.969C234.933 668.402 235.083 668.843 235.21 669.29C235.508 670.297 235.699 671.332 235.78 672.378C235.895 673.58 235.732 674.792 235.304 675.921C235.057 676.525 234.692 677.073 234.231 677.534C233.769 677.995 233.221 678.359 232.617 678.605C230.417 679.573 227.843 678.517 225.217 676.388C222.303 673.835 219.72 670.927 217.527 667.732C215.127 664.409 213.007 660.966 211.484 658.353C209.961 655.74 209.037 653.958 209.037 653.958"
            fill="#A0752A"
        />
        <path
            id="Vector_4_2"
            d="M255.584 689.443C253.199 689.532 250.851 688.829 248.907 687.443C247.894 686.714 246.945 685.899 246.07 685.009C245.07 684.02 244.032 682.882 242.998 681.677C241.964 680.472 240.936 679.198 239.957 677.94C238.978 676.682 238.049 675.44 237.214 674.291C237.162 675.546 236.757 676.76 236.047 677.795C235.337 678.83 234.35 679.644 233.199 680.144C233.043 680.211 232.884 680.273 232.723 680.331C232.562 680.389 232.398 680.437 232.233 680.473C232.068 680.513 231.901 680.546 231.733 680.573C231.565 680.601 231.395 680.617 231.224 680.622C228.885 680.745 226.395 679.483 223.939 677.449C221.286 675.131 218.91 672.514 216.858 669.649C214.786 666.826 212.858 663.899 211.084 660.879C209.5 658.206 208.319 655.989 207.723 654.837C207.586 654.606 207.514 654.342 207.514 654.074C207.513 653.805 207.585 653.541 207.722 653.31C207.859 653.078 208.055 652.888 208.291 652.758C208.526 652.629 208.792 652.565 209.061 652.573C209.137 652.576 209.213 652.584 209.288 652.598C209.364 652.613 209.438 652.633 209.51 652.658C209.558 652.675 209.605 652.695 209.651 652.716C209.697 652.738 209.742 652.762 209.785 652.788C210.051 652.947 210.261 653.184 210.385 653.467C211.851 656.296 213.613 659.351 215.512 662.306C217.331 665.168 219.318 667.92 221.462 670.546C223.148 672.688 225.105 674.601 227.284 676.238C229.098 677.494 230.732 678.001 232.028 677.432C232.485 677.239 232.896 676.95 233.233 676.586C233.571 676.223 233.827 675.792 233.986 675.321C234.285 674.39 234.381 673.405 234.267 672.433C234.182 671.566 234.014 670.708 233.767 669.871C233.567 669.194 233.396 668.755 233.39 668.737C233.291 668.483 233.263 668.206 233.31 667.937C233.361 667.645 233.498 667.374 233.703 667.159C233.909 666.944 234.173 666.795 234.463 666.731C234.753 666.667 235.056 666.69 235.333 666.798C235.61 666.906 235.848 667.094 236.018 667.337C236.042 667.371 236.637 668.265 237.597 669.644C238.557 671.023 239.884 672.887 241.371 674.859C242.858 676.831 244.508 678.914 246.114 680.729C247.445 682.316 248.949 683.748 250.598 684.999C251.483 685.651 252.501 686.101 253.579 686.316C254.656 686.532 255.768 686.508 256.836 686.246C257.427 686.076 257.984 685.805 258.484 685.446C259.322 684.846 259.97 684.018 260.351 683.06C260.609 682.384 260.738 681.665 260.73 680.94C260.733 680.136 260.664 679.333 260.522 678.54C260.392 677.789 260.222 677.045 260.012 676.311C259.823 675.648 259.631 675.091 259.484 674.716C259.357 674.39 259.348 674.029 259.459 673.696C259.486 673.614 259.519 673.533 259.559 673.456C259.683 673.226 259.864 673.032 260.086 672.893C260.384 672.706 260.74 672.632 261.088 672.684C261.436 672.735 261.755 672.909 261.986 673.174C262.005 673.193 262.458 673.689 263.236 674.436C264.253 675.411 265.321 676.331 266.436 677.192C267.846 678.293 269.354 679.26 270.942 680.082C272.548 680.935 274.294 681.495 276.096 681.735C277.22 681.909 278.369 681.796 279.438 681.408C280.507 681.019 281.461 680.368 282.212 679.514C282.887 678.64 283.329 677.609 283.499 676.518C283.67 675.426 283.561 674.31 283.185 673.271C282.668 671.857 281.93 670.533 280.998 669.349C279.888 667.875 278.686 666.472 277.398 665.149C276.087 663.783 274.725 662.49 273.498 661.386C272.271 660.282 271.184 659.367 270.417 658.76C270.378 658.73 270.342 658.696 270.307 658.66C270.272 658.624 270.239 658.588 270.207 658.552C270.176 658.515 270.146 658.476 270.118 658.435C270.09 658.395 270.064 658.353 270.041 658.309C270.017 658.267 269.995 658.223 269.976 658.177C269.957 658.132 269.94 658.086 269.925 658.039C269.91 657.993 269.898 657.945 269.888 657.897C269.878 657.849 269.87 657.801 269.865 657.751C269.86 657.703 269.857 657.654 269.856 657.604C269.856 657.555 269.856 657.504 269.861 657.457C269.866 657.41 269.872 657.357 269.881 657.311C269.89 657.263 269.901 657.216 269.915 657.168C269.929 657.121 269.945 657.074 269.963 657.028C269.981 656.982 270.001 656.938 270.024 656.894C270.047 656.851 270.071 656.809 270.098 656.767C270.125 656.726 270.154 656.686 270.185 656.648C270.216 656.61 270.249 656.573 270.285 656.538C270.321 656.504 270.357 656.47 270.393 656.438C270.43 656.407 270.469 656.377 270.51 656.349C270.551 656.321 270.593 656.298 270.636 656.279C270.679 656.256 270.723 656.235 270.768 656.215C270.813 656.196 270.859 656.179 270.906 656.164C270.953 656.15 271 656.137 271.048 656.127C271.096 656.117 271.145 656.11 271.194 656.104C271.589 656.062 271.984 656.177 272.294 656.425C272.412 656.525 273.2 657.157 274.347 658.158C275.494 659.159 277.003 660.526 278.56 662.086C280.174 663.68 281.68 665.378 283.07 667.17C284.332 668.729 285.327 670.486 286.014 672.37C286.551 673.89 286.693 675.52 286.426 677.109C286.159 678.698 285.493 680.193 284.489 681.453C283.426 682.696 282.067 683.649 280.537 684.224C279.007 684.799 277.356 684.978 275.738 684.743C274.559 684.609 273.398 684.343 272.278 683.951C271.153 683.56 270.061 683.079 269.012 682.514C267.995 681.968 267.011 681.364 266.063 680.705C265.146 680.071 264.302 679.42 263.552 678.799C263.864 680.629 263.701 682.508 263.078 684.256C262.605 685.436 261.87 686.493 260.929 687.346C259.988 688.2 258.864 688.828 257.644 689.183C257.475 689.225 257.305 689.261 257.134 689.293C256.963 689.325 256.791 689.352 256.619 689.373C256.446 689.395 256.273 689.411 256.1 689.422C255.927 689.434 255.755 689.441 255.584 689.443Z"
            fill="black"
        />
        <path
            id="Vector_5_2"
            d="M260.921 675.608C260.855 675.613 260.788 675.613 260.721 675.608C260.591 675.598 260.464 675.57 260.341 675.526C260.279 675.504 260.219 675.478 260.161 675.448C260.103 675.419 260.048 675.385 259.994 675.348C259.835 675.237 259.699 675.095 259.594 674.93L253.601 665.758C253.395 665.43 253.325 665.035 253.407 664.656C253.488 664.277 253.714 663.945 254.036 663.73C254.369 663.516 254.773 663.441 255.161 663.522C255.549 663.603 255.889 663.833 256.109 664.162L262.101 673.335C262.302 673.665 262.367 674.059 262.285 674.436C262.202 674.813 261.977 675.144 261.657 675.359C261.549 675.434 261.431 675.493 261.306 675.534C261.181 675.576 261.052 675.601 260.92 675.607L260.921 675.608Z"
            fill="black"
        />
        <path
            id="Vector_6_2"
            d="M279.613 682.562C279.583 682.583 279.557 682.608 279.535 682.636C279.524 682.651 279.514 682.666 279.505 682.681C279.496 682.697 279.489 682.714 279.482 682.73C279.475 682.747 279.47 682.765 279.466 682.782C279.462 682.8 279.459 682.818 279.458 682.835C279.456 682.871 279.459 682.907 279.467 682.942C279.471 682.959 279.477 682.976 279.483 682.991C279.49 683.008 279.498 683.024 279.507 683.039C279.516 683.055 279.527 683.07 279.538 683.083C279.55 683.097 279.563 683.11 279.576 683.122C279.59 683.135 279.604 683.146 279.619 683.155C279.634 683.165 279.65 683.174 279.666 683.181C279.682 683.189 279.699 683.195 279.716 683.2C279.733 683.206 279.751 683.21 279.769 683.212C280.51 683.206 281.237 683.414 281.862 683.812C282.071 683.945 282.266 684.097 282.445 684.266C282.679 684.524 282.87 684.817 283.013 685.134C283.176 685.492 283.301 685.866 283.387 686.249C283.483 686.67 283.546 687.097 283.578 687.526C283.612 687.976 283.619 688.428 283.597 688.878C283.596 688.895 283.596 688.911 283.597 688.927C283.599 688.944 283.601 688.96 283.605 688.975C283.613 689.007 283.625 689.038 283.642 689.066C283.65 689.08 283.66 689.094 283.67 689.106C283.681 689.119 283.692 689.131 283.704 689.141C283.741 689.175 283.784 689.199 283.831 689.213C283.864 689.223 283.897 689.228 283.931 689.227C283.947 689.229 283.964 689.229 283.98 689.227C283.996 689.225 284.012 689.221 284.028 689.216C284.059 689.207 284.089 689.192 284.116 689.173C284.13 689.164 284.143 689.154 284.155 689.142C284.42 688.888 284.671 688.619 284.906 688.336C285.14 688.055 285.359 687.76 285.56 687.454C285.762 687.148 285.946 686.831 286.112 686.504C286.277 686.175 286.424 685.837 286.551 685.491C286.778 684.806 286.932 684.099 287.011 683.381C287.098 682.614 287.098 681.84 287.011 681.072C286.925 680.283 286.731 679.509 286.434 678.772C286.129 678.015 285.698 677.314 285.16 676.699C285.142 676.679 285.12 676.66 285.097 676.644C285.086 676.637 285.074 676.63 285.061 676.623L285.022 676.606L284.982 676.591H284.944H284.901H284.86L284.82 676.601L284.782 676.619L284.744 676.639C284.732 676.647 284.721 676.655 284.71 676.663C284.701 676.672 284.692 676.682 284.683 676.691C284.674 676.701 284.665 676.712 284.657 676.722C284.642 676.744 284.629 676.767 284.619 676.791C284.486 677.117 284.344 677.438 284.194 677.756C284.044 678.074 283.885 678.387 283.717 678.695C283.55 679.004 283.374 679.308 283.189 679.606C283.004 679.905 282.812 680.2 282.612 680.491C282.38 680.691 282.143 680.883 281.902 681.065C281.661 681.248 281.415 681.427 281.165 681.602C280.915 681.775 280.661 681.942 280.402 682.102C280.143 682.263 279.88 682.416 279.613 682.562Z"
            fill="black"
        />
        <path
            id="Vector_7_2"
            d="M256.059 688.027C256.044 688.032 256.03 688.038 256.016 688.045C256.002 688.052 255.989 688.06 255.976 688.069C255.951 688.088 255.929 688.11 255.911 688.135C255.902 688.148 255.894 688.162 255.887 688.176C255.881 688.191 255.875 688.206 255.871 688.221C255.867 688.237 255.864 688.252 255.862 688.267C255.857 688.299 255.857 688.331 255.862 688.362C255.873 688.409 255.895 688.451 255.927 688.486C255.938 688.499 255.95 688.511 255.963 688.521C255.987 688.542 256.015 688.558 256.044 688.569C256.059 688.575 256.074 688.58 256.089 688.583C256.298 688.608 256.503 688.652 256.703 688.716C256.901 688.78 257.093 688.862 257.275 688.962C257.458 689.063 257.63 689.18 257.79 689.313C257.951 689.448 258.099 689.598 258.231 689.761C258.393 690.064 258.527 690.38 258.631 690.706C258.735 691.03 258.81 691.363 258.854 691.7C258.899 692.039 258.913 692.381 258.896 692.721C258.878 693.064 258.829 693.405 258.749 693.738C258.748 693.752 258.748 693.766 258.749 693.779C258.748 693.793 258.748 693.807 258.749 693.82C258.751 693.834 258.753 693.847 258.757 693.86C258.761 693.874 258.766 693.887 258.771 693.899C258.777 693.912 258.784 693.924 258.791 693.935C258.799 693.947 258.807 693.958 258.816 693.968C258.834 693.989 258.855 694.008 258.878 694.022C258.89 694.03 258.902 694.036 258.914 694.041C258.926 694.047 258.939 694.052 258.952 694.055L258.992 694.063C259.006 694.064 259.019 694.064 259.033 694.063C259.047 694.065 259.06 694.065 259.074 694.063C259.088 694.061 259.101 694.058 259.114 694.053C259.127 694.049 259.14 694.044 259.152 694.037C259.164 694.031 259.176 694.024 259.187 694.016C259.435 693.832 259.672 693.634 259.897 693.422C260.12 693.21 260.33 692.985 260.527 692.749C260.727 692.515 260.913 692.269 261.084 692.013C261.256 691.756 261.413 691.489 261.555 691.213C261.702 690.92 261.831 690.617 261.94 690.307C262.049 689.999 262.138 689.684 262.207 689.364C262.276 689.045 262.325 688.721 262.353 688.395C262.382 688.068 262.389 687.74 262.376 687.411C262.364 687.083 262.33 686.756 262.276 686.432C262.222 686.11 262.147 685.791 262.052 685.477C261.958 685.164 261.843 684.857 261.71 684.558C261.577 684.259 261.425 683.969 261.255 683.689C261.248 683.681 261.241 683.672 261.233 683.664L261.208 683.642L261.18 683.621L261.151 683.607L261.119 683.595L261.087 683.586H261.054H261.02H260.986L260.954 683.593L260.927 683.605L260.892 683.621L260.864 683.639L260.839 683.661L260.817 683.686C260.81 683.695 260.803 683.704 260.797 683.713C260.653 683.973 260.502 684.228 260.344 684.478C260.186 684.729 260.021 684.977 259.85 685.221C259.678 685.463 259.499 685.699 259.314 685.93C259.129 686.162 258.937 686.388 258.738 686.608C258.527 686.749 258.313 686.885 258.096 687.015C257.879 687.146 257.658 687.27 257.435 687.388C257.212 687.507 256.985 687.62 256.756 687.728C256.527 687.836 256.294 687.936 256.059 688.027Z"
            fill="black"
        />
        <path
            id="Vector_8_2"
            d="M230.436 679.917C230.425 679.924 230.414 679.931 230.403 679.938C230.393 679.948 230.383 679.958 230.374 679.968C230.365 679.978 230.357 679.988 230.35 679.998C230.343 680.009 230.336 680.021 230.33 680.032C230.325 680.044 230.32 680.056 230.316 680.068C230.312 680.081 230.31 680.094 230.308 680.106C230.304 680.132 230.304 680.159 230.308 680.184C230.315 680.223 230.331 680.259 230.355 680.29C230.363 680.301 230.372 680.311 230.381 680.32C230.39 680.33 230.4 680.338 230.411 680.345C230.422 680.353 230.433 680.36 230.444 680.365C230.456 680.371 230.468 680.376 230.48 680.379C230.493 680.383 230.505 680.386 230.518 680.387C230.87 680.399 231.217 680.48 231.538 680.624C231.859 680.769 232.149 680.974 232.392 681.229C232.549 681.474 232.683 681.733 232.792 682.002C232.9 682.27 232.984 682.546 233.042 682.828C233.101 683.111 233.135 683.398 233.142 683.686C233.148 683.977 233.128 684.268 233.081 684.554C233.08 684.566 233.08 684.578 233.081 684.59C233.08 684.602 233.08 684.614 233.081 684.625C233.084 684.636 233.088 684.646 233.092 684.655C233.096 684.667 233.101 684.678 233.106 684.688C233.112 684.699 233.118 684.709 233.125 684.718C233.132 684.728 233.14 684.737 233.148 684.745C233.165 684.762 233.183 684.776 233.204 684.787L233.237 684.802L233.271 684.811H233.306H233.342L233.377 684.805L233.411 684.794C233.433 684.785 233.453 684.773 233.471 684.757C233.666 684.584 233.852 684.4 234.027 684.206C234.202 684.013 234.366 683.811 234.518 683.599C234.671 683.388 234.812 683.169 234.94 682.942C235.069 682.716 235.186 682.482 235.289 682.242C235.394 681.986 235.482 681.723 235.553 681.455C235.624 681.189 235.679 680.919 235.716 680.645C235.754 680.372 235.774 680.097 235.777 679.821C235.78 679.544 235.766 679.268 235.734 678.992C235.704 678.718 235.656 678.445 235.592 678.176C235.526 677.909 235.444 677.645 235.345 677.387C235.243 677.13 235.125 676.878 234.992 676.635C234.863 676.391 234.718 676.155 234.559 675.929C234.554 675.922 234.548 675.914 234.541 675.907L234.52 675.887L234.492 675.868L234.471 675.855L234.445 675.844L234.417 675.836L234.392 675.832H234.359H234.33L234.302 675.842L234.275 675.852L234.249 675.868L234.225 675.884L234.204 675.904L234.186 675.925C234.181 675.933 234.176 675.941 234.171 675.949C234.066 676.177 233.956 676.401 233.839 676.621C233.722 676.842 233.599 677.059 233.47 677.273C233.341 677.487 233.207 677.697 233.07 677.903C232.933 678.109 232.786 678.312 232.63 678.511C232.461 678.645 232.288 678.776 232.111 678.905C231.934 679.035 231.753 679.156 231.567 679.268C231.384 679.388 231.198 679.502 231.01 679.609C230.822 679.717 230.631 679.819 230.436 679.917Z"
            fill="black"
        />
        <g id="Vector_3_2">
            <path
            id="Vector_11"
            d="M279.455 660.042C279.104 660.06 278.726 660.061 278.351 660.051C277.975 660.04 277.601 660.019 277.258 659.994C276.915 659.969 276.603 659.941 276.351 659.915C276.099 659.889 275.907 659.866 275.803 659.854L207.483 656.36C207.327 656.364 207.082 656.361 206.784 656.334C206.486 656.307 206.134 656.255 205.763 656.158C205.393 656.061 205.004 655.92 204.631 655.715C204.258 655.51 203.902 655.241 203.597 654.889C203.45 654.719 203.318 654.534 203.201 654.332C203.084 654.131 202.982 653.915 202.895 653.683C202.808 653.451 202.737 653.205 202.68 652.943C202.624 652.682 202.583 652.405 202.558 652.115C202.546 651.978 202.538 651.846 202.533 651.722C202.528 651.598 202.527 651.482 202.527 651.376C202.528 651.27 202.53 651.173 202.533 651.089C202.536 651.006 202.541 650.934 202.545 650.877L202 614.674C201.998 614.5 202.018 614.329 202.059 614.164C202.1 613.999 202.161 613.84 202.242 613.692C202.322 613.544 202.421 613.406 202.537 613.281C202.653 613.157 202.786 613.047 202.933 612.954C203.007 612.908 203.082 612.866 203.16 612.831C203.238 612.795 203.317 612.764 203.398 612.739C203.478 612.713 203.56 612.693 203.643 612.678C203.726 612.663 203.81 612.654 203.893 612.649C203.978 612.645 204.063 612.646 204.148 612.652C204.232 612.658 204.317 612.67 204.4 612.687C204.484 612.704 204.567 612.727 204.648 612.755C204.73 612.783 204.81 612.817 204.888 612.856C204.904 612.863 205.316 613.064 206.038 613.356C206.76 613.647 207.791 614.029 209.043 614.399C210.296 614.768 211.769 615.125 213.376 615.365C214.982 615.606 216.722 615.732 218.507 615.638C220.332 615.542 222.226 615.22 224.04 614.791C225.855 614.361 227.59 613.823 229.1 613.297C230.61 612.77 231.895 612.254 232.807 611.867C233.719 611.48 234.259 611.222 234.28 611.212C234.344 611.181 234.409 611.153 234.476 611.129C234.542 611.105 234.609 611.084 234.677 611.066C234.744 611.049 234.813 611.035 234.881 611.024C234.95 611.014 235.019 611.006 235.088 611.003C235.18 610.998 235.272 610.999 235.363 611.007C235.454 611.015 235.545 611.03 235.635 611.05C235.724 611.071 235.813 611.099 235.899 611.133C235.986 611.167 236.07 611.208 236.152 611.256C236.294 611.339 236.424 611.437 236.539 611.546C236.654 611.656 236.755 611.778 236.839 611.91C236.923 612.042 236.991 612.184 237.041 612.334C237.091 612.484 237.123 612.642 237.135 612.806C237.141 612.847 237.162 612.973 237.213 613.18C237.263 613.387 237.343 613.675 237.467 614.041C237.59 614.406 237.758 614.849 237.984 615.366C238.21 615.883 238.494 616.473 238.851 617.134C239.202 617.783 239.642 618.533 240.192 619.379C240.742 620.224 241.402 621.164 242.192 622.192C242.982 623.22 243.901 624.336 244.971 625.532C246.041 626.729 247.26 628.006 248.65 629.356C250.578 631.23 253.229 633.534 256.145 635.955C259.061 638.375 262.242 640.912 265.23 643.249C268.218 645.587 271.013 647.727 273.157 649.353C275.3 650.979 276.793 652.092 277.176 652.377C277.261 652.426 277.389 652.5 277.55 652.595C277.711 652.689 277.905 652.804 278.12 652.935C278.335 653.065 278.572 653.211 278.82 653.368C279.067 653.524 279.325 653.69 279.583 653.862C279.776 653.991 279.958 654.115 280.129 654.235C280.3 654.356 280.461 654.472 280.611 654.584C280.761 654.696 280.901 654.805 281.032 654.91C281.162 655.016 281.283 655.118 281.394 655.217C281.496 655.308 281.651 655.445 281.818 655.623C281.985 655.802 282.165 656.021 282.317 656.276C282.47 656.531 282.596 656.822 282.655 657.143C282.714 657.465 282.707 657.816 282.593 658.193C282.558 658.308 282.506 658.446 282.428 658.593C282.35 658.741 282.247 658.899 282.109 659.053C281.972 659.207 281.8 659.359 281.585 659.494C281.371 659.629 281.114 659.748 280.807 659.838C280.714 659.865 280.616 659.89 280.514 659.912C280.412 659.934 280.305 659.953 280.193 659.97C280.081 659.987 279.964 660.001 279.841 660.013C279.718 660.025 279.589 660.035 279.455 660.042ZM206.623 652.246C206.672 652.265 206.734 652.282 206.802 652.298C206.87 652.313 206.945 652.326 207.02 652.337C207.094 652.348 207.169 652.356 207.237 652.361C207.305 652.365 207.366 652.367 207.413 652.365C207.429 652.364 207.445 652.364 207.461 652.363C207.478 652.363 207.494 652.363 207.51 652.363C207.526 652.363 207.542 652.363 207.558 652.364C207.574 652.364 207.59 652.365 207.606 652.365L275.145 655.819C275.141 655.816 275.137 655.814 275.133 655.812C275.13 655.81 275.126 655.808 275.122 655.806C275.118 655.804 275.115 655.802 275.111 655.799C275.107 655.797 275.103 655.795 275.099 655.793C275.081 655.783 275.064 655.772 275.046 655.762C275.028 655.751 275.011 655.74 274.993 655.729C274.976 655.717 274.959 655.706 274.942 655.694C274.925 655.682 274.908 655.67 274.891 655.658C274.679 655.501 273.271 654.454 271.149 652.849C269.028 651.244 266.193 649.08 263.129 646.687C260.065 644.293 256.772 641.671 253.733 639.151C250.695 636.63 247.911 634.21 245.865 632.222C244.637 631.029 243.49 629.848 242.426 628.682C241.362 627.517 240.381 626.366 239.484 625.231C238.587 624.097 237.775 622.98 237.048 621.881C236.322 620.782 235.681 619.702 235.128 618.643C234.982 618.363 234.846 618.093 234.721 617.833C234.595 617.573 234.48 617.323 234.373 617.083C234.267 616.844 234.17 616.614 234.081 616.395C233.993 616.176 233.913 615.968 233.84 615.77C233.045 616.1 232.063 616.487 230.948 616.887C229.833 617.286 228.584 617.699 227.254 618.08C225.923 618.461 224.512 618.81 223.071 619.083C221.631 619.356 220.162 619.553 218.716 619.629C217.437 619.696 216.184 619.668 214.981 619.573C213.777 619.478 212.623 619.315 211.538 619.113C210.453 618.91 209.438 618.667 208.515 618.412C207.592 618.156 206.76 617.888 206.041 617.634L206.541 650.911C206.542 650.932 206.542 650.951 206.542 650.969C206.542 650.988 206.541 651.005 206.541 651.023C206.54 651.041 206.539 651.058 206.538 651.077C206.536 651.095 206.535 651.114 206.533 651.134C206.525 651.226 206.522 651.327 206.523 651.43C206.524 651.533 206.529 651.639 206.537 651.74C206.546 651.841 206.557 651.939 206.572 652.025C206.587 652.112 206.604 652.188 206.623 652.246Z"
            fill="black"
            />
        </g>
        </g>
        <g id="hand-badge">
        <g id="hand">
            <path
            id="Vector_47"
            d="M294.319 332.061C294.319 332.061 332.009 334.501 353.089 293.351L368.379 257.941C368.379 257.941 384.819 222.111 416.859 212.431L446.939 242.061L438.239 286.881L431.009 317.431C427.829 325.741 422.641 333.135 415.91 338.954C409.178 344.773 401.112 348.836 392.429 350.781L363.719 355.231C363.719 355.231 328.889 354.661 330.269 388.781C330.269 388.781 317.439 358.921 289.359 337.411L294.319 332.061Z"
            fill="#725514"
            />
            <path
            id="Vector_48"
            d="M380.069 303.681C380.349 302.271 401.609 230.131 417.319 212.781C428.249 200.701 444.729 204.331 449.709 212.781C457.959 226.691 439.089 250.461 431.399 259.971C416.009 279.021 380.069 303.681 380.069 303.681Z"
            fill="#8E681C"
            />
            <path
            id="Vector_49"
            d="M445.389 240.081C445.389 240.081 460.819 254.351 447.389 277.601C437.499 294.701 387.669 317.781 387.669 317.781L404.899 285.031"
            fill="#8E681C"
            />
            <path
            id="Vector_50"
            d="M438.689 287.221C438.689 287.221 443.269 297.461 435.989 310.381C430.419 320.241 415.519 330.491 405.709 334.161C399.489 336.501 378.009 341.081 378.009 341.081L397.259 313.081"
            fill="#8E681C"
            />
            <path
            id="Vector_51"
            d="M444.929 239.741C444.929 239.741 425.289 271.831 403.299 285.591L389.549 314.151C389.549 314.151 405.169 291.911 411.459 286.881C423.359 277.371 459.409 254.351 444.929 239.741Z"
            fill="#4F3810"
            />
            <path
            id="Vector_52"
            d="M438.689 287.221L439.689 294.701C439.689 294.701 428.949 306.761 408.419 315.591C402.216 318.273 396.865 322.603 392.949 328.111L385.119 339.111L378.069 340.111L396.859 312.741C396.859 312.741 432.329 293.561 438.689 287.221Z"
            fill="#4F3810"
            />
            <path
            id="Vector_53"
            d="M445.759 208.551C445.759 208.551 402.469 222.551 392.099 294.291L380.099 303.681L387.219 280.811L402.659 235.881C402.659 235.881 417.879 191.891 445.759 208.551Z"
            fill="#4F3810"
            />
            <path
            id="Vector_54"
            d="M403.879 340.071C403.879 340.071 395.689 345.281 370.119 346.901C355.219 347.901 339.049 349.281 329.119 368.781C328.949 369.124 328.691 369.415 328.372 369.625C328.052 369.835 327.682 369.956 327.3 369.976C326.918 369.995 326.537 369.912 326.198 369.736C325.859 369.559 325.572 369.295 325.369 368.971C314.599 351.531 296.029 332.081 296.029 332.081L289.819 337.411C289.819 337.411 320.069 364.361 329.119 386.671C329.119 386.671 331.199 356.671 357.749 355.521L384.749 352.161L403.869 346.811L403.879 340.071Z"
            fill="#4F3810"
            />
            <path
            id="Vector_55"
            d="M298.319 333.801C296.901 333.821 295.484 333.734 294.079 333.541C293.882 333.51 293.693 333.441 293.523 333.337C293.353 333.233 293.205 333.097 293.087 332.935C292.85 332.61 292.752 332.204 292.814 331.806C292.876 331.408 293.094 331.051 293.42 330.814C293.745 330.577 294.151 330.479 294.549 330.541C294.659 330.541 305.319 332.151 318.549 326.201C330.789 320.681 347.809 307.381 359.409 275.321C369.209 248.231 382.199 227.171 413.719 212.411C414.073 212.274 414.466 212.276 414.819 212.418C415.171 212.56 415.457 212.83 415.618 213.173C415.78 213.517 415.804 213.91 415.687 214.271C415.571 214.633 415.321 214.936 414.989 215.121C384.289 229.501 372.009 249.241 362.219 276.381C350.219 309.541 332.409 323.331 319.589 329.051C312.909 332.103 305.663 333.721 298.319 333.801V333.801Z"
            fill="black"
            />
            <path
            id="Vector_56"
            d="M330.259 390.351C329.881 390.35 329.518 390.206 329.242 389.948C328.966 389.69 328.797 389.338 328.769 388.961C328.769 388.731 327.249 365.521 346.899 357.511C352.479 355.231 362.549 353.831 373.219 352.341C384.219 350.801 395.619 349.211 401.219 346.661C424.629 335.891 430.139 315.311 430.219 315.111C430.267 314.92 430.352 314.74 430.469 314.582C430.587 314.424 430.734 314.29 430.903 314.189C431.072 314.088 431.26 314.021 431.454 313.992C431.649 313.963 431.848 313.973 432.039 314.021C432.23 314.069 432.41 314.154 432.568 314.271C432.726 314.389 432.86 314.536 432.961 314.705C433.062 314.874 433.129 315.062 433.158 315.256C433.187 315.451 433.177 315.65 433.129 315.841C432.899 316.741 427.269 337.991 402.499 349.381C396.499 352.111 384.939 353.741 373.709 355.301C363.709 356.701 353.339 358.151 348.109 360.301C330.499 367.481 331.779 387.891 331.839 388.761C331.867 389.156 331.737 389.546 331.479 389.845C331.22 390.145 330.854 390.33 330.459 390.361L330.259 390.351Z"
            fill="black"
            />
            <path
            id="Vector_57"
            d="M379.609 304.831C379.313 304.833 379.024 304.746 378.779 304.581C378.532 304.416 378.339 304.182 378.225 303.908C378.111 303.634 378.081 303.332 378.139 303.041C378.269 302.401 399.449 229.441 415.749 211.431C418.242 208.569 421.378 206.339 424.9 204.924C428.422 203.509 432.229 202.949 436.009 203.291C442.299 203.921 447.859 207.121 450.529 211.631C459.459 226.681 439.579 251.271 432.099 260.531C416.699 279.531 381.919 303.531 380.449 304.531C380.205 304.712 379.913 304.816 379.609 304.831V304.831ZM433.699 206.171C430.716 206.188 427.77 206.846 425.063 208.1C422.356 209.354 419.951 211.176 418.009 213.441C404.819 228.011 386.909 283.911 382.239 299.681C391.559 293.021 417.479 273.901 429.819 258.681C436.259 250.681 455.869 226.461 448.009 213.201C445.809 209.491 441.119 206.851 435.759 206.311C435.075 206.229 434.388 206.182 433.699 206.171V206.171Z"
            fill="black"
            />
            <path
            id="Vector_58"
            d="M387.189 318.931C386.93 318.932 386.676 318.865 386.45 318.738C386.225 318.612 386.036 318.428 385.902 318.207C385.768 317.986 385.694 317.733 385.686 317.475C385.679 317.216 385.738 316.96 385.859 316.731L403.099 283.991C403.189 283.818 403.312 283.665 403.461 283.539C403.686 283.35 403.961 283.233 404.253 283.201C404.545 283.169 404.839 283.225 405.099 283.361C405.444 283.546 405.704 283.859 405.822 284.233C405.939 284.606 405.906 285.011 405.729 285.361L390.609 314.101C402.609 308.201 437.689 290.161 445.609 276.491C458.259 254.601 444.499 241.371 443.909 240.811C443.743 240.686 443.604 240.528 443.502 240.347C443.322 240.027 443.267 239.652 443.347 239.294C443.426 238.936 443.635 238.62 443.933 238.406C444.231 238.193 444.597 238.096 444.962 238.136C445.327 238.176 445.664 238.348 445.909 238.621C446.069 238.771 462.059 253.971 448.169 277.991C438.169 295.301 389.829 317.821 387.779 318.771C387.595 318.863 387.394 318.917 387.189 318.931V318.931Z"
            fill="black"
            />
            <path
            id="Vector_59"
            d="M377.579 342.241C377.333 342.239 377.092 342.178 376.875 342.061C376.659 341.944 376.475 341.776 376.339 341.571C376.169 341.324 376.078 341.031 376.078 340.731C376.078 340.431 376.169 340.138 376.339 339.891L395.589 311.891C395.694 311.714 395.833 311.56 395.999 311.438C396.165 311.317 396.354 311.231 396.555 311.187C396.806 311.131 397.068 311.14 397.315 311.214C397.562 311.289 397.785 311.425 397.964 311.611C398.216 311.872 398.365 312.215 398.383 312.577C398.402 312.939 398.288 313.296 398.064 313.581L381.009 338.501C387.399 337.081 400.279 334.131 404.779 332.501C414.849 328.731 429.109 318.501 434.279 309.381C441.069 297.381 437.089 287.971 436.919 287.581C436.743 287.261 436.69 286.887 436.77 286.53C436.85 286.173 437.058 285.858 437.354 285.644C437.65 285.429 438.014 285.331 438.378 285.366C438.742 285.401 439.081 285.568 439.33 285.835C439.472 285.986 439.581 286.165 439.649 286.361C439.849 286.801 444.449 297.441 436.879 310.861C431.219 320.861 416.349 331.371 405.829 335.311C399.579 337.651 378.829 342.101 377.939 342.311C377.816 342.308 377.694 342.284 377.579 342.241Z"
            fill="black"
            />
        </g>
        <g id="badge">
            <g id="flag">
            <g id="flag-middle">
                <path
                id="Vector_62_2"
                d="M554.543 24.282L555.153 69.082C538.037 57.244 512.562 52.995 512.562 52.995L510.009 6.50101L520.489 8.80101L534.683 14.547"
                fill="black"
                />
                <path
                id="Vector_63"
                d="M555.153 69.077L556.553 112.525C556.553 112.525 581.428 120.738 601.327 116.607L602.009 75.417C594.182 77.6304 585.983 78.2098 577.922 77.1191C569.861 76.0284 562.111 73.2909 555.153 69.077V69.077Z"
                fill="black"
                />
                <path
                id="Vector_64"
                d="M512.442 101.46V145.711L555.709 161.501L556.56 112.525C556.56 112.525 538.457 103.511 512.442 101.46Z"
                fill="black"
                />
                <path
                id="Path 2"
                d="M512.009 5.50101C512.009 5.50101 518.856 6.84601 530.309 11.601C538.265 14.901 550.184 21.28 556.609 24.224C563.209 27.251 570.409 30.369 579.541 31.167C587.457 31.6666 595.404 31.3705 603.261 30.283L602.009 70.501V162.001C602.009 162.001 588.449 167.749 566.349 164.19C544.249 160.631 514.884 146.901 514.884 146.901C514.884 146.901 514.408 85.03 513.684 49.679C512.96 14.328 512.009 5.50101 512.009 5.50101Z"
                stroke="black"
                stroke-width="3"
                />
            </g>
            <g id="flag-start">
                <path
                id="Vector_67"
                d="M419.719 70.711C419.719 70.711 435.429 55.711 461.359 53.781C461.359 53.781 459.799 28.481 458.519 4.68101C458.519 4.68101 441.399 3.83101 419.719 19.581V70.711Z"
                fill="black"
                />
                <path
                id="Vector_68"
                d="M461.359 53.781C477.63 47.4788 495.559 46.89 512.209 52.111L512.089 101.041C512.089 101.041 486.189 96.241 461.909 103.111L461.359 53.781Z"
                fill="black"
                />
                <path
                id="Vector_69"
                d="M461.909 103.111V141.111C461.909 141.111 440.439 143.181 419.719 165.021V123.401C419.719 123.401 436.009 109.501 461.909 103.111Z"
                fill="black"
                />
                <path
                id="Path 1"
                d="M420.847 18.084C470.392 -9.26599 509.818 5.46101 509.818 5.46101C509.818 5.46101 511.396 42.694 511.505 53.008C511.57 59.182 511.517 70.001 511.505 79.937C511.491 91.955 511.505 102.237 511.505 102.237L512.138 145.997C512.138 145.997 489.79 136.53 465.338 140.317C440.886 144.104 420.009 164.717 420.009 164.717L420.847 18.084Z"
                stroke="black"
                stroke-width="3"
                />
            </g>
            <g id="flag-end">
                <path
                id="Vector_65"
                d="M601.569 29.501V74.751C601.569 74.751 628.569 72.081 640.509 59.751V13.881C640.508 13.6379 640.439 13.4 640.309 13.1946C640.179 12.9892 639.993 12.8248 639.774 12.7203C639.554 12.6158 639.31 12.5754 639.068 12.6039C638.827 12.6323 638.598 12.7284 638.409 12.881C627.677 21.3573 615.026 27.0648 601.569 29.501V29.501Z"
                fill="black"
                />
                <path
                id="Vector_66"
                d="M600.889 116.331C600.889 116.331 629.079 117.201 640.509 107.411V146.981C640.509 147.46 640.37 147.928 640.109 148.329C639.848 148.73 639.476 149.047 639.039 149.241L620.149 157.551L601.569 161.651L600.889 116.331Z"
                fill="black"
                />
                <path
                id="Path 4"
                d="M603.009 30.501C603.009 30.501 637.547 13.642 639.009 14.001C640.471 14.36 640.509 42.501 640.509 42.501C640.509 42.501 640.809 53.853 640.909 69.238C641.129 102.038 641.009 143.001 641.009 143.001C641.074 144.615 640.909 145.501 639.509 147.501C639.509 147.501 639.264 148.986 629.509 153.001C619.754 157.016 602.22 162.001 602.22 162.001C602.22 162.001 602.52 132.811 602.22 99.501C601.92 66.191 603.009 30.501 603.009 30.501Z"
                stroke="black"
                stroke-width="3"
                />
            </g>
            </g>
            <g id="stick">
            <path
                id="Vector_72"
                d="M418.069 395.601H406.069C405.081 395.598 404.135 395.204 403.438 394.505C402.741 393.806 402.349 392.859 402.349 391.871V334.211C402.349 333.813 402.507 333.432 402.788 333.15C403.07 332.869 403.451 332.711 403.849 332.711C404.247 332.711 404.628 332.869 404.91 333.15C405.191 333.432 405.349 333.813 405.349 334.211V391.871C405.349 392.065 405.426 392.25 405.563 392.387C405.7 392.524 405.885 392.601 406.079 392.601H418.079C418.273 392.601 418.458 392.524 418.595 392.387C418.732 392.25 418.809 392.065 418.809 391.871L419.229 325.171C419.232 324.776 419.391 324.398 419.672 324.12C419.954 323.843 420.334 323.688 420.729 323.691C421.124 323.694 421.502 323.853 421.78 324.134C422.057 324.416 422.212 324.796 422.209 325.191L421.789 391.881C421.787 392.867 421.394 393.812 420.697 394.509C420 395.206 419.055 395.599 418.069 395.601V395.601Z"
                fill="black"
            />
            <path
                id="Vector_71"
                d="M401.069 243.551L401.809 140.061V10.501C401.806 9.81785 401.939 9.14095 402.2 8.50942C402.46 7.87789 402.843 7.30425 403.327 6.82165C403.81 6.33906 404.385 5.95708 405.017 5.69778C405.649 5.43849 406.326 5.30703 407.009 5.311H416.099C417.465 5.32394 418.77 5.87712 419.73 6.84963C420.689 7.82215 421.225 9.13491 421.219 10.501V210.031L415.709 216.141L412.489 215.961L401.069 243.551ZM407.009 8.311C406.719 8.30564 406.431 8.35848 406.162 8.46638C405.892 8.57429 405.647 8.73508 405.441 8.93925C405.235 9.14342 405.072 9.38682 404.962 9.65506C404.852 9.92331 404.796 10.211 404.799 10.501V140.071L404.179 228.211L410.539 212.851L414.449 213.071L418.229 208.881V10.501C418.229 9.92556 418 9.37377 417.593 8.96687C417.186 8.55997 416.634 8.33127 416.059 8.331L407.009 8.311Z"
                fill="black"
            />
            <path
                id="Vector_70"
                d="M419.719 210.051V10.301C419.719 9.72556 419.49 9.17376 419.083 8.76687C418.676 8.35997 418.124 8.13126 417.549 8.131H405.479C404.903 8.13099 404.35 8.3593 403.941 8.76596C403.532 9.17263 403.302 9.72456 403.299 10.301V141.381L402.059 234.381"
                fill="black"
            />
            <path
                id="Vector_60"
                d="M403.879 334.211V392.641C403.879 393.028 404.033 393.399 404.307 393.673C404.581 393.947 404.952 394.101 405.339 394.101H418.839C419.225 394.098 419.595 393.943 419.868 393.67C420.141 393.397 420.296 393.027 420.299 392.641L420.709 325.181C420.709 325.181 412.399 328.501 410.009 331.741C408.009 334.321 403.879 334.211 403.879 334.211Z"
                fill="black"
            />
            </g>
        </g>
        </g>
        <g id="body">
        <path
            id="Vector_9_2"
            d="M74.009 607.731C103.939 632.082 141.355 645.359 179.939 645.321C273.499 645.321 349.349 568.641 349.349 474.061C349.349 420.061 327.949 368.061 289.349 336.711C298.079 327.061 301.569 319.271 306.459 306.031L289.889 299.851L283.429 286.161L316.539 262.781C316.539 262.781 330.009 152.171 212.169 118.141C212.169 118.141 160.719 106.301 117.739 133.661L73.959 127.661L85.959 148.951L53.009 146.441L74.489 178.441C74.489 178.441 33.449 262.781 89.849 322.501C89.849 322.501 49.329 343.851 34.169 388.501C34.169 388.501 2.859 419.021 1.599 495.931C1.599 495.931 -3.281 570.531 49.599 601.131L74.009 607.731Z"
            fill="#FBBB10"
        />
        <path
            id="Vector_10_2"
            d="M323.629 376.741C323.629 376.741 268.229 406.341 298.959 529.081C298.959 529.081 312.959 564.931 320.739 570.761C320.739 570.761 352.489 533.921 349.809 462.811C349.809 462.811 347.289 413.021 323.629 376.741Z"
            fill="#FFD685"
        />
        <path
            id="Vector_11_2"
            d="M346.589 437.741C335.156 439.776 324.228 444.011 314.409 450.211C314.409 450.211 314.699 467.901 324.519 479.681L325.209 461.681C325.209 461.681 328.559 453.811 348.689 451.681"
            fill="#430E6B"
        />
        <path
            id="Vector_12"
            d="M340.579 531.201C331.857 519.44 326.984 505.269 326.629 490.631C345.559 487.391 349.969 477.711 349.969 477.711L348.529 496.131L337.469 503.441L339.469 511.491L344.469 517.571"
            fill="#430E6B"
        />
        <path
            id="Vector_13"
            d="M34.169 390.691C33.9805 390.688 33.7941 390.651 33.619 390.581C33.2505 390.432 32.9557 390.144 32.7984 389.779C32.6411 389.414 32.6342 389.001 32.779 388.631C49.009 347.981 80.059 327.311 87.509 322.811L83.979 318.811C68.089 300.691 60.779 276.901 59.339 262.031C57.049 238.261 59.569 203.651 73.509 177.801C73.6953 177.457 74.0103 177.201 74.3851 177.088C74.7599 176.976 75.164 177.016 75.509 177.201C75.851 177.389 76.106 177.704 76.2199 178.077C76.3338 178.451 76.2976 178.854 76.119 179.201C62.519 204.501 60.079 238.421 62.329 261.751C63.719 276.181 70.809 299.261 86.229 316.841L91.009 322.201C91.1581 322.371 91.267 322.573 91.3276 322.791C91.3882 323.009 91.3989 323.238 91.359 323.461C91.3209 323.684 91.2315 323.895 91.0978 324.077C90.9642 324.259 90.79 324.408 90.589 324.511C90.219 324.711 53.589 344.641 35.589 389.741C35.4784 390.026 35.2828 390.27 35.0288 390.44C34.7748 390.61 34.4746 390.698 34.169 390.691V390.691Z"
            fill="black"
        />
        <path
            id="Vector_14"
            d="M315.919 264.981C315.523 264.981 315.143 264.824 314.862 264.545C314.581 264.266 314.422 263.887 314.419 263.491C314.419 230.311 294.959 201.211 261.029 183.661H260.969L260.869 183.611C223.869 162.891 79.269 150.751 56.049 148.921L76.049 177.711C76.1981 177.916 76.288 178.158 76.309 178.411L79.549 209.281C79.5692 209.665 79.4411 210.042 79.1913 210.334C78.9414 210.627 78.5888 210.812 78.2063 210.852C77.8238 210.892 77.4406 210.783 77.1359 210.548C76.8312 210.314 76.6283 209.971 76.569 209.591L73.369 179.101L51.789 148.001C51.628 147.768 51.5361 147.495 51.5237 147.213C51.5114 146.93 51.5792 146.65 51.7193 146.404C51.8593 146.159 52.066 145.957 52.3155 145.824C52.5649 145.691 52.8469 145.631 53.129 145.651C59.999 146.151 221.829 158.201 262.359 180.971H262.419C297.359 199.051 317.419 229.111 317.419 263.441C317.424 263.641 317.389 263.841 317.316 264.027C317.244 264.214 317.134 264.384 316.994 264.528C316.854 264.671 316.687 264.785 316.502 264.863C316.318 264.941 316.119 264.981 315.919 264.981Z"
            fill="black"
        />
        <path
            id="Vector_15"
            d="M320.739 572.261C320.513 572.261 320.29 572.211 320.086 572.114C319.882 572.017 319.702 571.876 319.559 571.701C309.816 558.507 302.347 543.777 297.459 528.121C282.909 480.811 288.329 442.611 292.859 424.051C301.859 387.051 322.069 375.871 322.929 375.421C323.276 375.265 323.669 375.247 324.028 375.37C324.388 375.493 324.687 375.748 324.866 376.083C325.045 376.418 325.091 376.809 324.993 377.176C324.895 377.543 324.661 377.859 324.339 378.061C324.009 378.241 304.429 389.261 295.769 424.761C291.309 443.021 285.979 480.621 300.329 527.241C305.095 542.543 312.389 556.938 321.909 569.831C322.032 569.984 322.123 570.161 322.177 570.349C322.232 570.538 322.248 570.736 322.226 570.931C322.182 571.296 322.007 571.632 321.733 571.877C321.46 572.121 321.106 572.258 320.739 572.261V572.261Z"
            fill="black"
        />
        <path
            id="Vector_16"
            d="M324.359 481.181C324.139 481.181 323.923 481.132 323.724 481.039C323.525 480.945 323.35 480.81 323.209 480.641C313.159 468.591 312.759 450.981 312.749 450.241C312.743 449.985 312.804 449.732 312.925 449.506C313.046 449.28 313.223 449.089 313.439 448.951C323.431 442.612 334.573 438.3 346.229 436.261C346.427 436.232 346.628 436.243 346.822 436.292C347.016 436.342 347.198 436.429 347.358 436.549C347.517 436.669 347.652 436.82 347.753 436.993C347.854 437.165 347.92 437.356 347.947 437.554C347.973 437.752 347.961 437.954 347.909 438.147C347.858 438.34 347.769 438.521 347.647 438.68C347.526 438.839 347.374 438.972 347.2 439.072C347.027 439.172 346.835 439.236 346.637 439.261C335.706 441.239 325.24 445.241 315.777 451.061C315.967 454.231 317.047 465.901 323.027 475.341L323.557 461.701C323.558 461.519 323.595 461.339 323.667 461.171C323.817 460.811 327.597 452.461 348.367 450.281C348.668 450.241 348.973 450.293 349.244 450.43C349.515 450.566 349.739 450.781 349.886 451.046C349.983 451.223 350.044 451.417 350.066 451.617C350.088 451.819 350.069 452.023 350.01 452.217C349.923 452.508 349.75 452.765 349.514 452.955C349.277 453.146 348.989 453.261 348.687 453.285C331.687 455.065 327.257 461.015 326.537 462.185L325.857 479.805C325.845 480.106 325.743 480.396 325.565 480.638C325.387 480.88 325.14 481.064 324.857 481.165C324.693 481.197 324.525 481.203 324.359 481.181V481.181Z"
            fill="black"
        />
        <path
            id="Vector_17"
            d="M340.419 532.701C340.186 532.7 339.957 532.645 339.749 532.541C339.541 532.437 339.36 532.286 339.219 532.101C330.277 520.077 325.31 505.562 325.009 490.581C325.02 490.235 325.151 489.904 325.379 489.643C325.607 489.382 325.918 489.209 326.259 489.151C344.039 486.151 348.449 477.151 348.489 477.081C348.595 476.857 348.754 476.663 348.952 476.515C349.15 476.367 349.381 476.27 349.626 476.232C349.87 476.194 350.12 476.216 350.354 476.297C350.588 476.378 350.798 476.514 350.967 476.695C351.17 476.914 351.303 477.189 351.348 477.484C351.393 477.78 351.348 478.082 351.219 478.351C351.039 478.771 346.469 488.351 328.029 491.891C328.708 505.762 333.452 519.126 341.669 530.321C341.842 530.545 341.948 530.814 341.972 531.096C341.997 531.378 341.94 531.662 341.808 531.912C341.677 532.163 341.476 532.371 341.229 532.511C340.983 532.65 340.702 532.717 340.419 532.701V532.701Z"
            fill="black"
        />
        <path
            id="Vector_18"
            d="M344.329 519.731C344.019 519.73 343.716 519.636 343.459 519.461C338.529 515.971 335.949 504.831 335.669 503.571C335.586 503.206 335.642 502.823 335.827 502.497C336.012 502.171 336.313 501.927 336.669 501.811C341.559 500.391 347.439 494.401 347.499 494.341C347.75 494.042 348.108 493.852 348.497 493.812C348.886 493.773 349.275 493.887 349.581 494.13C349.753 494.266 349.892 494.439 349.99 494.635C350.088 494.832 350.142 495.047 350.147 495.266C350.153 495.486 350.11 495.704 350.022 495.905C349.934 496.106 349.804 496.285 349.639 496.43C349.399 496.68 344.099 502.08 338.859 504.21C339.859 507.95 342.159 514.9 345.139 517.01C345.397 517.194 345.589 517.455 345.689 517.756C345.79 518.056 345.792 518.38 345.697 518.682C345.601 518.984 345.413 519.248 345.158 519.436C344.903 519.625 344.596 519.727 344.279 519.73L344.329 519.731Z"
            fill="black"
        />
        <path
            id="Vector_19"
            d="M297.919 305.641C288.707 316.76 276.835 325.371 263.405 330.673C249.975 335.976 235.422 337.798 221.099 335.971C174.369 330.141 141.099 287.971 146.889 241.861C146.889 241.861 133.829 272.031 160.299 309.381C182.179 340.261 231.229 351.771 264.639 336.561C291.359 324.401 297.919 305.641 297.919 305.641Z"
            fill="#D89A0F"
        />
        <path
            id="Vector_20"
            d="M166.439 370.331C166.439 370.331 187.789 378.331 220.299 373.611C210.564 379.406 199.602 382.832 188.299 383.611L166.439 370.331Z"
            fill="#D89A0F"
        />
        <path
            id="Vector_21"
            d="M201.149 377.181C188.027 377.068 175.007 374.864 162.579 370.651C162.208 370.512 161.908 370.232 161.741 369.873C161.575 369.514 161.556 369.104 161.689 368.731C161.756 368.546 161.859 368.376 161.992 368.231C162.125 368.086 162.285 367.969 162.464 367.886C162.642 367.803 162.835 367.757 163.032 367.749C163.228 367.741 163.425 367.772 163.609 367.841C163.899 367.941 192.969 378.411 219.959 372.151C220.34 372.076 220.736 372.152 221.062 372.364C221.389 372.575 221.62 372.904 221.708 373.283C221.797 373.661 221.734 374.059 221.535 374.393C221.335 374.726 221.014 374.97 220.639 375.071C214.243 376.51 207.705 377.218 201.149 377.181V377.181Z"
            fill="black"
        />
        <path
            id="Vector_22"
            d="M317.599 575.261C317.599 575.261 261.129 642.611 161.279 634.501C146.699 633.321 103.889 619.851 93.379 608.361L86.579 606.011L74.009 607.731C74.009 607.731 125.769 659.171 215.349 642.611C215.299 642.611 280.209 630.011 317.599 575.261Z"
            fill="#D89A0F"
        />
        <path
            id="Vector_23"
            d="M180.429 647.501C141.488 647.638 103.709 634.237 73.559 609.591C73.3905 609.473 73.2481 609.321 73.1409 609.145C73.0336 608.969 72.9637 608.773 72.9355 608.569C72.9073 608.365 72.9214 608.157 72.9769 607.959C73.0325 607.761 73.1283 607.576 73.2584 607.416C73.3885 607.257 73.5501 607.125 73.7331 607.031C73.9161 606.936 74.1166 606.881 74.3221 606.867C74.5276 606.853 74.7337 606.882 74.9276 606.952C75.1215 607.021 75.299 607.13 75.449 607.271C105.072 631.486 142.189 644.654 180.449 644.521C273.029 644.521 348.359 568.371 348.359 474.761C348.359 419.761 326.139 368.841 288.929 338.571C288.774 338.441 288.646 338.281 288.553 338.101C288.411 337.83 288.356 337.521 288.394 337.217C288.433 336.913 288.564 336.628 288.769 336.401C297.009 327.301 300.479 320.051 305.589 306.211C305.75 305.878 306.028 305.616 306.37 305.475C306.712 305.335 307.094 305.326 307.443 305.45C307.791 305.574 308.082 305.822 308.258 306.147C308.435 306.472 308.485 306.851 308.399 307.211C303.399 320.841 299.869 328.271 292.029 337.211C329.209 368.161 351.349 419.431 351.349 474.731C351.329 570.021 274.669 647.501 180.429 647.501Z"
            fill="black"
        />
        <path
            id="Vector_24"
            d="M119.229 132.771C119.229 132.771 203.909 80.201 282.159 159.211C282.159 159.211 249.159 128.951 208.679 124.271C184.469 121.461 163.799 121.461 127.449 135.561L119.229 132.771Z"
            fill="#FFCD5C"
        />
        <path
            id="Vector_25"
            d="M315.919 264.981H315.799C315.602 264.966 315.41 264.912 315.234 264.822C315.059 264.732 314.902 264.609 314.775 264.458C314.647 264.307 314.551 264.132 314.492 263.944C314.432 263.756 314.411 263.558 314.429 263.361C314.909 257.481 315.009 252.961 315.009 247.571C315.009 176.871 254.799 117.141 183.539 117.141C160.649 116.993 138.16 123.152 118.539 134.941C118.201 135.115 117.81 135.153 117.445 135.05C117.08 134.947 116.767 134.708 116.57 134.384C116.374 134.059 116.308 133.672 116.385 133.3C116.463 132.928 116.679 132.6 116.989 132.381C137.083 120.303 160.115 113.992 183.559 114.141C218.859 114.141 252.439 128.141 278.109 153.501C303.779 178.861 318.009 212.371 318.009 247.571C318.009 253.031 317.919 257.621 317.419 263.571C317.399 263.954 317.231 264.314 316.952 264.577C316.673 264.84 316.302 264.984 315.919 264.981V264.981Z"
            fill="black"
        />
        </g>
        <g id="eyes">
        <path
            id="Vector_26"
            d="M219.009 169.371C200.637 171.649 183.559 180.022 170.506 193.151C157.454 206.28 149.18 223.406 147.009 241.791C141.269 287.941 174.489 330.071 221.219 335.901C235.67 337.698 250.34 335.797 263.855 330.375C277.37 324.953 289.287 316.188 298.489 304.901L289.409 300.631L282.709 287.181L316.009 263.001C316.255 251.703 314.005 240.49 309.419 230.161C301.809 213.291 283.419 196.581 283.419 196.581L265.349 183.751L247.409 176.241L219.009 169.371Z"
            fill="white"
        />
        <path
            id="Vector_27"
            d="M248.809 275.931C257.234 275.879 265.381 272.908 271.861 267.523C278.34 262.138 282.753 254.673 284.345 246.399C285.938 238.126 284.613 229.556 280.596 222.15C276.578 214.744 270.117 208.961 262.314 205.785C254.51 202.608 245.846 202.236 237.799 204.732C229.752 207.227 222.819 212.436 218.181 219.47C213.544 226.504 211.489 234.928 212.366 243.308C213.244 251.687 217 259.503 222.994 265.424C226.389 268.795 230.419 271.459 234.85 273.262C239.281 275.065 244.025 275.973 248.809 275.931V275.931Z"
            fill="#DAA520"
        />
        <path
            id="Vector_28"
            d="M253.259 264.531C258.677 264.498 263.915 262.587 268.082 259.124C272.248 255.661 275.085 250.861 276.109 245.541C277.133 240.221 276.281 234.71 273.698 229.948C271.114 225.186 266.96 221.467 261.942 219.425C256.924 217.383 251.353 217.144 246.178 218.748C241.004 220.353 236.546 223.702 233.564 228.225C230.582 232.749 229.26 238.166 229.825 243.554C230.389 248.942 232.804 253.968 236.659 257.775C238.842 259.942 241.433 261.655 244.283 262.815C247.132 263.974 250.183 264.558 253.259 264.531V264.531Z"
            fill="#411F0A"
        />
        <path
            id="Vector_29"
            d="M242.849 235.881C245.241 235.867 247.555 235.024 249.395 233.496C251.235 231.968 252.489 229.848 252.942 227.499C253.395 225.151 253.019 222.717 251.88 220.614C250.74 218.511 248.906 216.868 246.69 215.965C244.475 215.063 242.015 214.956 239.73 215.664C237.445 216.372 235.476 217.85 234.158 219.847C232.841 221.843 232.256 224.235 232.505 226.614C232.753 228.994 233.819 231.213 235.52 232.895C236.484 233.852 237.628 234.609 238.886 235.122C240.144 235.634 241.491 235.892 242.849 235.881V235.881Z"
            fill="white"
        />
        <path
            id="eyelid"
            d="M219.009 169.371C200.637 171.649 183.559 180.022 170.506 193.151C157.454 206.28 149.18 223.406 147.009 241.791C141.269 287.941 174.489 330.071 221.219 335.901C235.67 337.698 250.34 335.797 263.855 330.375C277.37 324.953 289.287 316.188 298.489 304.901L289.409 300.631L282.709 287.181L316.009 263.001C316.255 251.703 314.005 240.49 309.419 230.161C301.809 213.291 283.419 196.581 283.419 196.581L265.349 183.751L247.409 176.241L219.009 169.371Z"
            fill="#FBBB10"
        />
        </g>
        <g id="beak">
        <path
            id="Vector_30"
            d="M283.399 286.861L316.509 263.501L335.429 300.241C335.429 300.241 305.919 294.411 289.859 300.561L283.399 286.861Z"
            fill="#725514"
        />
        <path
            id="Vector_31"
            d="M333.299 300.611C333.299 300.611 314.299 314.801 289.859 300.551C289.859 300.551 317.619 294.001 333.299 300.611Z"
            fill="#49340E"
        />
        <path
            id="Vector_32"
            d="M289.859 302.051C289.578 302.05 289.303 301.972 289.064 301.823C288.826 301.675 288.634 301.463 288.509 301.211L282.059 288.041C281.904 287.727 281.864 287.369 281.946 287.029C282.028 286.689 282.228 286.389 282.509 286.181L315.009 262.281C315.179 262.155 315.374 262.066 315.581 262.021C315.788 261.976 316.002 261.976 316.209 262.021C316.417 262.063 316.614 262.149 316.787 262.273C316.959 262.397 317.103 262.557 317.209 262.741C317.339 262.971 330.519 285.991 336.929 299.921C337.045 300.172 337.089 300.45 337.056 300.724C337.024 300.998 336.917 301.258 336.746 301.476C336.576 301.693 336.348 301.859 336.089 301.955C335.831 302.051 335.55 302.074 335.279 302.021C334.969 301.961 304.419 296.021 290.439 301.931C290.255 302.008 290.058 302.048 289.859 302.051V302.051ZM285.299 287.851L290.599 298.651C303.219 294.131 325.109 297.221 332.979 298.551C327.349 286.821 318.229 270.551 315.449 265.691L285.299 287.851Z"
            fill="black"
        />
        <path
            id="Vector_33"
            d="M312.079 307.891C304.06 307.822 296.183 305.76 289.159 301.891C288.826 301.696 288.581 301.379 288.475 301.008C288.369 300.636 288.411 300.238 288.591 299.896C288.772 299.555 289.077 299.296 289.444 299.174C289.81 299.052 290.21 299.076 290.559 299.241C314.629 312.051 332.229 299.581 332.969 299.041C333.291 298.822 333.685 298.737 334.068 298.803C334.451 298.87 334.793 299.082 335.023 299.396C335.253 299.71 335.351 300.101 335.298 300.486C335.245 300.871 335.045 301.221 334.739 301.461C327.964 305.745 320.094 307.978 312.079 307.891V307.891Z"
            fill="black"
        />
        </g>
        <g id="tail">
        <path
            id="Vector_34"
            d="M105.719 746.071C97.099 780.691 74.499 820.161 74.499 820.161C112.109 857.161 154.179 843.691 154.179 843.691C218.649 767.301 201.879 644.691 201.879 644.691C192.584 646.209 183.147 646.665 173.749 646.051C164.842 645.622 155.984 644.482 147.259 642.641"
            fill="#725514"
        />
        <path
            id="Vector_35"
            d="M119.209 634.501C119.209 634.501 115.939 685.411 85.119 736.501C85.119 736.501 95.219 748.291 132.809 749.391C132.809 749.391 149.619 724.121 151.279 676.391L153.549 643.021C153.549 643.021 135.639 643.041 119.209 634.501Z"
            fill="#725514"
        />
        <path
            id="Vector_36"
            d="M151.279 676.401C151.279 676.401 163.379 708.681 139.169 762.871C129.998 763.755 120.744 763.079 111.799 760.871C109.342 771.524 106.257 782.023 102.559 792.311C96.679 808.591 85.119 829.211 85.119 829.211L74.499 820.111C74.499 820.111 100.229 773.271 105.719 746.021C105.719 746.021 122.119 750.741 132.809 749.341C132.809 749.391 151.549 714.001 151.279 676.401Z"
            fill="#4F3810"
        />
        <path
            id="Vector_37"
            d="M135.399 847.501C119.309 847.501 95.509 842.941 73.449 821.221C73.2153 820.988 73.0643 820.685 73.0192 820.358C72.974 820.031 73.0372 819.699 73.199 819.411C73.429 819.021 95.789 779.721 104.269 745.701C104.366 745.315 104.612 744.983 104.953 744.779C105.295 744.575 105.703 744.514 106.089 744.611C106.475 744.708 106.807 744.954 107.011 745.295C107.215 745.637 107.276 746.045 107.179 746.431C99.359 777.781 79.949 813.431 76.369 819.891C110.729 852.971 149.009 843.581 153.369 842.381C186.179 803.281 197.249 751.801 200.759 715.461C204.569 675.871 200.489 645.171 200.439 644.861C200.386 644.463 200.493 644.061 200.737 643.742C200.981 643.423 201.341 643.214 201.739 643.161C202.137 643.108 202.539 643.215 202.858 643.459C203.177 643.703 203.386 644.063 203.439 644.461C205.983 668.124 206.093 691.985 203.769 715.671C200.229 752.571 188.949 804.901 155.399 844.671C155.215 844.884 154.976 845.043 154.709 845.131C148.412 846.803 141.914 847.601 135.399 847.501V847.501Z"
            fill="black"
        />
        <path
            id="Vector_38"
            d="M132.809 750.891H132.759C94.949 749.781 84.409 737.981 84.009 737.501C83.8046 737.261 83.6803 736.964 83.6534 736.65C83.6265 736.336 83.6984 736.022 83.859 735.751C114.129 685.571 117.709 634.921 117.739 634.411C117.766 634.013 117.949 633.642 118.249 633.38C118.549 633.117 118.941 632.985 119.339 633.011C119.737 633.038 120.108 633.221 120.37 633.521C120.633 633.821 120.766 634.213 120.739 634.611C120.739 635.121 117.149 685.771 87.059 736.261C89.979 738.731 101.809 746.851 132.059 747.881C134.679 743.521 148.379 718.771 149.849 676.361C149.857 676.064 149.954 675.777 150.127 675.536C150.3 675.295 150.541 675.111 150.82 675.009C151.051 674.924 151.3 674.896 151.544 674.93C151.788 674.963 152.02 675.057 152.22 675.201C152.419 675.346 152.58 675.537 152.688 675.759C152.796 675.98 152.848 676.225 152.839 676.471C151.189 724.071 134.839 749.191 134.119 750.241C133.975 750.453 133.779 750.624 133.549 750.738C133.32 750.852 133.065 750.905 132.809 750.891V750.891Z"
            fill="black"
        />
        </g>
        <g id="hand-right">
        <path
            id="Vector_73"
            d="M116.319 343.731L177.369 376.731C177.369 376.731 275.439 426.731 253.259 521.491C253.259 521.491 243.399 580.871 172.159 596.061C172.159 596.061 135.719 627.581 86.579 605.991C86.579 605.991 51.959 616.131 28.519 584.371C28.519 584.371 -3.741 560.191 2.939 473.761C2.939 473.761 7.159 421.621 35.749 386.661C35.749 386.661 45.659 365.451 50.319 359.421C61.4155 345.272 74.5325 332.833 89.249 322.501"
            fill="#725514"
        />
        <path
            id="Vector_74"
            d="M252.309 463.891C252.309 463.891 275.609 532.731 212.169 580.501C212.169 580.501 191.259 594.661 170.729 597.251C170.729 597.251 142.729 618.821 118.199 613.791C118.199 613.791 94.199 611.521 89.849 605.131C89.849 605.131 53.609 617.571 27.279 583.301C27.279 583.301 90.989 620.741 141.889 557.501C141.889 557.501 131.889 587.501 101.589 600.611C101.589 600.611 172.849 612.021 201.879 533.481C201.879 533.481 204.789 558.261 182.369 585.591C182.369 585.601 255.429 555.931 252.309 463.891Z"
            fill="#4F3810"
        />
        <path
            id="Vector_75"
            d="M89.849 323.191C89.849 323.191 49.609 347.501 35.749 386.671L63.199 363.761C63.199 363.761 67.369 344.811 89.849 323.191Z"
            fill="#4F3810"
        />
        <path
            id="Vector_76"
            d="M170.729 598.761C170.416 598.76 170.111 598.662 169.857 598.479C169.602 598.296 169.412 598.038 169.311 597.742C169.211 597.445 169.206 597.124 169.297 596.825C169.388 596.525 169.571 596.262 169.819 596.071C179.376 588.689 187.104 579.205 192.404 568.354C197.704 557.503 200.433 545.577 200.379 533.501C200.379 533.103 200.537 532.722 200.818 532.44C201.1 532.159 201.481 532.001 201.879 532.001C202.277 532.001 202.658 532.159 202.94 532.44C203.221 532.722 203.379 533.103 203.379 533.501C203.432 544.997 201.054 556.375 196.401 566.888C191.748 577.401 184.925 586.811 176.379 594.501C224.379 582.881 255.089 543.911 255.089 493.691C255.089 464.251 240.689 432.511 215.579 406.621C199.579 390.131 177.129 378.241 153.359 365.621C130.759 353.621 107.359 341.291 88.869 324.251C88.6073 323.979 88.4587 323.617 88.4535 323.239C88.4483 322.862 88.5867 322.496 88.8409 322.216C89.095 321.937 89.4458 321.764 89.8223 321.734C90.1988 321.703 90.573 321.816 90.869 322.051C109.119 338.821 132.309 351.101 154.739 362.971C178.739 375.681 201.389 387.671 217.739 404.501C243.389 430.951 258.099 463.451 258.099 493.661C258.099 547.411 223.929 588.661 171.049 598.661C170.947 598.708 170.84 598.742 170.729 598.761V598.761Z"
            fill="black"
        />
        <path
            id="Vector_77"
            d="M72.759 608.891C69.4065 608.92 66.0585 608.636 62.759 608.041C37.139 603.041 14.109 576.611 5.45901 542.321C-7.58099 490.501 3.37901 426.421 31.539 389.881C40.7752 379.657 51.1035 370.476 62.339 362.501C62.6642 362.282 63.0621 362.199 63.4476 362.27C63.8331 362.341 64.1755 362.56 64.4016 362.88C64.6277 363.201 64.7195 363.596 64.6573 363.983C64.5952 364.37 64.384 364.718 64.069 364.951C53.0564 372.754 42.9267 381.734 33.859 391.731C6.25901 427.581 -4.47099 490.611 8.38901 541.581C16.769 574.781 38.859 600.301 63.389 605.101C70.809 606.551 81.389 605.821 87.339 604.291C90.9524 603.36 94.4921 602.164 97.929 600.711C107.581 596.612 116.319 590.632 123.633 583.118C130.947 575.605 136.691 566.709 140.529 556.951C140.64 556.678 140.828 556.443 141.071 556.277C141.314 556.11 141.6 556.019 141.895 556.014C142.19 556.008 142.481 556.09 142.73 556.249C142.979 556.408 143.176 556.637 143.295 556.907C143.373 557.087 143.415 557.281 143.418 557.477C143.421 557.674 143.385 557.869 143.313 558.051C139.33 568.188 133.366 577.429 125.769 585.233C118.172 593.037 109.095 599.247 99.069 603.501C95.4984 605.009 91.8219 606.252 88.069 607.221C83.0491 608.378 77.9103 608.938 72.759 608.891V608.891Z"
            fill="black"
        />
        <path
            id="Vector_78"
            d="M122.409 615.301C110.132 615.34 98.013 612.526 87.009 607.081C86.7328 606.95 86.5044 606.736 86.3556 606.469C86.2068 606.202 86.1451 605.895 86.179 605.591C86.2083 605.287 86.3305 604.999 86.5291 604.766C86.7276 604.533 86.993 604.368 87.289 604.291C90.9024 603.36 94.4421 602.164 97.879 600.711C98.247 600.564 98.6579 600.567 99.0238 600.719C99.3897 600.871 99.6816 601.16 99.837 601.525C99.9925 601.889 99.9991 602.3 99.8556 602.669C99.7121 603.039 99.4298 603.337 99.069 603.501C96.7544 604.495 94.3876 605.363 91.979 606.101C104.665 611.532 118.574 613.469 132.262 611.711C145.95 609.953 158.917 604.563 169.819 596.101C179.38 588.716 187.111 579.227 192.411 568.37C197.711 557.514 200.437 545.582 200.379 533.501C200.379 533.103 200.537 532.722 200.818 532.44C201.1 532.159 201.481 532.001 201.879 532.001C202.277 532.001 202.658 532.159 202.94 532.44C203.221 532.722 203.379 533.103 203.379 533.501C203.443 546.046 200.613 558.436 195.11 569.709C189.607 580.982 181.579 590.835 171.649 598.501C157.579 609.455 140.24 615.371 122.409 615.301V615.301Z"
            fill="black"
        />
        </g>
        <g id="hear">
        <path
            id="Vector_79"
            d="M316.279 251.171C316.279 251.171 323.829 215.241 279.779 177.651C279.779 177.651 263.489 151.561 158.019 139.551L71.919 128.081L85.919 149.641L184.469 162.181L229.699 170.291C229.699 170.291 302.499 184.101 316.279 251.171Z"
            fill="#725514"
        />
        <path
            id="Vector_80"
            d="M78.349 137.881C78.349 137.881 150.349 147.151 178.599 151.961C219.689 158.961 302.599 171.131 315.899 242.421L316.279 251.171L309.009 228.391C309.009 228.391 291.589 182.931 218.939 167.811L136.479 155.441L85.479 149.941L78.349 137.881Z"
            fill="#4F3810"
        />
        <path
            id="Vector_81"
            d="M315.899 236.671C315.551 236.668 315.215 236.545 314.947 236.323C314.679 236.1 314.496 235.793 314.429 235.451C308.119 202.841 281.279 178.271 266.429 168.891C252.049 159.821 236.599 156.151 226.429 153.711L225.059 153.391C199.339 147.241 188.739 145.161 74.939 129.991L86.829 149.151C87.0333 149.489 87.0961 149.894 87.0036 150.278C86.9112 150.662 86.6711 150.994 86.3353 151.202C85.9996 151.41 85.5954 151.477 85.2104 151.389C84.8254 151.301 84.4907 151.064 84.279 150.731L70.649 128.871C70.4973 128.63 70.4176 128.352 70.4193 128.067C70.421 127.783 70.5041 127.505 70.6586 127.266C70.8132 127.028 71.0328 126.838 71.2916 126.72C71.5504 126.602 71.8375 126.561 72.119 126.601C189.009 142.171 199.609 144.241 225.689 150.501L227.049 150.831C237.459 153.311 253.199 157.051 268.049 166.391C283.319 176.021 310.899 201.291 317.409 234.911C317.485 235.301 317.404 235.705 317.183 236.035C316.962 236.365 316.619 236.594 316.229 236.671H315.899Z"
            fill="black"
        />
        </g>
    </g>
</svg>