
    <svg xmlns="http://www.w3.org/2000/svg" viewBox="0 0 737 763">
      <defs>
        <style>
          .cls-1 {
            fill: #725514;
          }
          .cls-2 {
            fill: #4f3810;
          }
          .cls-3 {
            fill: #8e681c;
          }
          .cls-4 {
            fill: #fbbb10;
          }
          .cls-5 {
            opacity: 0.6;
          }
          .cls-6 {
            fill: #d89a0f;
          }
          .cls-7 {
            fill: #ffcd5c;
          }
          .cls-8 {
            opacity: 0.38;
          }
          .cls-9 {
            fill: #fff;
          }
          .cls-10 {
            opacity: 0;
          }
          .cls-11 {
            fill: #33230a;
          }
          .cls-12 {
            fill: #a0752a;
          }
          .cls-13 {
            fill: #ffd685;
          }
          .cls-14 {
            fill: #430e6b;
          }
          .cls-15 {
            fill: #daa520;
          }
          .cls-16 {
            fill: #411f0a;
          }
          .cls-17 {
            fill: #936f2e;
          }
          .cls-18 {
            fill: #4f3912;
          }
          .cls-19 {
            fill: #cd9f52;
          }
        </style>
      </defs>
      <g id="shining">
        <path
          class="cls-19"
          d="M350.76,136.39c.15-7.61.07-15.22-.16-22.82s-.63-15.18-1.26-22.74C349,87,347.44,72,347,68.19c-.88-7.53-1.86-15-2.83-22.58a1.27,1.27,0,0,1,2.5-.43c1.62,7.47,2.82,15,3.7,22.62.44,3.8.78,7.6,1.06,11.42s.47,7.63.62,11.44c.3,7.64.4,15.28.24,22.91s-.59,15.24-1.19,22.84a.19.19,0,0,1-.19.16A.17.17,0,0,1,350.76,136.39Z"
        />
        <path
          class="cls-19"
          d="M375.24,123.31c.88-4.9,1.91-9.79,3.15-14.64s2.69-9.63,4.29-14.38a141,141,0,0,1,5.43-14,121.09,121.09,0,0,1,7-13.27,1.27,1.27,0,0,1,2.24,1.2c-2.05,4.51-4.2,9-6.2,13.47s-4.09,9-6,13.57-3.6,9.23-5.21,13.92-3.12,9.43-4.44,14.23a.16.16,0,0,1-.2.12A.18.18,0,0,1,375.24,123.31Z"
        />
        <path
          class="cls-19"
          d="M323.89,118a201.63,201.63,0,0,0-8-24.17c-1.59-3.92-3.38-7.74-5.06-11.61s-3.51-7.67-5.24-11.54a1.27,1.27,0,0,1,.65-1.68,1.26,1.26,0,0,1,1.58.47,90.59,90.59,0,0,1,6.09,11.37,104.31,104.31,0,0,1,4.52,12.07,147.11,147.11,0,0,1,5.76,25,.17.17,0,0,1-.33.06Z"
        />
        <path
          class="cls-19"
          d="M389.5,137.9A142.47,142.47,0,0,1,411.23,104c2.2-2.55,4.46-5.07,6.85-7.46s4.87-4.7,7.45-6.89A111,111,0,0,1,442.06,78a1.26,1.26,0,0,1,1.73.47,1.28,1.28,0,0,1-.36,1.67C438,84,432.76,88,427.72,92.26a189.68,189.68,0,0,0-14.48,13.59,150.57,150.57,0,0,0-12.7,15.33,153.44,153.44,0,0,0-10.74,16.88.17.17,0,0,1-.3-.16Z"
        />
        <path
          class="cls-19"
          d="M315.63,145.6a149.8,149.8,0,0,0-22-31.48,178.19,178.19,0,0,0-13.81-13.26c-4.79-4.21-9.85-8.1-15-11.86a1.27,1.27,0,0,1,1.38-2.13A108.6,108.6,0,0,1,282,98.3a115.88,115.88,0,0,1,13.63,14A136,136,0,0,1,307,128.19a137.47,137.47,0,0,1,8.92,17.26.19.19,0,0,1-.09.23A.17.17,0,0,1,315.63,145.6Z"
        />
      </g>
      <g id="stars">
        <polygon
          class="cls-19"
          points="468.18 53.42 464.33 63.46 470.43 72.33 459.69 71.77 453.14 80.31 450.35 69.92 440.22 66.33 449.23 60.47 449.51 49.72 457.87 56.48 468.18 53.42"
        />
        <polygon
          class="cls-19"
          points="356.91 38.97 343.54 33.01 331.05 40.66 332.58 26.09 321.45 16.57 335.77 13.53 341.39 0 348.71 12.69 363.3 13.85 353.5 24.73 356.91 38.97"
        />
        <polygon
          class="cls-19"
          points="238.89 62.06 249.28 66.27 258.65 60.1 257.85 71.29 266.62 78.3 255.73 81 251.78 91.5 245.85 81.97 234.64 81.46 241.87 72.88 238.89 62.06"
        />
        <path
          class="cls-19"
          d="M419.46,128.66a4.33,4.33,0,1,1,4.33,4.32A4.33,4.33,0,0,1,419.46,128.66Z"
        />
        <path
          class="cls-19"
          d="M502.43,98.49a4.29,4.29,0,1,1,4.29,4.29A4.29,4.29,0,0,1,502.43,98.49Z"
        />
        <path
          class="cls-19"
          d="M210.66,193.08a4.29,4.29,0,1,1,4.29,4.29A4.29,4.29,0,0,1,210.66,193.08Z"
        />
        <circle class="cls-19" cx="151.51" cy="164.64" r="4.29" />
        <circle class="cls-19" cx="646.32" cy="160.35" r="4.29" />
        <path
          class="cls-19"
          d="M579.37,214.64a4.29,4.29,0,1,1,4.29,4.29A4.29,4.29,0,0,1,579.37,214.64Z"
        />
        <circle class="cls-19" cx="459.59" cy="168.93" r="4.29" />
        <path
          class="cls-19"
          d="M558.87,325.21a4.29,4.29,0,1,1,4.29,4.3A4.29,4.29,0,0,1,558.87,325.21Z"
        />
        <circle class="cls-19" cx="75.21" cy="193.55" r="7.68" />
        <circle class="cls-19" cx="670.33" cy="225.75" r="6.44" />
        <circle class="cls-19" cx="599.7" cy="114.74" r="4.29" />
        <path
          class="cls-19"
          d="M231.42,122.49a6.17,6.17,0,1,1,6.16,6.17A6.16,6.16,0,0,1,231.42,122.49Z"
        />
        <path
          class="cls-19"
          d="M111.68,218.93a3.08,3.08,0,1,1,3.08,3.09A3.08,3.08,0,0,1,111.68,218.93Z"
        />
        <polygon
          class="cls-19"
          points="541.33 132.62 541.61 137.53 545.81 140.08 541.23 141.86 540.11 146.64 537 142.84 532.1 143.25 534.76 139.11 532.86 134.58 537.61 135.83 541.33 132.62"
        />
        <polygon
          class="cls-19"
          points="139.53 298 139.86 303.64 144.69 306.58 139.42 308.63 138.12 314.13 134.55 309.76 128.91 310.22 131.97 305.47 129.78 300.25 135.25 301.69 139.53 298"
        />
        <polygon
          class="cls-19"
          points="616.68 276.18 621.7 281.77 629.14 280.81 625.38 287.3 628.59 294.09 621.25 292.51 615.79 297.67 615.02 290.2 608.43 286.6 615.3 283.56 616.68 276.18"
        />
        <path
          class="cls-19"
          d="M190,325.21a4.29,4.29,0,1,1,4.29,4.3A4.29,4.29,0,0,1,190,325.21Z"
        />
      </g>
      <g id="right-wing">
        <path
          class="cls-1"
          d="M518.22,355.22l18,14.16s47.6,21.55,72.29-12.57l60-83.35,62-86.58a2.81,2.81,0,0,1,5,.9h0s6.83,60.4-26.86,107.75l1.83,3.51-.43,22.86-3.71,24.56s-5.34,29.4-29.73,47.64l1.72,7.21-2.44,24.07S665.05,470.87,611.2,449c0,0-38.14-19-67.43,7.55"
        />
        <path
          class="cls-2"
          d="M693.48,315.58s13.59,65-50.83,102.67l39.51-28.38S714.9,366.39,710.48,299v-6.16Z"
        />
        <path
          class="cls-2"
          d="M713.43,288.28s17-50.5,4.22-84.21l14.58-19.59,2-.9,1.31,4.49.57,24.61-6.17,38.77L719.1,278.17Z"
        />
        <path
          class="cls-2"
          d="M606,446.9s59.54,3.37,54.49-40.17L678,394.36v12.37s2,49.8-45.51,47.93l-18-4.39Z"
        />
        <path
          class="cls-3"
          d="M558.87,376.28s31.44,16.12,57.85-16.19c0,0,48.38-67.76,63.48-91,12-18.49,45.53-75.51,45.53-75.51L671.5,269.62l-48,66.68-14,19.27S588.93,383.77,558.87,376.28Z"
        />
        <path
          d="M568.38,378.34h-.17c-40.38-.11-54.29-28.19-54.43-28.47a1.5,1.5,0,0,1,2.7-1.3c.17.34,13.37,26.67,51.74,26.77h.15c25.32,0,36.94-16.24,44.65-27L731,183.6a3,3,0,0,1,5.46,1.52c1,12.79,2.7,57.49-17.11,95.87-12.81,24.8-48.7,63.21-49.06,63.6a1.5,1.5,0,0,1-2.19-2c.36-.38,36-38.49,48.59-62.93,19.45-37.68,17.76-81.67,16.78-94.25l-7.6,10.55L615.45,350.09C607.39,361.34,595.22,378.34,568.38,378.34Z"
        />
        <path
          d="M635.78,423.58a1.5,1.5,0,0,1-.69-2.83c.33-.17,32.79-17,53.15-40.28,26.15-29.87,20.13-85.08,20.07-85.64a1.49,1.49,0,1,1,3-.34c.27,2.32,6.23,57.1-20.78,87.95-20.75,23.7-53.71,40.81-54,41A1.4,1.4,0,0,1,635.78,423.58Z"
        />
        <path
          d="M544.08,459.28a1.47,1.47,0,0,1-.93-.33,1.48,1.48,0,0,1-.24-2.1c.48-.61,12-14.81,36.32-16,11-.53,21.62,3.05,31.83,6.5,14.82,5,28.82,9.74,43.64,2.45,26.79-13.19,21.75-56.23,21.7-56.67a1.5,1.5,0,1,1,3-.37c.23,1.86,5.36,45.6-23.35,59.73-15.93,7.84-31.18,2.68-45.92-2.3-10-3.37-20.24-6.84-30.72-6.35-22.87,1.09-34,14.71-34.13,14.84A1.51,1.51,0,0,1,544.08,459.28Z"
        />
      </g>
      <g id="left-wing">
        <path
          class="cls-1"
          d="M218.78,354.74l-18,14.17s-47.6,21.54-72.29-12.58L68.51,273l-62-86.58a2.81,2.81,0,0,0-5,.9h0s-6.83,60.4,26.86,107.74l-1.83,3.52L27,321.42,30.66,346S36,375.38,60.39,393.63l-1.72,7.2,2.44,24.08S72,470.4,125.8,448.54c0,0,38.14-19,67.43,7.55"
        />
        <path
          class="cls-2"
          d="M43.53,315.1s-13.6,65,50.82,102.68L54.84,389.4S22.1,365.91,26.52,298.57v-6.16Z"
        />
        <path
          class="cls-2"
          d="M23.57,287.81s-16.95-50.5-4.22-84.22L4.77,184l-2-.9-1.31,4.5L.92,212.21,7.09,251,17.9,277.7Z"
        />
        <path
          class="cls-2"
          d="M131,446.43s-59.54,3.37-54.49-40.18L59,393.89v12.37s-2,49.8,45.51,47.93l18.05-4.39Z"
        />
        <path
          class="cls-3"
          d="M178.13,375.8s-31.44,16.12-57.85-16.19c0,0-48.38-67.75-63.48-91-12-18.49-45.53-75.51-45.53-75.51L65.5,269.15l48,66.68,14,19.26S148.07,383.29,178.13,375.8Z"
        />
        <path
          d="M168.62,377.86c-26.84,0-39-17-47.07-28.24L3.55,184.87c-1,12.6-2.7,56.59,16.75,94.27,12.62,24.43,48.23,62.54,48.59,62.92a1.51,1.51,0,0,1-.07,2.12,1.49,1.49,0,0,1-2.12-.07c-.36-.38-36.25-38.79-49.06-63.6C-2.17,242.13-.46,197.43.53,184.65A3,3,0,0,1,2.73,182,3,3,0,0,1,6,183.13L124,347.87c7.71,10.76,19.34,27,44.65,27h.15c38.52-.1,51.61-26.51,51.74-26.77a1.5,1.5,0,1,1,2.7,1.29c-.14.28-14.05,28.37-54.43,28.47Z"
        />
        <path
          d="M101.22,423.11a1.52,1.52,0,0,1-.68-.17c-.33-.17-33.29-17.27-54-41-27-30.86-21-85.64-20.78-88a1.49,1.49,0,1,1,3,.34c-.06.55-6.07,55.79,20.07,85.63,20.37,23.28,52.82,40.12,53.15,40.29a1.49,1.49,0,0,1,.65,2A1.51,1.51,0,0,1,101.22,423.11Z"
        />
        <path
          d="M192.92,458.8a1.5,1.5,0,0,1-1.17-.56c-.15-.18-11.3-13.75-34.13-14.84-10.49-.5-20.77,3-30.72,6.35-14.75,5-30,10.14-45.92,2.29-28.71-14.13-23.58-57.87-23.35-59.72a1.51,1.51,0,0,1,1.68-1.3,1.5,1.5,0,0,1,1.3,1.67c-.06.43-5.09,43.48,21.69,56.67,14.82,7.29,28.82,2.56,43.64-2.45,10.21-3.46,20.77-7,31.83-6.5,24.29,1.15,35.84,15.36,36.32,16a1.5,1.5,0,0,1-.24,2.11A1.46,1.46,0,0,1,192.92,458.8Z"
        />
      </g>
      <g id="cola">
        <path
          class="cls-1"
          d="M274.53,607.31,269.77,655l-11.94,53.63s-4.6,16,26.29,23l14,5.11,13-3.67.26,17.33,4.39,5.58,8.54,3.57h84.35l10.66-4.06,3.75-5.24.22-13.34,6.15,3.06,8.14.32,30-11.83,6.41-6.16L476.74,712l-7.4-33.49-5.87-34.31-3.44-33Z"
        />

        <path
          class="cls-3"
          d="M270.2,728.59l22.63,2.91a17.74,17.74,0,0,0,18.94-11.57l10.47-32.24L319.15,718l-5.72,13.2-8.69,6.48H293.9Z"
        />
        <path
          class="cls-3"
          d="M460.39,731.79l-22.63,2.91a17.74,17.74,0,0,1-18.94-11.57l-10.48-32.24,5,29.78,3.82,13.73,8.69,6.48h10.83Z"
        />
        <path
          class="cls-2"
          d="M317.05,723.62s-4.07,23.79-.21,28.52c6.53,8,44.87,8,44.87,8l-38.82,1.36-10.3-5-2.9-7V735Z"
        />
        <path
          class="cls-2"
          d="M414.93,727.74s4.06,21.2.21,25.41c-6.53,7.14-44.87,7.14-44.87,7.14l38.82,1.21,10.29-4.43,2.9-6.25V737.9Z"
        />
        <path
          class="cls-2"
          d="M272,620.89s6.76,5.93,24.22,12.2a245.64,245.64,0,0,0,26,7.49l5.61-7-36.69-12.19L273,609.8Z"
        />
        <path
          class="cls-2"
          d="M459.71,622.58a190.55,190.55,0,0,1-24.23,11.85c-10.32,4.17-26,7.92-26,7.92l-5.6-7,36.69-12.19,18.16-11.59Z"
        />
        <path
          class="cls-3"
          d="M269.54,693.29a59.12,59.12,0,0,0-3.18,6.74,37.51,37.51,0,0,0-1.58,9.39c-.15,1.8-.09,4,1.5,4.89s3.88-.65,4.46-2.51.18-3.88.17-5.84c0-4.12,1.78-8,3.13-11.9.8-2.3,5.42-18.54,2-18.54S270.76,690.81,269.54,693.29Z"
        />
        <path
          class="cls-3"
          d="M286.14,674.61c-.3,6.38-2.15,12.55-3.5,18.79a6.44,6.44,0,0,1-1.54,3.41,2.49,2.49,0,0,1-3.4.21c-.81-.85-.62-2.22-.24-3.33s.82-2.05,1.25-3.07c.63-1.51,1.16-3.06,1.65-4.62a79.23,79.23,0,0,0,2.19-9c.32-1.72.57-4.24,1.75-4.46C286.14,672.24,286.17,674.1,286.14,674.61Z"
        />
      </g>
      <g id="Capa_1" data-name="Capa 1">
        <path
          class="cls-4"
          d="M515.86,226.44l21.37.11L510.11,261.6a149.83,149.83,0,0,1,10.08,54.21c0,11.55-2.15,21.62-4.62,32.42a199.71,199.71,0,0,1,30,104.4c0,103.35-78.62,187.12-175.61,187.12S194.3,556,194.3,452.63A195.08,195.08,0,0,1,223.44,349.4a151.22,151.22,0,0,1,7.37-90.52l-25-32.33,21.33-.11-10.67-16.56,46.27.59s41.08-48.88,120-45c0,0,52.6,2.67,93.71,44.32l49.7.68Z"
        />
        <g class="cls-5">
          <path
            class="cls-6"
            d="M219.1,360.64s15,40.31,62.32,56.21c0,0-63.43-34.84-63.43-101.46l1.19,19.72,2.72,15.64Z"
          />
        </g>
        <g class="cls-5">
          <path
            class="cls-6"
            d="M198.58,404.22s-5.22,80.54,24.9,133.22c31.8,55.63,87.55,88,141.88,87.75,76.05-.33,114-33.43,140.49-74.64,40.55-63.12,36.55-124,36.55-124l1.48,33s-2.07,64-33.37,102.5c-23.25,28.57-65,80.8-151.72,76.32-39.25-2.19-81.65-18.88-116.26-56.92-55.81-61.38-49.75-140.27-49.75-140.27Z"
          />
        </g>
        <path
          class="cls-7"
          d="M405.19,187a30,30,0,0,1,8.69,1.91,31.08,31.08,0,0,1,3.61,1.42A16.07,16.07,0,0,1,423,194.7a3.82,3.82,0,0,1,.79,1.45,1.48,1.48,0,0,1-.47,1.51,2,2,0,0,1-.95.3c-3,.36-6-.79-9-.35-1.44.21-3,.77-4.27.14a4.94,4.94,0,0,1-1.68-1.6c-1.6-2.14-3.17-4.5-5.62-5.57a4.82,4.82,0,0,1-1.4-.74c-.38-.36-.7-1.22,1-2.26A12,12,0,0,1,405.19,187Z"
        />
        <g class="cls-5">
          <path
            class="cls-6"
            d="M517.34,360.64S502.4,401,455,416.85c0,0,63.43-34.84,63.43-101.46l-1.19,19.72-2.71,15.64Z"
          />
        </g>
        <path
          class="cls-7"
          d="M276.44,209.94s32.27-32.45,83.74-34.11c60.92-2,101.36,34.11,101.36,34.11h14.08s-46.76-51-117.35-44.66c0,0-60.34,1-95.55,45.19Z"
        />
        <g class="cls-8">
          <path
            class="cls-9"
            d="M209.79,231.71h62.43s39.92-.55,60.81,14.78c28.84,21.16,37,41.72,37,41.72s12.76-25,32.93-38.06c29.95-19.4,61.71-18.44,61.71-18.44h66.66l4-5.17-87.16-.79s-51.94,1.49-77.41,59.56c0,0-8-15.86-12.09-20.09-22.51-23.49-28.12-44.64-131-39.11L203,225.75Z"
          />
        </g>
        <polygon
          points="228.27 259.41 228.26 259.4 230.32 257.23 228.27 259.41"
        />
        <path
          d="M368.41,640.69c-97.67,0-177.13-84.62-177.13-188.62a196.66,196.66,0,0,1,29-103.5,152.63,152.63,0,0,1-3.67-33.32,151.06,151.06,0,0,1,10.93-56.7l-24.49-31.64a1.5,1.5,0,0,1,1.18-2.42l43.39-.22h0a1.5,1.5,0,0,1,0,3l-40.35.2,23.16,29.93a1.52,1.52,0,0,1,.2,1.48,149.52,149.52,0,0,0-7.3,89.62,1.5,1.5,0,0,1-.19,1.13,193.66,193.66,0,0,0-28.91,102.44c0,102.35,78.11,185.62,174.13,185.62s174.12-83.27,174.12-185.62a193.61,193.61,0,0,0-28.91-102.44,1.5,1.5,0,0,1-.19-1.13,149.46,149.46,0,0,0,3.74-33.25,148,148,0,0,0-10-53.67,1.48,1.48,0,0,1,.22-1.46l25.26-32.65-43.54-.22a1.5,1.5,0,0,1,0-3h0l46.58.24a1.5,1.5,0,0,1,1.18,2.42l-26.61,34.37a152.72,152.72,0,0,1,6.2,87.29,196.69,196.69,0,0,1,29,103.5C545.52,556.07,466.07,640.69,368.41,640.69Z"
        />
        <path
          d="M475.62,211.44a1.5,1.5,0,0,1-1.07-.45,148.73,148.73,0,0,0-212.26,0,1.5,1.5,0,1,1-2.13-2.1,151.71,151.71,0,0,1,216.53,0,1.5,1.5,0,0,1,0,2.12A1.48,1.48,0,0,1,475.62,211.44Z"
        />
        <path
          d="M298.83,740.18a19.49,19.49,0,0,1-7.24-1.39L267.08,729a19.57,19.57,0,0,1-11.6-23c14-54.4,16.06-96.38,16.08-96.8a1.5,1.5,0,0,1,3,.14c0,.42-2.12,42.69-16.18,97.41a16.55,16.55,0,0,0,9.81,19.46L292.71,736a16.48,16.48,0,0,0,22-11,297.91,297.91,0,0,0,7.53-38.49,1.49,1.49,0,1,1,3,.41,300.66,300.66,0,0,1-7.6,38.88,19.5,19.5,0,0,1-18.79,14.33Z"
        />
        <path
          d="M432.78,744.06a19.35,19.35,0,0,1-8.63-2A19.57,19.57,0,0,1,414,729.73a301,301,0,0,1-7.6-38.88,1.5,1.5,0,1,1,3-.41,296.36,296.36,0,0,0,7.52,38.49,16.48,16.48,0,0,0,22,11l24.51-9.83a16.56,16.56,0,0,0,9.82-19.46c-14.07-54.72-16.16-97-16.18-97.41a1.5,1.5,0,0,1,1.42-1.57,1.52,1.52,0,0,1,1.57,1.43c0,.42,2.1,42.4,16.09,96.8a19.57,19.57,0,0,1-11.6,23L440,742.67A19.45,19.45,0,0,1,432.78,744.06Z"
        />
        <path
          d="M404.26,763h-77c-10.71,0-19.1-5.51-19.1-12.54V735a1.5,1.5,0,1,1,3,0v15.44c0,5.17,7.38,9.54,16.11,9.54h77c8.73,0,16.1-4.37,16.1-9.54v-11.6a1.5,1.5,0,0,1,3,0v11.6C423.36,757.49,415,763,404.26,763Z"
        />
        <g class="cls-10">
          <path
            d="M368.4,608.38c-56.43,0-91.49-35-91.49-91.37,0-30.94,8.61-55.88,24.9-72.14,15.51-15.48,37.81-23.33,66.28-23.33h.31c32.26.06,56.38,9.52,71.69,28.12,13.14,16,19.8,38.62,19.8,67.35C459.89,574.22,425.69,608.38,368.4,608.38Zm-.31-183.85c-27.65,0-49.23,7.56-64.16,22.46-15.72,15.68-24,39.9-24,70,0,54.51,33.91,88.37,88.49,88.37,55.41,0,88.49-33,88.49-88.37,0-61.24-29.77-92.36-88.49-92.48Z"
          />
        </g>
        <g class="cls-10">
          <path
            d="M428.67,346.46a44.87,44.87,0,1,1,44.72-44.87A44.84,44.84,0,0,1,428.67,346.46Zm0-86.75a41.88,41.88,0,1,0,41.72,41.88A41.85,41.85,0,0,0,428.67,259.71Z"
          />
          <path
            d="M428.67,326.71a25.12,25.12,0,1,1,25-25.12A25.11,25.11,0,0,1,428.67,326.71Zm0-47.25a22.13,22.13,0,1,0,22.05,22.13A22.11,22.11,0,0,0,428.67,279.46Z"
          />
        </g>
        <g class="cls-5">
          <path
            class="cls-6"
            d="M514.3,485c-4.94-21.25-14.27-38.5-32.51-51.08a115.81,115.81,0,0,0-18.37-10.37,55,55,0,0,1,20.83,6.34c19.95,10.22,32.44,32.8,30,55.11Z"
          />
        </g>
        <g class="cls-5">
          <path
            class="cls-6"
            d="M222.11,488.5c-2.39-22.3,10.09-44.88,30-55.1A54.77,54.77,0,0,1,273,427.06a116.31,116.31,0,0,0-18.38,10.36C236.37,450,227,467.27,222.11,488.5Z"
          />
        </g>
      </g>
      <g id="patas">
        <path
          class="cls-11"
          d="M365.6,640.69l.29,16.23L333.52,635.5s4.09,2.67,12.22,3.65C356.65,640.47,365.6,640.69,365.6,640.69Z"
        />
        <path
          class="cls-11"
          d="M365.89,656.92,397.09,637s-4.23,2.59-23.24,3.62c-.92,0-7.71.08-7.71.08Z"
        />
        <path
          class="cls-12"
          d="M326.9,633.93l-8.4,13,1.8,6.16,3.48,2.27.24,9.49,3.83,4.76,7.69,1.68,1.31,9.57,6.36.17s17.55-2.28,22.68-24.13l3.45,12.89S380,684.7,394.43,681.75c0,0,2.9.15,1.31-10.44,0,0,8.14,1.88,10.3-3.56s-.56-11.2-.56-11.2,9.15.33,6.12-10.34l-7.73-10.71L395,637.41l-28.65,18.36-2.43-.38L331.43,635Z"
        />
        <path
          class="cls-2"
          d="M317.21,638.13s-6.88,14.12,5.34,17.35l-3-11.92,5.06-4.37Z"
        />
        <path
          class="cls-2"
          d="M414.09,639.75s5.81,9.35-2.58,15c1.85-7.19-1.93-14.15-1.93-14.15Z"
        />
        <path
          d="M365.5,658.25a1.55,1.55,0,0,1-.83-.25l-32-21.26c-.32-.21-2.47-2-3.38-2.23s-.14-.71-.09-.94,2.94,1.26,3,1.1a1.5,1.5,0,0,1,2.08-.42L364,654V639.16a1.5,1.5,0,1,1,3,0v17.59a1.49,1.49,0,0,1-.79,1.32A1.46,1.46,0,0,1,365.5,658.25Z"
        />
        <path
          d="M365.5,658.25a1.47,1.47,0,0,1-.73-.19,1.49,1.49,0,0,1-.77-1.31V640.17a1.5,1.5,0,1,1,3,0V654l29.93-18.72a1.49,1.49,0,0,1,2.06.48c.14.22,2.88-.77,3.44.33.11.21-.84-.41-2.09.43-.25.16-1.55,1.14-1.82,1.3L366.29,658A1.51,1.51,0,0,1,365.5,658.25Z"
        />
        <path
          d="M338.53,683.25a1.52,1.52,0,0,1-1-.37c-.08-.08-8.61-7.82-.2-21.1,2.86-4.52,5.54-8.24,14-15a1.5,1.5,0,0,1,1.86,2.35c-8.15,6.45-10.59,9.82-13.37,14.22-6,9.53-2.12,15.27-.75,16.83,23-1.8,24.81-22.67,24.88-23.57a1.51,1.51,0,0,1,1.61-1.38,1.49,1.49,0,0,1,1.38,1.6c0,.24-2.08,24.78-28.37,26.39Z"
        />
        <path
          d="M392.85,683.76h-.09c-26.28-1.6-28.35-26.14-28.36-26.39a1.5,1.5,0,0,1,3-.22h0c.06.9,1.89,21.77,24.88,23.58,1.36-1.55,5.28-7.29-.75-16.84-2.79-4.4-5.22-7.76-13.37-14.21a1.5,1.5,0,0,1,1.86-2.36c8.5,6.73,11.18,10.45,14,15,8.4,13.29-.12,21-.21,21.1A1.44,1.44,0,0,1,392.85,683.76Z"
        />
        <path
          d="M332.52,672a10.85,10.85,0,0,1-8.07-3.67l-.08-.1c-8.84-13,12.88-29.58,13.81-30.28a1.5,1.5,0,0,1,1.79,2.4c-.2.15-20.29,15.44-13.16,26.13a7.9,7.9,0,0,0,8.19,2.16,1.5,1.5,0,1,1,.83,2.88A12,12,0,0,1,332.52,672Z"
        />
        <path
          d="M399.21,673.52a12.52,12.52,0,0,1-3.49-.52,1.5,1.5,0,0,1,.82-2.88c5.09,1.46,7.57-1.6,7.68-1.73,7.19-10.61-13-26-13.18-26.12a1.5,1.5,0,1,1,1.8-2.39c.93.7,22.65,17.23,13.8,30.27A9.47,9.47,0,0,1,399.21,673.52Z"
        />
        <path
          d="M325,657.27a1.27,1.27,0,0,1-.34,0,10.26,10.26,0,0,1-5-2.7c-7.37-8.5,6.53-20.95,7.13-21.48a1.49,1.49,0,0,1,2.11.13c.23.26,3.81,1.08,3.83,1.41s-.8,1-2.57.36a1.18,1.18,0,0,0-1.39.35c-.12.11-12.28,11-6.87,17.24h0a7.36,7.36,0,0,0,3.4,1.77,1.5,1.5,0,0,1-.33,3Z"
        />
        <path
          d="M406.3,658.42a1.5,1.5,0,0,1-.33-3,7.35,7.35,0,0,0,3.43-1.81c5.39-6.21-6.42-17.06-6.54-17.17a2.27,2.27,0,0,0-2.22-.26,2.17,2.17,0,0,1-1.83-.08c-1.33-.11,3.62-1.41,3.95-1.77a1.49,1.49,0,0,1,2.11-.11c.58.53,14.1,12.93,6.76,21.39a10.15,10.15,0,0,1-5,2.73A1.27,1.27,0,0,1,406.3,658.42Z"
        />
        <path
          d="M340.14,674.52a3.07,3.07,0,0,1,.42,4.91,11.66,11.66,0,0,0-.9.94c-1.54,1.79-2,4.15-1.27,7.32a8.14,8.14,0,0,1-2.6-3,9.85,9.85,0,0,1,.1-9.11,3,3,0,0,1,4.23-1.12Z"
        />
        <path
          d="M328.88,662.35a3.06,3.06,0,0,1,.42,4.91,10,10,0,0,0-.9.93c-1.54,1.8-2,4.15-1.26,7.33a8.13,8.13,0,0,1-2.6-3,9.85,9.85,0,0,1,.09-9.11,3,3,0,0,1,4.23-1.12Z"
        />
        <path
          d="M321.79,648.33a2.3,2.3,0,0,1,.32,3.69,7.76,7.76,0,0,0-.68.71c-1.15,1.35-1.5,3.12-.95,5.5a6,6,0,0,1-2-2.22,7.42,7.42,0,0,1,.06-6.85,2.27,2.27,0,0,1,3.19-.84Z"
        />
        <path
          d="M391.67,674.07a3.07,3.07,0,0,0-.42,4.91,10.15,10.15,0,0,1,.9.94c1.54,1.79,2,4.15,1.27,7.32a8.14,8.14,0,0,0,2.6-3,9.88,9.88,0,0,0-.09-9.11,3,3,0,0,0-4.23-1.12Z"
        />
        <path
          d="M402.93,661.9a3.07,3.07,0,0,0-.42,4.91,10,10,0,0,1,.9.93c1.54,1.8,2,4.15,1.27,7.33a8.06,8.06,0,0,0,2.59-3,9.85,9.85,0,0,0-.09-9.11,3,3,0,0,0-4.23-1.13Z"
        />
        <path
          d="M410,647.88a2.31,2.31,0,0,0-.32,3.69,6.62,6.62,0,0,1,.68.71c1.16,1.35,1.5,3.12.95,5.51a6.07,6.07,0,0,0,2-2.22,7.44,7.44,0,0,0-.07-6.86,2.28,2.28,0,0,0-3.19-.84Z"
        />
      </g>
      <g id="panza">
        <path
          class="cls-13"
          d="M458.39,517c0,51.9-29,89.87-90,89.87-59.21,0-90-38-90-89.87s24-94.11,90-94C436.5,423.17,458.39,465.11,458.39,517Z"
        />
        <path
          class="cls-14"
          d="M314,470.5c-4.71,75.22,56.44,110.71,56.44,110.71a49.72,49.72,0,0,1-13.31-.51,99.88,99.88,0,0,1-11.79-3.07c-43.35-29.1-43.91-82.86-43.91-82.86A62.36,62.36,0,0,1,314,470.5Z"
        />
        <path
          class="cls-14"
          d="M428,511.19c-8,60-52,69.51-52,69.51s-7.91-4.85-11.52-10.35c0,0,19.62-4.42,33.65-21.39,10.25-12.4,12.09-28.07,12.09-28.07a79.15,79.15,0,0,0-51.4-1.2s-1.78,2.43-.73,9.85c0,0-8.63-6.53-10.6-22.31,0,0,12.2-7.81,40.55-6.28C416.62,502.5,428,511.19,428,511.19Z"
        />
        <path
          class="cls-14"
          d="M317.49,466.62V480.8s23.06-14.81,49.38-14.67c23.66.13,37.54,5.85,48.22,13.27,2.06,5.86-.92,13.56-.92,13.56s6.43-1.95,9.57-7.49a32,32,0,0,0,3.77-12.78s-14.79-21.92-59.46-22.61C335.44,449.57,317.49,466.62,317.49,466.62Z"
        />
      </g>
      <g id="eyes">
        <g class="cls-5">
          <path
            class="cls-6"
            d="M494.75,303.72c0,43.29-33.85,78.39-75.6,78.39s-75.6-35.1-75.6-78.39c44.14,11.67,61.55-27.81,79.89-70.76C454.76,233.43,494.75,260.42,494.75,303.72Z"
          />
        </g>
        <g class="cls-5">
          <path
            class="cls-6"
            d="M247.55,303.72c0,43.29,33.85,78.39,75.6,78.39s75.61-35.1,75.61-78.39c-44.15,11.67-63.33-29.07-81.67-72C286.69,235.94,247.55,260.42,247.55,303.72Z"
          />
        </g>
        <path
          class="cls-9"
          d="M488.86,300.25c0,39.85-31.72,72.15-70.85,72.15a69.31,69.31,0,0,1-25.62-4.88A51.78,51.78,0,0,0,399.47,355L370,333.22,340.52,355a51.45,51.45,0,0,0,7.08,12.57A69.35,69.35,0,0,1,322,372.4c-39.13,0-70.85-32.3-70.85-72.15,0-38.26,29-66.12,66-68.54,25.49,11.31,45.4,30.86,52.9,56.5,7.5-25.64,28.5-45.19,54-56.5C461,234.12,488.86,262,488.86,300.25Z"
        />
      </g>
      <g id="pupil">
        <ellipse class="cls-15" cx="313.33" cy="303.72" rx="39.2" ry="38.03" />
        <ellipse class="cls-16" cx="313.33" cy="303.72" rx="25.1" ry="24.35" />
        <path
          class="cls-9"
          d="M281.76,299.1a9.19,9.19,0,1,0,9.19-8.91A9.06,9.06,0,0,0,281.76,299.1Z"
        />
        <ellipse class="cls-15" cx="428.02" cy="303.72" rx="39.2" ry="38.03" />
        <ellipse class="cls-16" cx="428.02" cy="303.72" rx="25.1" ry="24.35" />
        <path
          class="cls-9"
          d="M459.59,299.1a9.19,9.19,0,1,1-9.19-8.91A9.06,9.06,0,0,1,459.59,299.1Z"
        />
      </g>
      <g id="eyelids">
        <g class="cls-15">
          <path
            class="cls-6"
            d="M494.75,303.72c0,43.29-33.85,78.39-75.6,78.39s-75.6-35.1-75.6-78.39c44.14,11.67,61.55-27.81,79.89-70.76C454.76,233.43,494.75,260.42,494.75,303.72Z"
          />
        </g>
        <g class="cls-15">
          <path
            class="cls-6"
            d="M247.55,303.72c0,43.29,33.85,78.39,75.6,78.39s75.61-35.1,75.61-78.39c-44.15,11.67-63.33-29.07-81.67-72C286.69,235.94,247.55,260.42,247.55,303.72Z"
          />
        </g>
        <path
          class="cls-15"
          d="M488.86,300.25c0,39.85-31.72,72.15-70.85,72.15a69.31,69.31,0,0,1-25.62-4.88A51.78,51.78,0,0,0,399.47,355L370,333.22,340.52,355a51.45,51.45,0,0,0,7.08,12.57A69.35,69.35,0,0,1,322,372.4c-39.13,0-70.85-32.3-70.85-72.15,0-38.26,29-66.12,66-68.54,25.49,11.31,45.4,30.86,52.9,56.5,7.5-25.64,28.5-45.19,54-56.5C461,234.12,488.86,262,488.86,300.25Z"
        />
      </g>
      <g id="pico">
        <polygon
          class="cls-1"
          points="340.52 354.95 369.99 333.22 399.47 354.95 385.95 376.96 370.47 391.53 352.95 375.27 340.52 354.95"
        />
        <path
          class="cls-17"
          d="M369.92,340.39v44.85a146.45,146.45,0,0,1-14-15.08,93,93,0,0,1-8.53-13.1Z"
        />
        <path
          class="cls-1"
          d="M369.92,393.26a1.47,1.47,0,0,1-.93-.33c-.53-.42-13.16-10.54-22.21-23.55A55.86,55.86,0,0,1,339.67,356a1.52,1.52,0,0,1,.49-1.68L369,331.86a1.47,1.47,0,0,1,1.84,0l28.84,22.47a1.5,1.5,0,0,1,.49,1.68,55.51,55.51,0,0,1-7.11,13.37c-9.05,13-21.67,23.13-22.21,23.55A1.47,1.47,0,0,1,369.92,393.26ZM342.87,356a54.12,54.12,0,0,0,6.37,11.64c7.41,10.65,17.58,19.54,20.68,22.15,3.1-2.61,13.28-11.5,20.68-22.15A54.63,54.63,0,0,0,397,356l-27.06-21.09Z"
        />
      </g>
      <g id="cejas">
        <path
          class="cls-1"
          d="M225.62,225.88,215,209.31,314.38,211l17.41,7.87,12.72,11.48s6.94,6.22,18.74,41.34c0,0-27.91-45.24-74.48-45.94Z"
        />
        <path
          class="cls-1"
          d="M376.87,271.69l12.22-32.31s11.8-27.26,45.5-28.1l90-1.34-10.26,15.94-62.28-.29S408.19,224.21,376.87,271.69Z"
        />
        <path
          class="cls-18"
          d="M221.18,220.47h63.63a79.9,79.9,0,0,1,57.91,24.86l15.07,19.82s-31.1-42.5-82-39.67l-51.19.3Z"
        />
        <path
          class="cls-18"
          d="M517.82,220.47H454.19a79.94,79.94,0,0,0-57.92,24.86l-15.64,19.82s31.68-42.5,82.58-39.67l51.19.3Z"
        />
        <path
          d="M370,289.71a1.5,1.5,0,0,1-1.39-.95l-1.15-2.91c-15.28-37.12-44.18-49.24-44.48-49.36l-.11-.05a88.18,88.18,0,0,0-39.9-9.35l-35.29.18h0a1.5,1.5,0,0,1,0-3l35.28-.18h.44a91.12,91.12,0,0,1,40.78,9.65c1.25.53,19.36,8.55,34.55,30l-7-17.69a51.49,51.49,0,0,0-47.16-33.62l-86.83-1.56,9.15,14.21a1.5,1.5,0,0,1-2.52,1.62l-10.67-16.56a1.5,1.5,0,0,1-.05-1.54,1.43,1.43,0,0,1,1.33-.77l89.64,1.6A54.51,54.51,0,0,1,354.52,245l15.72,39.76c.39,1,.78,1.94,1.15,2.94a1.49,1.49,0,0,1-.86,1.93A1.44,1.44,0,0,1,370,289.71Z"
        />
        <path d="M261.19,227.2l-35.28.18h0a1.5,1.5,0,0,1,0-3l35.29-.18h.43" />
        <path
          d="M370,289.71a1.47,1.47,0,0,1-.54-.1,1.5,1.5,0,0,1-.85-1.94c.27-.71.55-1.42.83-2.11l16-40.62a54.53,54.53,0,0,1,49.9-35.52l89.64-1.6a1.5,1.5,0,0,1,1.29,2.31l-10.68,16.56a1.49,1.49,0,1,1-2.51-1.62l9.15-14.21-86.83,1.56A51.5,51.5,0,0,0,388.27,246l-7.12,18c15.27-21.62,33.45-29.77,34.66-30.29a91.32,91.32,0,0,1,40.79-9.65H457l32.1.16a1.5,1.5,0,0,1,0,3h0L457,227.09h-.42a88.2,88.2,0,0,0-39.48,9.35l-.1.05c-.3.12-29.53,12.61-44.81,50.18l-.82,2.09A1.51,1.51,0,0,1,370,289.71Z"
        />
        <path d="M478.7,227.2l35.29.18h0a1.5,1.5,0,0,0,0-3l-35.28-.18h-.43" />
      </g>
    </svg>