<svg id="Capa_1" data-name="Capa 1" xmlns="http://www.w3.org/2000/svg" viewBox="0 0 880 742"><defs><style>.cls-1{fill:#725514;}.cls-2{fill:#4f3810;}.cls-3{fill:#8e681c;}.cls-4{fill:#fbbb10;}.cls-5{opacity:0.6;}.cls-6{fill:#d89a0f;}.cls-7{fill:#fff;}.cls-8{fill:#33230a;}.cls-9{fill:#a0752a;}.cls-10{fill:#ffcd5c;}.cls-11{fill:#4f3912;}.cls-12{fill:#936f2e;}.cls-13{opacity:0.38;}.cls-14{fill:#ffd685;}.cls-15{opacity:0;}.cls-16{fill:#430e6b;}.cls-17{fill:#daa520;}.cls-18{fill:#411f0a;}.cls-19{fill:#4c2c68;}</style></defs><path class="cls-1" d="M327.21,332.91l18.05,14.17s47.62,21.54,72.34-12.58l60-83.37,62.05-86.6a2.82,2.82,0,0,1,5,.91h0s6.83,60.41-26.88,107.76l1.83,3.52-.42,22.86-3.72,24.57s-5.35,29.4-29.75,47.65l1.72,7.21L485,403.08s-10.85,45.51-64.73,23.64c0,0-38.17-19-67.48,7.55"/><path class="cls-2" d="M502.59,293.26s13.6,65-50.86,102.69l39.53-28.38S524,344.08,519.6,276.72v-6.16Z"/><path class="cls-2" d="M522.56,266s17-50.51,4.22-84.23l14.59-19.6,2-.9,1.31,4.5.57,24.61-6.17,38.78-10.82,26.72Z"/><path class="cls-2" d="M415.09,424.61s59.58,3.37,54.52-40.19l17.51-12.36v12.37s2,49.81-45.54,47.94L423.52,428Z"/><path class="cls-3" d="M367.89,354s31.47,16.12,57.89-16.19c0,0,48.41-67.77,63.53-91,12-18.49,45.55-75.52,45.55-75.52l-54.27,76.08-48,66.7-14,19.27S398,361.46,367.89,354Z"/><path d="M377.4,356h-.16c-40.41-.1-54.33-28.19-54.46-28.48a1.5,1.5,0,1,1,2.7-1.29c.17.34,13.37,26.67,51.77,26.77h.15c25.33,0,37-16.24,44.67-27L533.25,170.88l6.9-9.62a3,3,0,0,1,5.46,1.52c1,12.79,2.7,57.49-17.12,95.88-12.82,24.81-48.74,63.23-49.1,63.61a1.5,1.5,0,1,1-2.18-2c.35-.38,36-38.5,48.61-62.94,19.47-37.68,17.78-81.68,16.8-94.27l-6.93,9.61c-23.8,33.22-87,121.36-111.18,155.16C416.45,339,404.27,356,377.4,356Z"/><path d="M444.85,401.28a1.48,1.48,0,0,1-1.33-.81,1.5,1.5,0,0,1,.64-2c.33-.17,32.81-17,53.19-40.29,26.17-29.87,20.14-85.1,20.08-85.65a1.5,1.5,0,1,1,3-.34c.26,2.31,6.23,57.1-20.8,88-20.77,23.7-53.75,40.81-54.08,41A1.51,1.51,0,0,1,444.85,401.28Z"/><path d="M353.09,437a1.47,1.47,0,0,1-.93-.33,1.49,1.49,0,0,1-.24-2.1c.48-.61,12-14.82,36.35-16,11.05-.54,21.63,3,31.85,6.5,14.83,5,28.83,9.74,43.66,2.45,26.81-13.19,21.77-56.25,21.71-56.68a1.5,1.5,0,0,1,3-.37c.23,1.85,5.36,45.6-23.36,59.74-15.94,7.84-31.2,2.68-45.95-2.3-10-3.37-20.25-6.84-30.75-6.35-22.88,1.09-34,14.71-34.15,14.84A1.49,1.49,0,0,1,353.09,437Z"/><path class="cls-1" d="M81.82,588.2l-4.76,47.7L65.12,689.54s-4.61,16,26.3,23l14,5.11,13-3.67.27,17.33,4.39,5.59,8.54,3.56H216.1l10.66-4.06,3.75-5.24.22-13.34,6.16,3,8.14.33,30-11.84,6.42-6.15,2.72-10.33-7.4-33.51-5.88-34.31-3.44-33Z"/><path class="cls-4" d="M324.8,205.34l21.38.11L319,240.5a149.67,149.67,0,0,1,10.08,54.22c0,11.55-2.15,21.62-4.62,32.42a199.75,199.75,0,0,1,30,104.43c0,103.37-78.68,187.16-175.74,187.16S3,534.94,3,431.57A195,195,0,0,1,32.18,328.31a150.95,150.95,0,0,1,7.38-90.53l-25-32.33,21.34-.11L25.18,188.77l46.31.59s41.1-48.89,120.08-45c0,0,52.63,2.67,93.77,44.32l49.73.68Z"/><path class="cls-1" d="M50.13,560.24S78.72,524,77,477.9c-1.68-44.69-28.1-62.39-44.52-112.77A83.56,83.56,0,0,1,28.85,331S-44.34,450.45,50.13,560.24Z"/><g class="cls-5"><path class="cls-6" d="M303.67,282.63c0,43.3-33.87,78.41-75.65,78.41s-75.66-35.11-75.66-78.41c44.18,11.67,49.53-30.76,67.88-73.71C262,208.92,303.67,239.32,303.67,282.63Z"/></g><g class="cls-5"><path class="cls-6" d="M56.31,282.63C56.31,325.93,90.18,361,132,361s75.65-35.11,75.65-78.41c-44.17,11.67-50.71-27-69.06-69.93C96.77,212.7,56.31,239.32,56.31,282.63Z"/></g><path class="cls-7" d="M297.77,279.16c0,39.86-31.74,72.16-70.89,72.16a69.45,69.45,0,0,1-25.64-4.88,51.82,51.82,0,0,0,7.09-12.57l-29.5-21.74-29.5,21.74a52.16,52.16,0,0,0,7.09,12.57,69.41,69.41,0,0,1-25.64,4.88c-39.15,0-70.89-32.3-70.89-72.16,0-38.27,29-66.14,66-68.55,25.5,11.31,45.43,30.86,52.93,56.51,7.51-25.65,28.51-45.2,54-56.51C269.86,213,297.77,240.88,297.77,279.16Z"/><polygon class="cls-1" points="149.33 333.87 178.83 312.13 208.33 333.87 194.8 355.88 179.31 370.46 161.78 354.19 149.33 333.87"/><path class="cls-1" d="M34.36,204.78,23.68,188.2l99.5,1.69,17.42,7.87,12.73,11.48s6.95,6.22,18.75,41.35c0,0-27.93-45.24-74.53-46Z"/><path class="cls-1" d="M185.71,250.59l12.23-32.32s11.81-27.26,45.53-28.1l90.1-1.34L323.3,204.78l-62.32-.3S217.05,203.1,185.71,250.59Z"/><polygon class="cls-8" points="174.72 618.14 174.72 635.9 142.33 614.47 174.72 618.14"/><polygon class="cls-8" points="174.72 635.9 205.94 615.96 180.51 619.1 174.72 618.14 174.72 635.9"/><path class="cls-9" d="M135.71,612.91l-8.41,13,1.81,6.16,3.47,2.27.25,9.49,3.83,4.76,7.69,1.68,1.31,9.57L152,660s17.56-2.28,22.7-24.14l3.44,12.9s10.68,14.89,25.11,11.94c0,0,2.91.14,1.31-10.45,0,0,8.15,1.88,10.31-3.56s-.56-11.21-.56-11.21,9.16.34,6.12-10.33l-7.73-10.72-8.89,1.91-28.67,18.37-2.43-.38L140.24,614Z"/><path class="cls-2" d="M57.09,550.11s-29.37-16.49-22.94-47.05l-4.4,10.63v17.67l8.83,14.37L50.7,560.41Z"/><path class="cls-2" d="M31.1,508.12s-12.52-11.19-13.21-32.35c-.56-17.14,3.89-25.15,3.89-25.15l-7.19,9.32L8.46,479.87l7.17,26.05,12.09,23Z"/><path class="cls-2" d="M14.59,459.94s-7.4-13-6.13-27.36a106.37,106.37,0,0,1,5-24s-7,3.51-10.51,19.58l-1.11,7.93,2,23.66,5,18.92Z"/><path class="cls-2" d="M11.71,409.59S11.64,378.25,29.43,348c.35-8-2.2-11.86,0-16.77l-9.07,16.24L8.46,380.08l-5.2,27.1-2,21.37,4.6-9.75Z"/><path class="cls-3" d="M53.31,557.35a145.65,145.65,0,0,0,9.39-28.52c6.19-29.51,5.87-46.62,3.1-62.53C61,438.93,41.54,416.35,33.22,384c-6.21-24.17-3.47-34.28-3.47-34.28L35.54,372l16,35.16,14.34,26.5S99.38,488.92,53.31,557.35Z"/><g class="cls-5"><path class="cls-6" d="M27.84,339.56s15,40.32,62.36,56.22c0,0-63.47-34.84-63.47-101.48L27.92,314l2.72,15.63Z"/></g><g class="cls-5"><path class="cls-6" d="M57.09,550.11S100.55,602,174.73,600c149.4-3.86,175.8-137.77,175.8-137.77s-5.83,47.73-33.67,82.4c-18.49,23-62.43,77.15-149.24,72.67-75.08-4.19-117.49-57.1-117.49-57.1Z"/></g><path class="cls-10" d="M214.05,165.83a30,30,0,0,1,8.69,1.92,28.86,28.86,0,0,1,3.62,1.41,16.1,16.1,0,0,1,5.47,4.43,3.82,3.82,0,0,1,.79,1.45,1.49,1.49,0,0,1-.47,1.51,2,2,0,0,1-1,.3c-3,.36-6-.79-9-.35-1.43.21-3,.77-4.26.14a5,5,0,0,1-1.69-1.6c-1.6-2.14-3.17-4.5-5.62-5.57a4.69,4.69,0,0,1-1.4-.74c-.39-.37-.7-1.23,1-2.27A12.25,12.25,0,0,1,214.05,165.83Z"/><path class="cls-11" d="M30.94,199.47H94.53a79.87,79.87,0,0,1,57.88,24.84l15.05,19.81s-31.07-42.47-81.94-39.64l-51.16.3Z"/><path class="cls-11" d="M327.39,199.47H263.8a79.87,79.87,0,0,0-57.88,24.84l-15.64,19.81s31.66-42.47,82.53-39.64l51.16.3Z"/><path class="cls-3" d="M79,707.59l22.65,2.9a17.74,17.74,0,0,0,18.94-11.56l10.49-32.25L128,697l-5.73,13.21-8.7,6.48H102.69Z"/><path class="cls-3" d="M269.28,710.78l-22.64,2.91a17.75,17.75,0,0,1-18.95-11.57l-10.48-32.25,5,29.79L226,713.4l8.7,6.47h10.84Z"/><path class="cls-2" d="M125.85,702.61s-4.07,23.8-.21,28.52c6.53,8,44.9,8,44.9,8l-38.85,1.36-10.3-5-2.9-7V714Z"/><path class="cls-2" d="M223.8,706.73s4.06,21.21.21,25.42c-6.54,7.14-44.9,7.14-44.9,7.14L218,740.5l10.3-4.43,2.9-6.25V716.9Z"/><path class="cls-2" d="M80.78,599.86s6.76,5.93,24.23,12.21a245.27,245.27,0,0,0,26,7.49l5.61-7L99.94,600.37l-18.17-11.6Z"/><path class="cls-2" d="M268.6,601.55a191.09,191.09,0,0,1-24.24,11.86c-10.33,4.16-26,7.92-26,7.92l-5.61-7,36.71-12.18,18.18-11.6Z"/><path class="cls-3" d="M78.31,672.28A59.79,59.79,0,0,0,75.13,679a38.14,38.14,0,0,0-1.59,9.4c-.15,1.8-.09,4,1.51,4.89s3.88-.65,4.46-2.51.18-3.88.17-5.84c0-4.12,1.78-8,3.14-11.9.8-2.3,5.42-18.55,2-18.55S79.53,669.79,78.31,672.28Z"/><path class="cls-3" d="M94.92,653.59c-.3,6.38-2.15,12.55-3.5,18.8a6.55,6.55,0,0,1-1.54,3.41,2.5,2.5,0,0,1-3.41.21c-.8-.86-.61-2.23-.23-3.34s.82-2,1.25-3.06c.63-1.51,1.16-3.06,1.64-4.63a76.69,76.69,0,0,0,2.2-9c.32-1.71.57-4.24,1.75-4.45C94.92,651.23,95,653.08,94.92,653.59Z"/><g class="cls-5"><path class="cls-6" d="M329.19,336.94s-17.87,42.94-65.27,58.84c0,0,63.47-34.84,63.47-101.48L326.2,314l-2.72,15.63Z"/></g><path class="cls-10" d="M85.22,188.83s32.29-32.46,83.79-34.12c61-2,101.43,34.12,101.43,34.12h14.09s-46.79-51-117.43-44.67c0,0-60.38,1-95.61,45.2Z"/><path class="cls-12" d="M178.76,319.31v44.86a146.21,146.21,0,0,1-14.06-15.09,93,93,0,0,1-8.53-13.1Z"/><path class="cls-2" d="M126,617.11s-6.88,14.12,5.34,17.35l-3-11.92,5.06-4.38Z"/><path class="cls-2" d="M223,618.73s5.81,9.35-2.59,15c1.86-7.2-1.93-14.15-1.93-14.15Z"/><g class="cls-5"><path class="cls-6" d="M54,414c6.55-5.78,15.14-8.77,23.66-10-7.16,2.87-14,7.16-18.73,13.34a4.9,4.9,0,0,0-.32.48L54,414Z"/></g><g class="cls-13"><path class="cls-7" d="M18.52,210.61H81s39.94-.56,60.85,14.78c28.85,21.17,37,41.73,37,41.73s12.76-25,32.94-38.07c30-19.41,61.76-18.44,61.76-18.44h66.7l4-5.17-87.21-.8s-52,1.5-77.46,59.57c0,0-8-15.86-12.1-20.09-22.52-23.5-28.14-44.65-131-39.12l-24.73-.36Z"/></g><path class="cls-14" d="M267.29,496c0,51.91-29,89.89-90.05,89.89-59.25,0-90.05-38-90.05-89.89s24-94.13,90.05-94C245.38,402.11,267.29,444.05,267.29,496Z"/><path d="M178.83,268.61a1.49,1.49,0,0,1-1.39-.94l-1.15-2.9c-15.27-37.08-44.22-49.26-44.51-49.39l-.11,0A88.83,88.83,0,0,0,91.74,206l-35.31.18h0a1.5,1.5,0,0,1,0-3L91.72,203A91.14,91.14,0,0,1,133,212.63c1.24.53,19.37,8.55,34.57,30l-7-17.7a51.54,51.54,0,0,0-47.2-33.63l-86.89-1.56L35.62,204a1.5,1.5,0,0,1-2.52,1.63L22.42,189a1.5,1.5,0,0,1,1.26-2.31h0l89.7,1.6a54.55,54.55,0,0,1,49.94,35.57l15.72,39.77c.4,1,.79,1.94,1.16,2.93a1.49,1.49,0,0,1-.86,1.93A1.44,1.44,0,0,1,178.83,268.61Z"/><polygon points="36.96 238.26 36.95 238.25 39.12 236.18 36.96 238.26"/><path d="M177.24,619.66C79.51,619.66,0,535,0,431A196.69,196.69,0,0,1,29.06,327.48a152.54,152.54,0,0,1,7.26-90L11.82,205.8a1.49,1.49,0,0,1-.17-1.57,1.51,1.51,0,0,1,1.34-.85l43.42-.22h0a1.5,1.5,0,0,1,0,3l-40.38.21L39.22,236.3a1.47,1.47,0,0,1,.2,1.48,149.58,149.58,0,0,0-7.3,89.64,1.47,1.47,0,0,1-.19,1.12A193.6,193.6,0,0,0,3,431C3,533.38,81.16,616.67,177.24,616.67S351.48,533.38,351.48,431a193.64,193.64,0,0,0-28.93-102.47,1.52,1.52,0,0,1-.19-1.12,149.51,149.51,0,0,0-6.24-86.94,1.5,1.5,0,0,1,.21-1.46l25.29-32.65L298,206.14a1.5,1.5,0,0,1,0-3h0l46.61.24a1.51,1.51,0,0,1,1.34.85,1.49,1.49,0,0,1-.16,1.57l-26.63,34.38a151,151,0,0,1,9.88,54,152.57,152.57,0,0,1-3.68,33.32A196.63,196.63,0,0,1,354.47,431C354.47,535,275,619.66,177.24,619.66Z"/><path d="M284.53,190.33a1.48,1.48,0,0,1-1.07-.45,148.87,148.87,0,0,0-212.4,0,1.5,1.5,0,0,1-2.14-2.1,151.86,151.86,0,0,1,216.68,0,1.5,1.5,0,0,1,0,2.12A1.48,1.48,0,0,1,284.53,190.33Z"/><path d="M178.83,268.61a1.47,1.47,0,0,1-.54-.1,1.5,1.5,0,0,1-.86-1.93c.28-.72.55-1.42.84-2.12l16-40.62a54.54,54.54,0,0,1,49.93-35.53l89.7-1.6a1.46,1.46,0,0,1,1.34.77,1.5,1.5,0,0,1-.05,1.54l-10.68,16.57A1.5,1.5,0,0,1,322,204l9.16-14.21-86.89,1.56a51.52,51.52,0,0,0-47.19,33.6l-7.12,18c15.27-21.62,33.47-29.77,34.68-30.29A91.25,91.25,0,0,1,265.49,203h.44l32.13.16a1.5,1.5,0,0,1,0,3h0L265.92,206h-.43A88.33,88.33,0,0,0,226,215.33l-.1,0c-.3.12-29.54,12.62-44.83,50.19l-.82,2.1A1.52,1.52,0,0,1,178.83,268.61Z"/><path d="M50.12,561.74a1.45,1.45,0,0,1-.92-.32,1.5,1.5,0,0,1-.25-2.1C49.23,559,77.18,522.9,75.49,478c-1-25.77-10.35-42.54-21.21-62C46.6,402.23,37.89,386.65,31,365.6a84.12,84.12,0,0,1-3.66-34.78,1.5,1.5,0,0,1,3,.43,82.83,82.83,0,0,0,3.54,33.42c6.77,20.77,15.41,36.22,23,49.85,11,19.76,20.58,36.83,21.58,63.32,1.74,46.07-26.89,83-27.18,83.33A1.47,1.47,0,0,1,50.12,561.74Z"/><path class="cls-1" d="M178.76,372.18a1.52,1.52,0,0,1-.93-.32c-.54-.43-13.17-10.54-22.23-23.56a55.86,55.86,0,0,1-7.11-13.37,1.52,1.52,0,0,1,.49-1.68l28.86-22.48a1.5,1.5,0,0,1,1.84,0l28.86,22.48a1.52,1.52,0,0,1,.49,1.68,55.8,55.8,0,0,1-7.12,13.38c-9,13-21.68,23.12-22.22,23.55A1.52,1.52,0,0,1,178.76,372.18ZM151.68,335a55.08,55.08,0,0,0,6.38,11.64c7.42,10.66,17.6,19.55,20.7,22.15,3.1-2.6,13.28-11.5,20.69-22.15A54.63,54.63,0,0,0,205.83,335l-27.07-21.1Z"/><path d="M1.6,438.7h0A1.5,1.5,0,0,1,.1,437.17c0-.85.59-20.79,12.26-29.83a1.5,1.5,0,1,1,1.84,2.37C3.66,417.87,3.1,437,3.1,437.24A1.5,1.5,0,0,1,1.6,438.7Z"/><path d="M9,486.87a1.49,1.49,0,0,1-1.48-1.27A44.1,44.1,0,0,1,21,449,1.5,1.5,0,1,1,23,451.2C7.75,465.67,10.48,485,10.51,485.15a1.48,1.48,0,0,1-1.25,1.7A.9.9,0,0,1,9,486.87Z"/><path d="M30.25,535.12A1.5,1.5,0,0,1,28.8,534c-.22-.83-5.24-20.3,4.38-32.55a1.5,1.5,0,0,1,2.36,1.85c-8.71,11.09-3.89,29.74-3.84,29.93a1.5,1.5,0,0,1-1.07,1.83A1.58,1.58,0,0,1,30.25,535.12Z"/><path d="M107.62,719.18a19.47,19.47,0,0,1-7.24-1.4L75.84,708a19.57,19.57,0,0,1-11.6-23c14-54.41,16.08-96.4,16.09-96.82a1.5,1.5,0,0,1,3,.14c0,.42-2.12,42.7-16.19,97.43A16.57,16.57,0,0,0,77,705.17L101.49,715a16.5,16.5,0,0,0,22-11,298.44,298.44,0,0,0,7.53-38.5,1.5,1.5,0,1,1,3,.4,299.54,299.54,0,0,1-7.61,38.9,19.5,19.5,0,0,1-18.8,14.33Z"/><path d="M241.66,723.06a19.5,19.5,0,0,1-18.8-14.33,302.94,302.94,0,0,1-7.61-38.9,1.5,1.5,0,0,1,3-.4,298.78,298.78,0,0,0,7.53,38.5,16.5,16.5,0,0,0,22,11l24.53-9.83a16.57,16.57,0,0,0,9.82-19.47c-14.07-54.74-16.17-97-16.19-97.43a1.48,1.48,0,0,1,1.43-1.56A1.51,1.51,0,0,1,269,592c0,.42,2.1,42.41,16.1,96.82a19.59,19.59,0,0,1-11.61,23l-24.53,9.83A19.56,19.56,0,0,1,241.66,723.06Z"/><path d="M213.12,742h-77c-10.71,0-19.11-5.51-19.11-12.55V714a1.5,1.5,0,0,1,3,0v15.43c0,5.18,7.38,9.55,16.11,9.55h77c8.73,0,16.11-4.37,16.11-9.55V717.86a1.5,1.5,0,0,1,3,0v11.59C232.23,736.49,223.84,742,213.12,742Z"/><g class="cls-15"><path d="M177.24,587.35c-56.47,0-91.55-35-91.55-91.39,0-30.94,8.61-55.89,24.91-72.15,15.52-15.49,37.83-23.34,66.32-23.34h.32c32.28.06,56.41,9.53,71.73,28.13,13.15,16,19.81,38.62,19.81,67.36C268.78,553.18,234.56,587.35,177.24,587.35Zm-.32-183.88c-27.66,0-49.26,7.55-64.2,22.46-15.72,15.69-24,39.9-24,70,0,54.52,33.93,88.39,88.55,88.39,55.44,0,88.55-33,88.55-88.39,0-61.25-29.8-92.37-88.56-92.49Z"/></g><path class="cls-16" d="M122.83,449.44c-4.71,75.24,56.48,110.74,56.48,110.74a50.3,50.3,0,0,1-13.32-.51,99.43,99.43,0,0,1-11.8-3.08c-43.38-29.1-43.94-82.87-43.94-82.87a62.51,62.51,0,0,1,12.58-24.28Z"/><path class="cls-16" d="M236.89,490.14c-8,60-52,69.53-52,69.53s-7.91-4.86-11.52-10.36c0,0,19.63-4.42,33.66-21.39,10.27-12.4,12.1-28.08,12.1-28.08a79.24,79.24,0,0,0-51.43-1.2s-1.78,2.43-.73,9.86c0,0-8.64-6.54-10.61-22.32,0,0,12.21-7.81,40.58-6.28C225.49,481.45,236.89,490.14,236.89,490.14Z"/><path d="M174.33,637.23a1.55,1.55,0,0,1-.83-.25l-32-21.26a1.5,1.5,0,1,1,1.66-2.5l29.67,19.71V618.14a1.5,1.5,0,0,1,3,0v17.59a1.5,1.5,0,0,1-1.5,1.5Z"/><path d="M174.33,637.23a1.59,1.59,0,0,1-.73-.19,1.52,1.52,0,0,1-.77-1.31V619.15a1.5,1.5,0,0,1,3,0V633l29.94-18.72a1.5,1.5,0,1,1,1.59,2.54L175.12,637A1.48,1.48,0,0,1,174.33,637.23Z"/><path d="M147.35,662.24a1.46,1.46,0,0,1-1-.38c-.09-.07-8.62-7.81-.21-21.1,2.86-4.52,5.55-8.24,14-15a1.5,1.5,0,1,1,1.86,2.35c-8.15,6.45-10.59,9.82-13.37,14.22-6,9.54-2.12,15.28-.75,16.83,23-1.8,24.83-22.68,24.89-23.57a1.52,1.52,0,0,1,1.61-1.39,1.5,1.5,0,0,1,1.38,1.61c0,.24-2.08,24.79-28.38,26.39Z"/><path d="M201.71,662.74h-.1c-26.3-1.61-28.36-26.15-28.38-26.4a1.5,1.5,0,0,1,3-.22c.07.92,1.91,21.78,24.9,23.58,1.36-1.55,5.29-7.29-.75-16.83-2.79-4.41-5.22-7.77-13.38-14.23a1.5,1.5,0,0,1,1.86-2.35c8.51,6.73,11.19,10.45,14.05,15,8.41,13.29-.12,21-.2,21.11A1.52,1.52,0,0,1,201.71,662.74Z"/><path d="M141.33,651a10.91,10.91,0,0,1-8.08-3.67.86.86,0,0,0-.07-.1c-8.85-13,12.88-29.59,13.81-30.28a1.5,1.5,0,1,1,1.8,2.39c-.2.16-20.31,15.45-13.17,26.14a7.88,7.88,0,0,0,8.2,2.16,1.5,1.5,0,0,1,.82,2.88A12,12,0,0,1,141.33,651Z"/><path d="M208.07,652.5a12.58,12.58,0,0,1-3.5-.52,1.5,1.5,0,1,1,.83-2.88c5.16,1.48,7.65-1.68,7.67-1.71,7.21-10.63-13-26-13.18-26.14a1.5,1.5,0,0,1,1.8-2.4c.93.7,22.66,17.24,13.81,30.28A9.49,9.49,0,0,1,208.07,652.5Z"/><path d="M133.84,636.25a1.37,1.37,0,0,1-.34,0,10.29,10.29,0,0,1-5-2.71c-7.37-8.49,6.54-21,7.14-21.48a1.5,1.5,0,0,1,2,2.25c-.12.11-12.29,11-6.88,17.24h0a7.57,7.57,0,0,0,3.41,1.78,1.5,1.5,0,0,1-.34,3Z"/><path d="M215.16,637.4a1.5,1.5,0,0,1-.33-3,7.35,7.35,0,0,0,3.43-1.81c5.4-6.22-6.42-17.06-6.54-17.17a1.5,1.5,0,0,1,2-2.22c.58.52,14.11,12.93,6.77,21.39a10.22,10.22,0,0,1-5,2.73A1.27,1.27,0,0,1,215.16,637.4Z"/><path d="M149,653.5a3.08,3.08,0,0,1,.42,4.92,10.09,10.09,0,0,0-.91.93c-1.53,1.8-2,4.15-1.26,7.33a8.13,8.13,0,0,1-2.6-3,9.88,9.88,0,0,1,.09-9.11,3,3,0,0,1,4.23-1.12Z"/><path d="M137.69,641.33a3.06,3.06,0,0,1,.42,4.91,10,10,0,0,0-.9.93c-1.54,1.8-2,4.15-1.27,7.33a8.14,8.14,0,0,1-2.6-3,9.88,9.88,0,0,1,.09-9.11,3,3,0,0,1,4.24-1.13Z"/><path d="M130.6,627.31a2.3,2.3,0,0,1,.31,3.69,9.05,9.05,0,0,0-.67.7c-1.16,1.36-1.51,3.13-1,5.51a6.09,6.09,0,0,1-2-2.22,7.39,7.39,0,0,1,.07-6.85,2.26,2.26,0,0,1,3.18-.84Z"/><path d="M200.53,653.06a3.06,3.06,0,0,0-.43,4.91,9,9,0,0,1,.91.93c1.53,1.8,2,4.15,1.26,7.33a8,8,0,0,0,2.6-3,9.9,9.9,0,0,0-.09-9.12,3,3,0,0,0-4.23-1.12Z"/><path d="M211.79,640.88a3.06,3.06,0,0,0-.42,4.91,11.66,11.66,0,0,1,.9.94c1.54,1.79,2,4.15,1.27,7.32a8.14,8.14,0,0,0,2.6-2.95,9.88,9.88,0,0,0-.09-9.11,3,3,0,0,0-4.24-1.13Z"/><path d="M218.88,626.86a2.3,2.3,0,0,0-.31,3.69,7.71,7.71,0,0,1,.67.71c1.16,1.35,1.51,3.12,1,5.5a6.11,6.11,0,0,0,2-2.21,7.41,7.41,0,0,0-.07-6.86,2.26,2.26,0,0,0-3.18-.84Z"/><g class="cls-15"><path d="M237.55,325.38A44.88,44.88,0,1,1,282.3,280.5,44.86,44.86,0,0,1,237.55,325.38Zm0-86.77A41.89,41.89,0,1,0,279.3,280.5,41.87,41.87,0,0,0,237.55,238.61Z"/><path d="M237.55,305.63A25.13,25.13,0,1,1,262.6,280.5,25.13,25.13,0,0,1,237.55,305.63Zm0-47.26a22.13,22.13,0,1,0,22.06,22.13A22.12,22.12,0,0,0,237.55,258.37Z"/></g><path class="cls-16" d="M126.3,445.56v14.18s23.07-14.81,49.4-14.67c23.68.13,37.57,5.85,48.26,13.27C226,464.2,223,471.9,223,471.9s6.44-1.95,9.59-7.49a32.11,32.11,0,0,0,3.77-12.77s-14.81-21.93-59.5-22.62C144.25,428.51,126.3,445.56,126.3,445.56Z"/><ellipse class="cls-17" cx="122.13" cy="282.63" rx="39.23" ry="38.03"/><ellipse class="cls-18" cx="122.13" cy="282.63" rx="25.12" ry="24.35"/><path class="cls-7" d="M90.54,278a9.19,9.19,0,1,0,9.19-8.91A9.06,9.06,0,0,0,90.54,278Z"/><ellipse class="cls-17" cx="236.89" cy="282.63" rx="39.23" ry="38.03"/><ellipse class="cls-18" cx="236.89" cy="282.63" rx="25.12" ry="24.35"/><path class="cls-7" d="M268.48,278a9.19,9.19,0,1,1-9.19-8.91A9.05,9.05,0,0,1,268.48,278Z"/><g class="cls-5"><path class="cls-6" d="M321.16,467.93c-4.93-21.25-14.27-38.5-32.52-51.09a116.46,116.46,0,0,0-18.39-10.37,55.12,55.12,0,0,1,20.85,6.35c20,10.22,32.46,32.8,30.06,55.11Z"/></g><g id="Rect치ngulo_13927" data-name="Rect치ngulo 13927"><rect class="cls-19" x="380.13" y="21.06" width="496.88" height="108.69" rx="14.35"/></g><g id="Rect치ngulo_13927-2" data-name="Rect치ngulo 13927"><rect class="cls-16" x="591.2" y="153.46" width="285.8" height="86.24" rx="10.65"/></g><path class="cls-7" d="M411.27,75.76c0-21.17,16.2-36.35,38.08-36.38,12.14,0,22.28,4.37,28.92,12.39l-10.42,9.65a22.62,22.62,0,0,0-17.68-8.2c-13.14,0-22.46,9.27-22.44,22.51s9.37,22.46,22.52,22.44a22.39,22.39,0,0,0,17.65-8.36l10.45,9.62c-6.61,8.14-16.74,12.57-29,12.59C427.59,112.05,411.31,96.93,411.27,75.76Z"/><path class="cls-7" d="M483.32,75.64c0-20.87,16.2-36.35,38.38-36.38s38.46,15.29,38.49,36.26-16.29,36.35-38.37,36.38S483.36,96.51,483.32,75.64Zm60.42-.1c0-13.34-9.47-22.46-22-22.44s-22,9.17-21.94,22.52,9.47,22.46,22,22.43S543.76,88.89,543.74,75.54Z"/><path class="cls-7" d="M636.42,110.51l-.17-42.14-20.62,34.75h-7.32L587.68,69.35l.07,41.24-15.26,0-.11-70.23,13.45,0L612.19,84,638,40.27l13.35,0,.31,70.24Z"/><path class="cls-7" d="M668.22,40.22l16.25,0,.12,70.23-16.26,0Z"/><path class="cls-7" d="M765.56,40.07l.11,70.23-13.35,0L717.23,67.74l.07,42.64-16.06,0-.11-70.24,13.45,0,35,42.58-.07-42.64Z"/><path class="cls-7" d="M829.74,74l14.85,0,0,28.5c-7.72,5.83-18.35,9-28.39,9-22.08,0-38.36-15.09-38.39-36.26s16.19-36.34,38.57-36.38c12.35,0,22.59,4.18,29.42,12.09l-10.42,9.65a23.76,23.76,0,0,0-18.17-7.9c-13.65,0-23,9.17-23,22.52,0,13.14,9.37,22.46,22.82,22.43a25.66,25.66,0,0,0,12.64-3Z"/><path class="cls-7" d="M617.57,218.34l4.23-9.41a31.71,31.71,0,0,0,17.81,5.6c7.4,0,10.41-2.47,10.4-5.79,0-10.1-31.38-3.12-31.4-23.17,0-9.17,7.38-16.81,22.72-16.83,6.79,0,13.73,1.61,18.74,4.76L656.23,183a30.5,30.5,0,0,0-15-4.23c-7.4,0-10.25,2.79-10.25,6.18,0,9.95,31.38,3.05,31.4,22.86,0,9-7.45,16.74-22.87,16.75C631,224.56,622.35,222,617.57,218.34Z"/><path class="cls-7" d="M667.58,196.62c0-16,12.46-27.92,29.49-27.94s29.54,11.76,29.56,27.87-12.53,27.92-29.49,27.94S667.6,212.65,667.58,196.62Zm46.41-.05c0-10.26-7.27-17.26-16.9-17.25s-16.88,7-16.87,17.28,7.27,17.26,16.9,17.25S714,206.82,714,196.57Z"/><path class="cls-7" d="M732.65,196.54c0-16,12.46-27.91,29.49-27.93s29.54,11.76,29.56,27.87-12.53,27.92-29.49,27.94S732.67,212.58,732.65,196.54Zm46.41,0c0-10.25-7.27-17.26-16.91-17.25s-16.87,7-16.86,17.29,7.27,17.26,16.9,17.25S779.07,206.75,779.06,196.49Z"/><path class="cls-7" d="M850.57,169.43l.07,54H840.38l-26.94-32.73,0,32.76-12.33,0-.06-54h10.33l26.86,32.73,0-32.76Z"/><path class="cls-4" d="M821.87,6H380.13a3,3,0,0,1,0-6H821.87a3,3,0,0,1,0,6Z"/><path class="cls-4" d="M877,6H850.13a3,3,0,0,1,0-6H877a3,3,0,0,1,0,6Z"/><path class="cls-4" d="M877,261.53H622.91a3,3,0,0,1,0-6H877a3,3,0,1,1,0,6Z"/><path class="cls-4" d="M606.66,261.53H591.2a3,3,0,0,1,0-6h15.46a3,3,0,0,1,0,6Z"/></svg>