 <svg
    id="Capa_1"
    data-name="Capa 1"
    xmlns="http://www.w3.org/2000/svg"
    viewBox="0 0 354 599"
>
    <defs>
    <style>
        .cls-1 {
        fill: #725514;
        }
        .cls-2 {
        fill: #fbbb10;
        }
        .cls-3 {
        opacity: 0.6;
        }
        .cls-4 {
        fill: #d89a0f;
        }
        .cls-5 {
        fill: #fff;
        }
        .cls-6 {
        fill: #33230a;
        }
        .cls-7 {
        fill: #a0752a;
        }
        .cls-8 {
        fill: #4f3810;
        }
        .cls-9 {
        fill: #8e681c;
        }
        .cls-10 {
        fill: #ffcd5c;
        }
        .cls-11 {
        fill: #4f3912;
        }
        .cls-12 {
        fill: #936f2e;
        }
        .cls-13 {
        opacity: 0.38;
        }
        .cls-14 {
        fill: #ffd685;
        }
        .cls-15 {
        opacity: 0;
        }
        .cls-16 {
        fill: #430e6b;
        }
        .cls-17 {
        fill: #daa520;
        }
        .cls-18 {
        fill: #411f0a;
        }
    </style>
    </defs>
    <path
    class="cls-1"
    d="M81.71,445.37,77,493,65,546.6s-4.6,16,26.27,23l14,5.1,13-3.66.26,17.31,4.39,5.58,8.53,3.56H215.8l10.65-4.06,3.74-5.23.22-13.33,6.15,3.06,8.13.32,30-11.82,6.4-6.15L283.77,550l-7.39-33.47-5.87-34.27-3.44-33Z"
    />
    <path
    class="cls-2"
    d="M324.34,62.94l21.36.11-27.11,35a149.61,149.61,0,0,1,10.07,54.17c0,11.53-2.15,21.59-4.61,32.38A199.56,199.56,0,0,1,354,288.92c0,103.25-78.57,186.94-175.49,186.94S3,392.17,3,288.92A194.84,194.84,0,0,1,32.14,185.78,151,151,0,0,1,39.5,95.35l-25-32.3,21.31-.11L25.15,46.39,71.39,47S112.44-1.85,191.3,2.06c0,0,52.56,2.67,93.64,44.27L334.6,47Z"
    />
    <path
    class="cls-1"
    d="M50.06,417.45s28.55-36.25,26.82-82.26c-1.69-44.63-28.07-62.31-44.47-112.63a83.34,83.34,0,0,1-3.59-34.06S-44.27,307.78,50.06,417.45Z"
    />
    <path
    class="cls-1"
    d="M303.67,417.45s-28.55-36.25-26.82-82.26c1.69-44.63,28.07-62.31,44.47-112.63a83.34,83.34,0,0,0,3.59-34.06S400.7,307.94,303.67,417.45Z"
    />
    <g class="cls-3">
    <path
        class="cls-4"
        d="M303.25,140.15c0,43.25-33.83,78.32-75.55,78.32s-75.55-35.07-75.55-78.32c44.12,11.65,49.46-30.73,67.78-73.63C261.65,66.52,303.25,96.89,303.25,140.15Z"
    />
    </g>
    <g class="cls-3">
    <path
        class="cls-4"
        d="M56.23,140.15c0,43.25,33.82,78.32,75.55,78.32s75.54-35.07,75.54-78.32c-44.11,11.65-50.64-26.95-69-69.85C96.64,70.3,56.23,96.89,56.23,140.15Z"
    />
    </g>
    <path
    class="cls-5"
    d="M297.36,136.68c0,39.81-31.7,72.08-70.8,72.08a69.44,69.44,0,0,1-25.6-4.87A51.72,51.72,0,0,0,208,191.33l-29.46-21.71-29.45,21.71a51.68,51.68,0,0,0,7.07,12.56,69.4,69.4,0,0,1-25.6,4.87c-39.1,0-70.79-32.27-70.79-72.08,0-38.22,29-66.06,65.91-68.47C151.19,79.5,171.09,99,178.58,124.65c7.5-25.62,28.47-45.15,53.94-56.44C269.48,70.61,297.36,98.45,297.36,136.68Z"
    />
    <polygon
    class="cls-1"
    points="149.13 191.32 178.58 169.62 208.04 191.32 194.53 213.31 179.06 227.88 161.55 211.63 149.13 191.32"
    />
    <path
    class="cls-1"
    d="M34.31,62.38,23.65,45.83,123,47.51l17.4,7.86,12.7,11.47s6.95,6.22,18.73,41.3c0,0-27.89-45.19-74.43-45.89Z"
    />
    <path
    class="cls-1"
    d="M185.46,108.14l12.2-32.28s11.79-27.22,45.47-28.07l90-1.33L322.84,62.38l-62.23-.29S216.75,60.71,185.46,108.14Z"
    />
    <polygon
    class="cls-6"
    points="174.48 475.28 174.48 493.02 142.13 471.61 174.48 475.28"
    />
    <polygon
    class="cls-6"
    points="174.48 493.02 205.65 473.1 180.26 476.24 174.48 475.28 174.48 493.02"
    />
    <path
    class="cls-7"
    d="M135.52,470.05l-8.4,13,1.81,6.15,3.47,2.27.24,9.48,3.83,4.75,7.68,1.69,1.31,9.55,6.36.18s17.53-2.28,22.66-24.11l3.44,12.88s10.67,14.88,25.08,11.93c0,0,2.9.14,1.31-10.43,0,0,8.14,1.87,10.29-3.56s-.56-11.2-.56-11.2,9.15.34,6.12-10.32l-7.73-10.71-8.87,1.91-28.63,18.35-2.43-.38L140,471.15Z"
    />
    <path
    class="cls-8"
    d="M296.71,406.62s31.93-10.11,23.49-46.46l4.4,10.62v17.65l-8.82,14.35-12.11,14.67Z"
    />
    <path
    class="cls-8"
    d="M324.6,368.3a47.8,47.8,0,0,0,15-32.93c.56-13.9-2-22.57-2-22.57l5.79,13.44L345.86,337l-7.16,26-14.1,25.41Z"
    />
    <path
    class="cls-8"
    d="M339,316s7.68-11.44,5.09-32.53c-1.62-13.17-3.25-17.68-3.25-17.68s7,3.51,10.5,19.55l1.11,7.93-2,23.63-4.95,18.9-3.31-14.77Z"
    />
    <path
    class="cls-8"
    d="M344.1,268.78s-.62-43.79-18.38-74c-.37-2.82,1.11-3.6-1.09-8.5l9.06,16.23,11.88,32.59,5.2,27.07,2,21.35-4.59-9.74Z"
    />
    <path
    class="cls-9"
    d="M301.06,414.39a146,146,0,0,1-9.37-28.49c-6.18-29.47-5.86-46.56-3.09-62.46,4.76-27.34,24.22-49.89,32.53-82.25,6.2-24.13,3.47-34.24,3.47-34.24l-5.78,22.27-16,35.12-14.32,26.47S255.06,346,301.06,414.39Z"
    />
    <path
    class="cls-8"
    d="M57,407.32s-29.32-16.47-22.9-47L29.71,371v17.64L38.53,403l12.1,14.66Z"
    />
    <path
    class="cls-8"
    d="M31.06,365.38s-12.5-11.17-13.19-32.31C17.31,316,21.75,308,21.75,308l-7.18,9.31-6.12,19.9,7.16,26,12.08,22.95Z"
    />
    <path
    class="cls-8"
    d="M14.57,317.26s-7.38-13-6.12-27.33A106,106,0,0,1,13.5,266s-7,3.5-10.5,19.55l-1.11,7.93,2,23.63,5,18.9Z"
    />
    <path
    class="cls-8"
    d="M11.7,267s-.07-31.31,17.69-61.55c.35-8-2.19-11.86,0-16.76l-9.06,16.23L8.45,237.49,3.26,264.56l-2,21.34,4.59-9.74Z"
    />
    <path
    class="cls-9"
    d="M53.24,414.56a145.87,145.87,0,0,0,9.38-28.49c6.17-29.48,5.85-46.57,3.09-62.46C61,296.27,41.49,273.72,33.17,241.36c-6.2-24.14-3.46-34.24-3.46-34.24l5.78,22.27,16,35.11L65.82,291S99.25,346.21,53.24,414.56Z"
    />
    <g class="cls-3">
    <path
        class="cls-4"
        d="M27.8,197s14.94,40.27,62.28,56.16c0,0-63.39-34.8-63.39-101.37l1.19,19.71,2.72,15.62Z"
    />
    </g>
    <g class="cls-3">
    <path
        class="cls-4"
        d="M57,407.32s39,49.68,113.12,50c89.53.35,126.58-50.67,126.58-50.67l6.63,11.48s-49.26,60.85-136,56.38c-75-4.19-117.32-57-117.32-57Z"
    />
    </g>
    <path
    class="cls-10"
    d="M213.75,23.48a30.21,30.21,0,0,1,8.68,1.91A30.39,30.39,0,0,1,226,26.81a16.06,16.06,0,0,1,5.46,4.42,3.71,3.71,0,0,1,.8,1.45,1.49,1.49,0,0,1-.48,1.5,2.06,2.06,0,0,1-.94.31c-3,.36-6-.79-9-.35-1.43.21-3,.77-4.26.14a5,5,0,0,1-1.68-1.6c-1.6-2.14-3.17-4.5-5.61-5.57a4.37,4.37,0,0,1-1.4-.74c-.39-.36-.7-1.22,1-2.26A12.29,12.29,0,0,1,213.75,23.48Z"
    />
    <path
    class="cls-11"
    d="M30.9,57.09H94.4a79.74,79.74,0,0,1,57.8,24.8l15,19.79s-31-42.42-81.83-39.59l-51.09.29Z"
    />
    <path
    class="cls-11"
    d="M326.93,57.09h-63.5a79.74,79.74,0,0,0-57.8,24.8L190,101.68s31.61-42.42,82.41-39.59l51.09.29Z"
    />
    <path
    class="cls-9"
    d="M78.86,564.62l22.62,2.91A17.72,17.72,0,0,0,120.4,556l10.47-32.21L127.78,554l-5.72,13.19-8.69,6.47H102.55Z"
    />
    <path
    class="cls-9"
    d="M268.91,567.82l-22.62,2.9a17.72,17.72,0,0,1-18.92-11.55L216.9,527l5,29.76,3.81,13.72,8.69,6.47h10.82Z"
    />
    <path
    class="cls-8"
    d="M125.67,559.65s-4.06,23.77-.21,28.49c6.53,8,44.84,8,44.84,8l-38.79,1.36-10.29-5-2.89-7V571.05Z"
    />
    <path
    class="cls-8"
    d="M223.48,563.77s4.06,21.19.21,25.39c-6.52,7.13-44.83,7.13-44.83,7.13l38.78,1.21,10.29-4.43,2.9-6.24V573.92Z"
    />
    <path
    class="cls-8"
    d="M80.66,457s6.76,5.93,24.2,12.19a243.71,243.71,0,0,0,26,7.48l5.6-7L99.81,457.52,81.65,445.94Z"
    />
    <path
    class="cls-8"
    d="M268.23,458.71A191.87,191.87,0,0,1,244,470.55c-10.31,4.16-26,7.91-26,7.91l-5.6-7,36.66-12.17,18.15-11.58Z"
    />
    <path
    class="cls-9"
    d="M78.2,529.35A61.59,61.59,0,0,0,75,536.08a38.61,38.61,0,0,0-1.58,9.38c-.15,1.81-.09,4,1.5,4.9s3.88-.65,4.47-2.52.17-3.87.16-5.82c0-4.13,1.78-8,3.13-11.9.8-2.29,5.41-18.52,2-18.52S79.43,526.87,78.2,529.35Z"
    />
    <path
    class="cls-9"
    d="M94.79,510.69c-.3,6.37-2.15,12.54-3.49,18.77a6.45,6.45,0,0,1-1.55,3.41,2.49,2.49,0,0,1-3.4.21c-.8-.85-.61-2.22-.23-3.33s.82-2,1.25-3.06c.63-1.51,1.16-3.06,1.64-4.62a79.11,79.11,0,0,0,2.2-9c.31-1.72.57-4.24,1.74-4.45C94.79,508.33,94.82,510.18,94.79,510.69Z"
    />
    <g class="cls-3">
    <path
        class="cls-4"
        d="M325.82,197s-14.94,40.27-62.27,56.16c0,0,63.38-34.8,63.38-101.37l-1.19,19.71L323,187.13Z"
    />
    </g>
    <path
    class="cls-10"
    d="M85.1,46.46S117.34,14,168.77,12.38c60.87-2,101.29,34.08,101.29,34.08h14.07S237.41-4.49,166.87,1.84c0,0-60.3,1-95.48,45.14Z"
    />
    <path
    class="cls-12"
    d="M178.51,176.78v44.81a147.59,147.59,0,0,1-14-15.06A93.67,93.67,0,0,1,156,193.44Z"
    />
    <path
    class="cls-8"
    d="M125.83,474.24s-6.87,14.11,5.34,17.34l-3-11.91,5-4.37Z"
    />
    <path
    class="cls-8"
    d="M222.64,475.86s5.81,9.34-2.58,15c1.86-7.19-1.92-14.14-1.92-14.14Z"
    />
    <g class="cls-3">
    <path
        class="cls-4"
        d="M53.92,271.33c6.55-5.77,15.12-8.76,23.63-10-7.15,2.87-14,7.16-18.7,13.32a3.31,3.31,0,0,0-.31.48l-4.62-3.82Z"
    />
    </g>
    <g class="cls-3">
    <path
        class="cls-4"
        d="M294.75,276.63c-4-5.62-10-9.66-16.16-12.58-.94-.43-1.9-.81-2.86-1.22,1,.17,2.06.31,3.09.51,7.41,1.49,14.81,4.38,20.54,9.47l-4.61,3.82Z"
    />
    </g>
    <g class="cls-13">
    <path
        class="cls-5"
        d="M18.49,68.21h62.4s39.88-.56,60.76,14.76c28.82,21.14,36.93,41.68,36.93,41.68s12.75-25,32.9-38c29.93-19.39,61.66-18.42,61.66-18.42h66.61l4-5.17-87.09-.79s-51.9,1.49-77.35,59.5c0,0-8-15.84-12.08-20.07C144.74,78.21,139.12,57.09,36.36,62.61l-24.7-.36Z"
    />
    </g>
    <path
    class="cls-14"
    d="M266.91,353.24c0,51.85-29,89.78-89.92,89.78-59.17,0-89.92-37.93-89.92-89.78s24-94,89.92-93.89C245,259.49,266.91,301.38,266.91,353.24Z"
    />

    <polygon points="36.93 95.86 36.92 95.84 39.04 93.73 36.93 95.86" />
    <path
    d="M177,476.8C79.4,476.8,0,392.27,0,288.36A196.45,196.45,0,0,1,29,185,152.52,152.52,0,0,1,36.27,95L11.8,63.41A1.5,1.5,0,0,1,13,61l43.36-.22h0a1.5,1.5,0,0,1,0,3L16,64l23.14,29.9a1.49,1.49,0,0,1,.2,1.48,149.56,149.56,0,0,0-7.29,89.54,1.48,1.48,0,0,1-.19,1.12A193.42,193.42,0,0,0,3,288.36C3,390.61,81.05,473.8,177,473.8s174-83.19,174-185.44A193.45,193.45,0,0,0,322.1,186a1.48,1.48,0,0,1-.19-1.12A149.53,149.53,0,0,0,315.68,98a1.51,1.51,0,0,1,.21-1.46L341.13,64l-43.5-.22a1.5,1.5,0,0,1,0-3h0l46.55.24a1.49,1.49,0,0,1,1.17,2.42L318.78,97.75A152.5,152.5,0,0,1,325,185a196.45,196.45,0,0,1,29,103.41C354,392.27,274.58,476.8,177,476.8Z"
    />
    <path
    d="M284.13,48a1.48,1.48,0,0,1-1.07-.45,148.65,148.65,0,0,0-212.1,0,1.5,1.5,0,0,1-2.14-2.1,151.63,151.63,0,0,1,216.38,0A1.49,1.49,0,0,1,284.13,48Z"
    />

    <path
    d="M50.06,419a1.51,1.51,0,0,1-1.18-2.43c.28-.36,28.19-36.38,26.5-81.27-1-25.74-10.33-42.5-21.17-61.9C46.54,259.62,37.84,244.05,31,223a84.32,84.32,0,0,1-3.66-34.74,1.5,1.5,0,1,1,3,.43,82.63,82.63,0,0,0,3.54,33.38c6.76,20.75,15.38,36.18,23,49.8,11,19.74,20.55,36.79,21.55,63.25,1.73,46-26.86,82.87-27.14,83.23A1.51,1.51,0,0,1,50.06,419Z"
    />
    <path
    d="M303.67,419a1.51,1.51,0,0,1-1.18-.58c-.28-.36-28.87-37.21-27.14-83.23,1-26.46,10.53-43.51,21.55-63.25,7.61-13.62,16.23-29,23-49.8a82.63,82.63,0,0,0,3.54-33.38,1.5,1.5,0,1,1,3-.43A84.32,84.32,0,0,1,322.74,223c-6.85,21-15.55,36.6-23.22,50.33-10.84,19.4-20.2,36.16-21.17,61.9-1.69,44.89,26.22,80.91,26.5,81.27a1.51,1.51,0,0,1-1.18,2.43Z"
    />
    <path
    class="cls-1"
    d="M178.51,229.6a1.47,1.47,0,0,1-.93-.33c-.54-.42-13.15-10.52-22.19-23.52a56,56,0,0,1-7.11-13.36,1.52,1.52,0,0,1,.49-1.68l28.82-22.45a1.47,1.47,0,0,1,1.84,0l28.82,22.45a1.52,1.52,0,0,1,.49,1.68,56,56,0,0,1-7.11,13.36c-9,13-21.65,23.1-22.19,23.52A1.47,1.47,0,0,1,178.51,229.6Zm-27-37.19A54.14,54.14,0,0,0,157.84,204c7.41,10.64,17.57,19.53,20.67,22.13,3.1-2.6,13.26-11.49,20.66-22.12a54.51,54.51,0,0,0,6.37-11.63l-27-21.07Z"
    />
    <path
    d="M1.6,296h0A1.5,1.5,0,0,1,.1,294.51c0-.84.59-20.76,12.25-29.79a1.49,1.49,0,1,1,1.83,2.36C3.66,275.24,3.1,294.39,3.1,294.58A1.5,1.5,0,0,1,1.6,296Z"
    />
    <path
    d="M9,344.16a1.49,1.49,0,0,1-1.48-1.27,44.07,44.07,0,0,1,13.4-36.53A1.5,1.5,0,0,1,23,308.53c-15.21,14.41-12.53,33.71-12.5,33.91a1.49,1.49,0,0,1-1.25,1.7Z"
    />
    <path
    d="M30.21,392.35a1.49,1.49,0,0,1-1.45-1.11c-.22-.82-5.24-20.28,4.38-32.51a1.5,1.5,0,0,1,2.36,1.85c-8.69,11.05-3.89,29.7-3.84,29.89a1.5,1.5,0,0,1-1.07,1.83A1.24,1.24,0,0,1,30.21,392.35Z"
    />
    <path
    d="M352.48,296a1.5,1.5,0,0,1-1.5-1.47c0-.19-.57-19.34-11.09-27.49a1.5,1.5,0,0,1,1.84-2.37c11.66,9,12.23,28.95,12.25,29.79a1.51,1.51,0,0,1-1.47,1.54Z"
    />
    <path
    d="M345.06,344.07h-.23a1.51,1.51,0,0,1-1.26-1.71c0-.19,2.72-19.49-12.49-33.91a1.5,1.5,0,1,1,2.06-2.17,44.08,44.08,0,0,1,13.4,36.53A1.49,1.49,0,0,1,345.06,344.07Z"
    />
    <path
    d="M323.87,392.27a1.74,1.74,0,0,1-.39,0,1.5,1.5,0,0,1-1.06-1.83c.05-.19,4.85-18.84-3.84-29.9a1.5,1.5,0,0,1,2.36-1.85c9.61,12.24,4.59,31.69,4.38,32.51A1.51,1.51,0,0,1,323.87,392.27Z"
    />
    <path
    d="M107.47,576.2a19.44,19.44,0,0,1-7.23-1.39L75.74,565a19.56,19.56,0,0,1-11.59-23c14-54.35,16-96.29,16.07-96.71a1.5,1.5,0,0,1,3,.14c0,.42-2.12,42.65-16.17,97.32a16.55,16.55,0,0,0,9.81,19.45L101.35,572a16.49,16.49,0,0,0,22-10.94,299.21,299.21,0,0,0,7.52-38.46,1.5,1.5,0,1,1,3,.41,302.16,302.16,0,0,1-7.6,38.85,19.47,19.47,0,0,1-18.78,14.31Z"
    />
    <path
    d="M241.32,580.08a19.51,19.51,0,0,1-18.78-14.32A302,302,0,0,1,215,526.91a1.48,1.48,0,0,1,1.28-1.68,1.51,1.51,0,0,1,1.69,1.28A297.8,297.8,0,0,0,225.43,565a16.47,16.47,0,0,0,22,10.94l24.5-9.82a16.54,16.54,0,0,0,9.8-19.45c-14.05-54.67-16.14-96.89-16.16-97.31a1.5,1.5,0,1,1,3-.14c0,.42,2.11,42.36,16.08,96.71a19.55,19.55,0,0,1-11.59,23l-24.5,9.82A19.47,19.47,0,0,1,241.32,580.08Z"
    />
    <path
    d="M212.82,599H135.91c-10.7,0-19.08-5.5-19.08-12.53V571.05a1.5,1.5,0,0,1,3,0v15.42c0,5.17,7.36,9.53,16.08,9.53h76.91c8.72,0,16.09-4.36,16.09-9.53V574.88a1.5,1.5,0,0,1,3,0v11.59C231.91,593.5,223.52,599,212.82,599Z"
    />
    <g class="cls-15">
    <path
        d="M177,444.52c-56.39,0-91.42-35-91.42-91.28,0-30.92,8.61-55.85,24.9-72.1,15.49-15.45,37.77-23.29,66.2-23.29H177c32.24.07,56.34,9.52,71.63,28.1,13.13,15.94,19.79,38.58,19.79,67.29C268.41,410.39,234.23,444.52,177,444.52Zm-.32-183.67c-27.61,0-49.17,7.54-64.09,22.42-15.71,15.66-24,39.86-24,70,0,54.45,33.88,88.28,88.42,88.28,55.37,0,88.42-33,88.42-88.28,0-61.19-29.75-92.27-88.42-92.39Z"
    />
    </g>
    <path
    class="cls-16"
    d="M122.66,306.77c-4.7,75.15,56.4,110.61,56.4,110.61a50.15,50.15,0,0,1-13.3-.51A99.88,99.88,0,0,1,154,413.8C110.66,384.73,110.1,331,110.1,331a62.44,62.44,0,0,1,12.56-24.25Z"
    />
    <path
    class="cls-16"
    d="M236.56,347.43c-8,59.91-51.94,69.44-51.94,69.44s-7.91-4.85-11.51-10.34c0,0,19.6-4.42,33.61-21.37,10.25-12.39,12.09-28.05,12.09-28.05a79.18,79.18,0,0,0-51.36-1.2s-1.78,2.43-.73,9.85c0,0-8.63-6.53-10.59-22.29,0,0,12.18-7.81,40.52-6.27C225.17,338.74,236.56,347.43,236.56,347.43Z"
    />
    <path
    d="M174.09,494.35a1.48,1.48,0,0,1-.83-.26l-32-21.23a1.5,1.5,0,1,1,1.66-2.49l29.63,19.68V475.28a1.5,1.5,0,0,1,3,0v17.57a1.5,1.5,0,0,1-.8,1.32A1.46,1.46,0,0,1,174.09,494.35Z"
    />
    <path
    d="M174.09,494.35a1.59,1.59,0,0,1-.73-.19,1.5,1.5,0,0,1-.77-1.31V476.29a1.5,1.5,0,0,1,3,0v13.85l29.89-18.7a1.5,1.5,0,1,1,1.59,2.54l-32.19,20.14A1.51,1.51,0,0,1,174.09,494.35Z"
    />
    <path
    d="M147.14,519.33a1.53,1.53,0,0,1-1-.38c-.08-.07-8.6-7.81-.2-21.08,2.85-4.51,5.53-8.23,14-14.95a1.5,1.5,0,0,1,1.86,2.35c-8.14,6.44-10.58,9.8-13.36,14.2-6,9.49-2.08,15.27-.74,16.82,23-1.81,24.78-22.66,24.85-23.55a1.5,1.5,0,1,1,3,.21c0,.25-2.08,24.77-28.34,26.37Z"
    />
    <path
    d="M201.42,519.83h-.09C175.07,518.22,173,493.71,173,493.46a1.5,1.5,0,0,1,3-.22c.07.92,1.9,21.75,24.86,23.55,1.35-1.55,5.28-7.28-.75-16.81-2.78-4.4-5.22-7.77-13.36-14.21a1.5,1.5,0,1,1,1.86-2.35c8.5,6.72,11.17,10.44,14,14.95,8.4,13.28-.12,21-.21,21.09A1.48,1.48,0,0,1,201.42,519.83Z"
    />
    <path
    d="M141.13,508.12a10.77,10.77,0,0,1-8.06-3.67l-.08-.1c-8.84-13,12.87-29.55,13.79-30.24a1.5,1.5,0,1,1,1.81,2.39c-.21.15-20.28,15.43-13.16,26.11a7.91,7.91,0,0,0,8.19,2.15,1.5,1.5,0,0,1,.82,2.88A11.93,11.93,0,0,1,141.13,508.12Z"
    />
    <path
    d="M207.78,509.6a12.46,12.46,0,0,1-3.49-.52,1.49,1.49,0,1,1,.82-2.87c5.08,1.45,7.56-1.6,7.67-1.73,7.2-10.62-13-25.94-13.17-26.09a1.5,1.5,0,1,1,1.8-2.4c.93.7,22.63,17.22,13.79,30.25A9.47,9.47,0,0,1,207.78,509.6Z"
    />
    <path
    d="M133.66,493.37a2,2,0,0,1-.34,0,10.32,10.32,0,0,1-5-2.7c-7.36-8.49,6.53-20.93,7.13-21.46a1.49,1.49,0,1,1,2,2.24c-.12.11-12.27,11-6.87,17.23h0a7.43,7.43,0,0,0,3.4,1.77,1.5,1.5,0,0,1-.33,3Z"
    />
    <path
    d="M214.86,494.52a1.5,1.5,0,0,1-.33-3,7.25,7.25,0,0,0,3.42-1.8c5.4-6.22-6.41-17.05-6.53-17.16a1.5,1.5,0,1,1,2-2.22c.57.52,14.08,12.92,6.75,21.37a10.22,10.22,0,0,1-5,2.73A1.86,1.86,0,0,1,214.86,494.52Z"
    />
    <path
    d="M148.75,510.6a3.07,3.07,0,0,1,.42,4.91,10,10,0,0,0-.9.93c-1.54,1.8-2,4.15-1.27,7.32a8.06,8.06,0,0,1-2.59-3,9.86,9.86,0,0,1,.09-9.1,3,3,0,0,1,4.23-1.12Z"
    />
    <path
    d="M137.5,498.44a3.07,3.07,0,0,1,.42,4.91,10,10,0,0,0-.9.93c-1.54,1.79-2,4.14-1.27,7.32a8.06,8.06,0,0,1-2.59-3,9.86,9.86,0,0,1,.09-9.1,3,3,0,0,1,4.23-1.12Z"
    />
    <path
    d="M130.42,484.43a2.3,2.3,0,0,1,.31,3.69c-.22.21-.45.45-.68.71-1.15,1.35-1.5,3.12-1,5.5a6.09,6.09,0,0,1-1.95-2.22,7.4,7.4,0,0,1,.07-6.84,2.27,2.27,0,0,1,3.18-.85Z"
    />
    <path
    d="M200.24,510.15a3.07,3.07,0,0,0-.42,4.91,11.5,11.5,0,0,1,.91.93c1.53,1.8,2,4.15,1.26,7.32a8.06,8.06,0,0,0,2.59-2.95,9.83,9.83,0,0,0-.09-9.1,3,3,0,0,0-4.22-1.12Z"
    />
    <path
    d="M211.49,498a3.07,3.07,0,0,0-.42,4.91,8.89,8.89,0,0,1,.9.93c1.54,1.8,2,4.15,1.27,7.32a8.06,8.06,0,0,0,2.59-2.95,9.83,9.83,0,0,0-.09-9.1,3,3,0,0,0-4.22-1.12Z"
    />
    <path
    d="M218.58,484a2.3,2.3,0,0,0-.32,3.69,7.59,7.59,0,0,1,.68.7c1.15,1.35,1.5,3.12.95,5.5a6.11,6.11,0,0,0,2-2.21,7.42,7.42,0,0,0-.07-6.85,2.26,2.26,0,0,0-3.18-.84Z"
    />
    <g class="cls-15">
    <path
        d="M237.22,182.85A44.83,44.83,0,1,1,281.9,138,44.81,44.81,0,0,1,237.22,182.85Zm0-86.67A41.84,41.84,0,1,0,278.9,138,41.81,41.81,0,0,0,237.22,96.18Z"
    />
    <path
        d="M237.22,163.12a25.1,25.1,0,1,1,25-25.1A25.09,25.09,0,0,1,237.22,163.12Zm0-47.21a22.11,22.11,0,1,0,22,22.11A22.09,22.09,0,0,0,237.22,115.91Z"
    />
    </g>
    <path
    class="cls-16"
    d="M126.12,302.89v14.17s23-14.79,49.33-14.65c23.65.12,37.52,5.84,48.19,13.25,2.06,5.86-.92,13.55-.92,13.55s6.42-1.95,9.57-7.48A32.11,32.11,0,0,0,236.06,309s-14.79-21.9-59.42-22.59C144.05,285.86,126.12,302.89,126.12,302.89Z"
    />
    <ellipse class="cls-17" cx="121.96" cy="140.15" rx="39.17" ry="37.99" />
    <ellipse class="cls-18" cx="121.96" cy="140.15" rx="25.08" ry="24.33" />
    <path
    class="cls-5"
    d="M90.42,135.53a9.18,9.18,0,1,0,9.17-8.9A9,9,0,0,0,90.42,135.53Z"
    />
    <ellipse class="cls-17" cx="236.56" cy="140.15" rx="39.17" ry="37.99" />
    <ellipse class="cls-18" cx="236.56" cy="140.15" rx="25.08" ry="24.33" />
    <path
    class="cls-5"
    d="M268.11,135.53a9.18,9.18,0,1,1-9.18-8.9A9,9,0,0,1,268.11,135.53Z"
    />

    <g id="eyelids">
    <path
        class="cls-17"
        d="M297.36,136.68c0,39.81-31.7,72.08-70.8,72.08a69.44,69.44,0,0,1-25.6-4.87A51.72,51.72,0,0,0,208,191.33l-29.46-21.71-29.45,21.71a51.68,51.68,0,0,0,7.07,12.56,69.4,69.4,0,0,1-25.6,4.87c-39.1,0-70.79-32.27-70.79-72.08,0-38.22,29-66.06,65.91-68.47C151.19,79.5,171.09,99,178.58,124.65c7.5-25.62,28.47-45.15,53.94-56.44C269.48,70.61,297.36,98.45,297.36,136.68Z"
    />
    </g>
    <g id="eyelash">
    <path
        d="M178.58,126.15a1.47,1.47,0,0,1-.54-.1,1.51,1.51,0,0,1-.86-1.94c.28-.71.55-1.41.84-2.11l16-40.58a54.48,54.48,0,0,1,49.86-35.49l89.57-1.6a1.55,1.55,0,0,1,1.34.77,1.49,1.49,0,0,1-.05,1.54L324.1,63.19a1.49,1.49,0,0,1-2.07.45,1.51,1.51,0,0,1-.45-2.07l9.15-14.19L244,48.93a51.45,51.45,0,0,0-47.11,33.56l-7.11,18C205,78.89,223.16,70.75,224.36,70.23a91.48,91.48,0,0,1,41.2-9.64l32.08.16a1.5,1.5,0,0,1,0,3h0l-32.09-.16h-.42a88.07,88.07,0,0,0-39.45,9.34l-.1,0c-.3.12-29.5,12.6-44.77,50.13L180,125.2A1.51,1.51,0,0,1,178.58,126.15Z"
    />
    <path
        d="M178.58,126.15a1.49,1.49,0,0,1-1.39-1L176,122.29C160.77,85.21,131.89,73.1,131.59,73l-.11,0a88,88,0,0,0-39.87-9.34l-35.26.18h0a1.5,1.5,0,0,1,0-3l35.25-.18a91.67,91.67,0,0,1,41.2,9.64c1.24.53,19.33,8.54,34.51,30l-7-17.66A51.46,51.46,0,0,0,113.2,48.93L26.43,47.38l9.14,14.19a1.5,1.5,0,1,1-2.52,1.62L22.39,46.64a1.5,1.5,0,0,1,1.29-2.31l89.57,1.6a54.51,54.51,0,0,1,49.88,35.53l15.69,39.73c.4,1,.79,1.93,1.16,2.93a1.49,1.49,0,0,1-.86,1.93A1.47,1.47,0,0,1,178.58,126.15Z"
    />
    </g>
</svg>