<svg width="1200" height="1200" viewBox="0 0 1200 1200" fill="none" xmlns="http://www.w3.org/2000/svg">
<g id="greeting" clip-path="url(#clip0_0_1)">
<path id="Vector" d="M1033.83 920.2L840.55 914L846.85 1009.54L841 1119.18C841 1119.18 837.19 1152.18 900.4 1155.91L929.75 1161.35L954.19 1149.84L960.42 1183.91L970.91 1193.46L988.91 1197.67L1033.41 1190.24L1033.84 1040.32L1033.83 920.2Z" fill="#725514"/>
<g id="right-wing">
<path id="Vector_2" d="M649.82 430.38L618.93 464.24C618.93 464.24 532.2 522.36 472.29 463.24L326.68 318.74L176 168.54C175.245 167.79 174.294 167.269 173.255 167.038C172.216 166.807 171.134 166.875 170.132 167.234C169.131 167.593 168.251 168.228 167.596 169.066C166.941 169.905 166.537 170.911 166.43 171.97V171.97C166.43 171.97 172.85 293.24 254.84 375.44L252.35 383L260.7 427.91L276.11 475.08C276.11 475.08 296.32 531.26 350.39 559.19L349.39 573.95L362.13 620.58C362.13 620.58 398.46 706.66 497.41 645.85C497.41 645.85 566.34 595.78 632.83 638.53" fill="#725514"/>
<path id="Vector_3" d="M291.3 410C291.3 410 285.91 542.63 425.3 595.6L338.08 552.69C338.08 552.69 265.78 517.14 252.35 383L250.35 370.87L291.3 410Z" fill="#4F3810"/>
<path id="Vector_4" d="M243 362.75C243 362.75 193 268.81 207 198.18L171.83 164.37L167.65 163.25L166.53 172.54L173.53 221.22L198.45 295.59L228.56 344.69L243 362.75Z" fill="#4F3810"/>
<path id="Vector_5" d="M506.89 640C506.89 640 390.63 666.24 386.25 578.76L347.7 560.16L351.77 584.53C351.77 584.53 364.15 683.31 457.25 664L491.39 649.41L506.89 640Z" fill="#4F3810"/>
<path id="Vector_6" d="M576.62 485.27C576.62 485.27 519.94 527.38 457.25 472.41C457.25 472.41 339.59 354.81 302.15 313.93C272.41 281.45 187.57 180.12 187.57 180.12L319.5 312.17L436.09 427.76L469.93 461.13C469.93 461.13 519.82 509.92 576.62 485.27Z" fill="#8E681C"/>
<path id="Vector_7" d="M539.75 494.07C498.38 494.07 473.6 469.37 456.47 452.3C399.14 395.16 251.93 248.48 191 187.74L169.67 166.49C171.82 191.64 182.97 278.89 233.67 346.73C266.58 390.73 349.32 454.11 350.15 454.73C350.722 455.231 351.082 455.931 351.158 456.687C351.234 457.444 351.02 458.201 350.559 458.806C350.098 459.411 349.424 459.818 348.674 459.945C347.925 460.072 347.155 459.909 346.52 459.49C345.68 458.85 262.29 394.97 228.88 350.31C177.19 281.2 165.88 192.55 163.61 167.03C163.489 165.795 163.755 164.553 164.369 163.475C164.984 162.397 165.917 161.536 167.041 161.011C168.165 160.485 169.425 160.322 170.646 160.542C171.867 160.762 172.99 161.355 173.86 162.24L195.2 183.5L460.69 448.05C479.45 466.75 507.79 494.98 557.87 486.5C633.6 473.65 650.87 417.28 651.05 416.71C651.312 415.998 651.834 415.411 652.51 415.069C653.187 414.726 653.969 414.652 654.698 414.863C655.427 415.073 656.049 415.552 656.439 416.203C656.829 416.854 656.958 417.628 656.8 418.37C656.63 418.98 638.45 478.9 558.88 492.37C552.562 493.47 546.163 494.039 539.75 494.07Z" fill="black"/>
<path id="Vector_8" d="M440.09 603.84C439.781 603.842 439.474 603.795 439.18 603.7C438.47 603.47 367.88 580.61 319.18 540.7C255.77 488.79 249.5 378.87 249.26 374.22C249.24 373.826 249.298 373.432 249.431 373.061C249.564 372.689 249.768 372.347 250.033 372.055C250.297 371.762 250.617 371.525 250.973 371.356C251.33 371.187 251.716 371.09 252.11 371.07C252.504 371.05 252.898 371.108 253.269 371.241C253.641 371.374 253.983 371.578 254.275 371.843C254.568 372.107 254.805 372.427 254.974 372.783C255.143 373.14 255.24 373.526 255.26 373.92C255.32 375.03 261.65 485.85 322.99 536.06C370.8 575.27 440.31 597.77 441 598C441.669 598.227 442.236 598.683 442.601 599.287C442.967 599.891 443.108 600.605 442.999 601.302C442.89 602 442.539 602.637 442.007 603.101C441.475 603.565 440.796 603.827 440.09 603.84Z" fill="black"/>
<path id="Vector_9" d="M432.57 670.82C424.99 670.813 417.453 669.691 410.2 667.49C348.96 649.09 344.68 561.21 344.52 557.49C344.49 556.698 344.775 555.926 345.313 555.343C345.851 554.76 346.598 554.414 347.39 554.38C348.183 554.347 348.956 554.63 349.54 555.166C350.125 555.702 350.474 556.448 350.51 557.24C350.51 558.11 354.78 644.6 411.93 661.77C443.54 671.26 469.57 657.33 497.13 642.58C516.13 632.41 535.78 621.89 557.73 619.29C606.01 613.56 633.45 637.76 634.6 638.79C634.926 639.042 635.197 639.359 635.396 639.721C635.594 640.083 635.716 640.482 635.753 640.893C635.79 641.304 635.742 641.718 635.612 642.11C635.482 642.502 635.272 642.862 634.996 643.169C634.721 643.476 634.384 643.723 634.009 643.894C633.633 644.065 633.226 644.157 632.814 644.163C632.401 644.17 631.991 644.091 631.611 643.932C631.23 643.774 630.886 643.538 630.6 643.24C630.25 642.93 603.8 619.88 558.45 625.24C537.61 627.7 518.45 637.95 499.97 647.85C478.78 659.18 457 670.82 432.57 670.82Z" fill="black"/>
</g>
<path id="color-skin" d="M1033.24 20.49C966.07 -2.91 910.7 3.5 910.7 3.5C753.83 21.77 689 131.61 689 131.61L597.58 145.68L624 174.81L582 182L642 237.47C628.425 297.876 633.752 360.994 657.26 418.27C630.72 482.64 621.26 556.1 633.79 631.27C667.79 834.92 841.9 974.27 1033.09 942.39L1033.24 20.49Z" fill="#FBBB10"/>
<g id="eyes">
<g id="Group" opacity="0.6">
<path id="Vector_10" d="M1033.24 420.58C965.07 423.67 892.5 369.82 879 288.76C969.86 297.22 966.43 211.86 988.45 121.2C1004.89 118.46 1016.77 117.78 1033.28 119.65L1033.24 420.58Z" fill="#D89A0F"/>
</g>
<g id="Group_2" opacity="0.6">
<path id="Vector_11" d="M689.73 320.36C704 405.68 782.25 463.7 864.56 450C946.87 436.3 1002 355.9 987.8 270.59C904.61 308.11 879.02 234.12 828.74 155.59C746.43 169.29 675.48 235.05 689.73 320.36Z" fill="#D89A0F"/>
</g>
<path id="Vector_12" d="M1033.24 401.52C1020.82 402.094 1008.39 401.048 996.24 398.41C1000.75 389.57 1004.34 383.33 1006.04 374.33L940.8 338.19L889.85 390.71C894.39 398.71 900.85 406.26 907.94 413.16C892.926 422.201 876.332 428.31 859.04 431.16C781.92 444.04 708.77 390.84 695.65 312.31C683.06 237 731 172.51 803.12 155.57C857.12 169.47 902.77 201.43 925.99 249.49C932.34 196.49 967.29 151.06 1013.8 120.39C1021.58 115.33 1026.63 112.62 1033.39 110.32L1033.24 401.52Z" fill="white"/>
<path id="Vector_13" d="M761.07 325.31C760.73 325.315 760.392 325.261 760.07 325.15C759.319 324.893 758.7 324.349 758.35 323.636C757.999 322.924 757.946 322.102 758.2 321.35C763.7 305.24 779.02 290.5 798.2 282.87C821.64 273.53 848.41 275.66 873.58 288.87C874.235 289.266 874.713 289.897 874.918 290.634C875.123 291.371 875.039 292.158 874.683 292.835C874.326 293.512 873.725 294.027 873.001 294.275C872.278 294.523 871.487 294.486 870.79 294.17C847.2 281.79 822.2 279.76 800.41 288.44C782.84 295.44 768.85 308.8 763.9 323.29C763.697 323.879 763.315 324.39 762.808 324.752C762.3 325.114 761.693 325.309 761.07 325.31Z" fill="black"/>
<path id="Vector_14" d="M979.08 269.1C978.603 269.097 978.133 268.981 977.71 268.76C977.014 268.395 976.489 267.772 976.247 267.024C976.006 266.276 976.068 265.463 976.42 264.76C976.59 264.43 993.7 232.25 1032.02 238.2C1032.43 238.231 1032.83 238.347 1033.2 238.541C1033.57 238.735 1033.89 239.003 1034.15 239.327C1034.4 239.652 1034.59 240.026 1034.7 240.426C1034.8 240.826 1034.82 241.244 1034.76 241.653C1034.7 242.062 1034.55 242.453 1034.33 242.803C1034.1 243.152 1033.81 243.451 1033.47 243.682C1033.12 243.913 1032.74 244.07 1032.33 244.144C1031.92 244.217 1031.5 244.206 1031.1 244.11C997 238.81 981.89 267.22 981.74 267.51C981.483 267.992 981.1 268.395 980.631 268.675C980.162 268.955 979.626 269.102 979.08 269.1V269.1Z" fill="black"/>
</g>
<g id="body">
<path id="Vector_15" d="M620.89 170.2L594.4 141.06L791 111.65L827.92 121.42L856.75 139.85C856.75 139.85 872.5 149.85 907.31 215.15C907.31 215.15 837.4 135.15 745.37 149.15L620.89 170.2Z" fill="#725514"/>
<path id="Vector_16" d="M1033.39 108.32C1033.39 108.32 980.28 122.32 934.11 212.67L947.57 145C947.57 145 967.07 86.42 1033.23 73.67L1033.39 108.32Z" fill="#725514"/>
<path id="Vector_17" d="M1033.4 942.45L1033.06 974.67L968.38 945.87L1033.4 942.45Z" fill="#33230A"/>
<path id="Vector_18" d="M1031.12 974.67L1021.33 969.45L964.1 945.63L954.83 944.96L942.54 973.39L948.13 984.92L955.73 988.26L959.32 1006.88L968.44 1014.99L984.15 1015.78L989.88 1034.2L1002.49 1032.45C1002.49 1032.45 1032.33 1028.15 1035.26 983.4" fill="#A0752A"/>
<g id="Group_3" opacity="0.6">
<path id="Vector_19" d="M652.38 441.9C652.38 441.9 695.11 516.41 793.73 532.16C793.73 532.16 657.24 484.38 635.31 353.09L644.14 391.56L654.64 421.48L652.38 441.9Z" fill="#D89A0F"/>
</g>
<g id="Group_4" opacity="0.6">
<path id="Vector_20" d="M1033.4 942.45C939.94 953.1 852 932.87 771.24 869.29C641 766.72 627 609.25 627 609.25L626.28 534.53C626.28 534.53 642.5 695 719.2 788.87C800.2 888.02 926.2 933.33 1033.2 914.98" fill="#D89A0F"/>
</g>
<path id="Vector_21" d="M962.05 38.35C967.94 37.55 973.93 38.3 979.8 39.26C982.362 39.6311 984.898 40.1689 987.39 40.87C991.928 42.2442 996.105 44.6076 999.62 47.79C1000.47 48.4971 1001.16 49.3853 1001.62 50.39C1001.84 50.8997 1001.92 51.4614 1001.84 52.0124C1001.76 52.5634 1001.54 53.0819 1001.18 53.51C1000.68 53.9581 1000.08 54.2683 999.42 54.41C993.63 56.12 987.26 54.85 981.51 56.7C978.76 57.58 975.93 59.19 973.16 58.38C971.691 57.8274 970.375 56.9327 969.32 55.77C965.46 52.09 961.58 47.96 956.4 46.65C955.351 46.4887 954.336 46.1505 953.4 45.65C952.52 45.06 951.61 43.48 954.56 40.87C955.51 40.07 960.1 38.62 962.05 38.35Z" fill="#FFCD5C"/>
<path id="Vector_22" d="M612.41 164.88L737.67 144C759 140.436 780.831 141.249 801.837 146.387C822.843 151.525 842.584 160.883 859.86 173.89L896 207.92C896 207.92 820.81 134.48 721.53 156.79L620.89 174.2L612.41 164.88Z" fill="#4F3912"/>
<path id="Vector_23" d="M1033.24 111.84C970.93 142.05 941 200.41 941 200.41L965.28 156.24C982.2 131.291 1005.79 111.594 1033.35 99.39L1033.24 111.84Z" fill="#4F3912"/>
<path id="Vector_24" d="M874.21 1150.17L919.77 1148.45C927.822 1148.15 935.53 1145.11 941.623 1139.84C947.716 1134.56 951.832 1127.37 953.29 1119.45L963.29 1052.45L967.18 1113.2L960.18 1141.1L945.18 1156.73L923.82 1160.29L874.21 1150.17Z" fill="#8E681C"/>
<path id="Vector_25" d="M964.91 1124.94C964.91 1124.94 964.73 1173.17 973.91 1181.21C989.42 1194.84 1033.43 1190.21 1033.43 1190.21L988.93 1197.64L967 1191.26L959 1178.39L954.23 1149.84L964.91 1124.94Z" fill="#4F3810"/>
<path id="Vector_26" d="M842.32 937.33C842.32 937.33 857.59 946.8 894.07 953.41C911.863 956.458 929.81 958.525 947.83 959.6L956.58 944L880.24 932L840.62 915.13L842.32 937.33Z" fill="#4F3810"/>
<path id="Vector_27" d="M861.29 1080.82C859.85 1085.57 858.07 1090.25 857.23 1095.14C856.16 1101.41 856.68 1107.83 857.23 1114.14C857.53 1117.75 858.38 1122.14 861.81 1123.3C865.5 1124.57 869.24 1120.74 869.81 1116.87C870.38 1113 868.87 1109.17 868.22 1105.32C866.83 1097.2 869.09 1088.96 870.48 1080.84C871.3 1076.04 875.05 1042.51 868.38 1043.62C861.71 1044.73 862.88 1075.52 861.29 1080.82Z" fill="#8E681C"/>
<path id="Vector_28" d="M887.87 1038.54C889.37 1051.2 887.75 1063.98 887.15 1076.72C887.03 1079.25 886.74 1081.91 885.23 1083.95C883.72 1085.99 880.6 1087.01 878.59 1085.48C876.58 1083.95 876.65 1081.3 877.03 1078.99C877.41 1076.68 878.03 1074.69 878.49 1072.55C879.23 1069.36 879.77 1066.13 880.21 1062.88C881.03 1056.78 881.491 1050.64 881.59 1044.49C881.59 1041.01 881.32 1035.94 883.59 1035.14C887.09 1033.88 887.75 1037.53 887.87 1038.54Z" fill="#8E681C"/>
<path id="Vector_29" d="M1033.24 43.56C995 30.17 936.73 17.84 869.66 31.27C768.75 51.48 715.82 126.05 715.82 126.05L689 131.61C743.83 33 862.42 11.11 862.42 11.11C928.81 -6.18999 989.42 4.68001 1033.42 20.66L1033.24 43.56Z" fill="#FFCD5C"/>
<path id="Vector_30" d="M937.1 956.43C937.1 956.43 928.18 986.51 953.33 988.86L943.5 966.36L952 956.08L937.1 956.43Z" fill="#4F3810"/>
<g id="Group_5" opacity="0.38">
<path id="Vector_31" d="M1033.37 125.81C1015.37 134.3 997.03 146.6 978.37 163.65C942.9 196 926 249.49 926 249.49C926 249.49 903.23 211.66 839.41 179.49C793.18 156.15 714.68 170.38 714.68 170.38L591.6 190.9L576.15 181.4L625 174C825.91 129.26 843.94 169.08 896 208C905.39 215 926.44 243.61 926.44 243.61C947.76 159.43 1001.14 124.08 1033.36 109.83L1033.37 125.81Z" fill="white"/>
</g>
<path id="Vector_32" d="M926 252.48C925.485 252.479 924.978 252.344 924.53 252.09C924.082 251.836 923.706 251.471 923.44 251.03L920.22 245.7C877.95 177.7 816.91 163.19 816.29 163.05L816.06 162.99C789.607 154.832 761.604 153.019 734.32 157.7L664.83 169.7C664.43 169.798 664.013 169.813 663.607 169.743C663.2 169.673 662.813 169.52 662.468 169.294C662.124 169.068 661.829 168.773 661.604 168.427C661.378 168.082 661.226 167.694 661.157 167.288C661.088 166.881 661.104 166.465 661.203 166.065C661.302 165.664 661.483 165.289 661.734 164.962C661.985 164.634 662.3 164.362 662.661 164.162C663.022 163.963 663.42 163.839 663.83 163.8L733.32 151.8C761.501 146.968 790.423 148.831 817.75 157.24C820.38 157.87 858.75 167.71 895.75 204.97L876.15 172.41C865.891 154.509 850.492 140.102 831.949 131.055C813.406 122.008 792.573 118.738 772.15 121.67L600.38 147.2L623.1 172.2C623.539 172.799 623.74 173.54 623.664 174.278C623.589 175.017 623.242 175.702 622.69 176.199C622.139 176.697 621.423 176.973 620.68 176.973C619.938 176.973 619.221 176.697 618.67 176.2L592.18 147.07C591.81 146.668 591.557 146.173 591.449 145.638C591.34 145.102 591.379 144.548 591.562 144.033C591.745 143.519 592.065 143.064 592.488 142.718C592.91 142.372 593.42 142.148 593.96 142.07L771.18 115.72C792.792 112.606 814.841 116.054 834.47 125.618C854.099 135.182 870.403 150.421 881.27 169.36L925.32 242.55C926.42 244.31 927.507 246.11 928.58 247.95C928.843 248.405 928.982 248.922 928.982 249.448C928.982 249.974 928.844 250.491 928.582 250.946C928.32 251.402 927.942 251.781 927.487 252.045C927.032 252.309 926.516 252.449 925.99 252.45L926 252.48Z" fill="black"/>
<path id="Vector_33" d="M637.11 239.38L637.09 239.36L640.51 234.45L637.11 239.38Z" fill="black"/>
<path id="Vector_34" d="M926 252.49C925.795 252.486 925.591 252.462 925.39 252.42C924.616 252.256 923.938 251.794 923.503 251.133C923.069 250.471 922.913 249.665 923.07 248.89C923.37 247.4 923.69 245.89 924.07 244.44L942.32 159.13C950.32 116.67 987.48 81.13 1032.75 72.7C1033.18 72.6212 1033.62 72.6376 1034.05 72.7482C1034.47 72.8587 1034.87 73.0607 1035.2 73.3399C1035.54 73.6192 1035.81 73.9689 1036 74.3645C1036.19 74.7601 1036.29 75.1921 1036.29 75.63L1036.44 110.3C1036.44 110.883 1036.28 111.455 1035.96 111.945C1035.65 112.435 1035.19 112.823 1034.66 113.06C1023.09 118.162 1012.11 124.499 1001.9 131.96C1001.84 132.003 1001.78 132.044 1001.72 132.08C1001.17 132.43 947.72 166.66 929.92 245.72L928.98 250.12C928.834 250.799 928.458 251.406 927.914 251.838C927.371 252.271 926.694 252.501 926 252.49V252.49ZM1030.26 79.3C988.97 88.4 955.46 121.3 948.13 160.3L940 198.18C963 150.54 996.15 128.5 998.35 127.07C1008.35 119.763 1019.07 113.501 1030.35 108.38L1030.26 79.3Z" fill="black"/>
<path id="Vector_35" d="M928 1164.11C925.205 1164.11 922.419 1163.81 919.69 1163.21L868.13 1151.91C858.894 1149.85 850.718 1144.51 845.12 1136.88C839.522 1129.25 836.882 1119.85 837.69 1110.42C847.35 998.61 837.69 915.2 837.55 914.37C837.47 913.965 837.474 913.547 837.562 913.143C837.651 912.739 837.822 912.358 838.065 912.024C838.308 911.689 838.617 911.408 838.974 911.199C839.33 910.99 839.726 910.857 840.137 910.807C840.547 910.758 840.963 910.795 841.359 910.914C841.755 911.033 842.122 911.233 842.436 911.501C842.751 911.769 843.007 912.099 843.189 912.471C843.37 912.842 843.473 913.247 843.49 913.66C843.59 914.49 853.37 998.47 843.66 1110.93C842.971 1118.91 845.202 1126.87 849.937 1133.33C854.673 1139.79 861.592 1144.31 869.41 1146.06L920.97 1157.36C925.503 1158.34 930.193 1158.36 934.734 1157.41C939.274 1156.46 943.563 1154.56 947.32 1151.84C951.078 1149.12 954.219 1145.64 956.54 1141.62C958.861 1137.6 960.309 1133.14 960.79 1128.53C963.11 1106.45 963.79 1080.09 962.95 1050.2C962.939 1049.81 963.005 1049.41 963.146 1049.05C963.286 1048.68 963.498 1048.34 963.769 1048.05C964.039 1047.77 964.364 1047.54 964.723 1047.38C965.083 1047.21 965.471 1047.13 965.865 1047.12C966.661 1047.09 967.433 1047.39 968.011 1047.93C968.298 1048.2 968.528 1048.53 968.689 1048.89C968.85 1049.25 968.939 1049.64 968.95 1050.03C969.84 1080.18 969.11 1106.81 966.77 1129.15C965.781 1138.74 961.273 1147.63 954.117 1154.09C946.961 1160.56 937.663 1164.14 928.02 1164.15L928 1164.11Z" fill="black"/>
<path id="Vector_36" d="M988.33 1200C971.57 1200 958.25 1192.42 956.33 1180.74L951.25 1150.33C951.155 1149.56 951.36 1148.79 951.821 1148.17C952.283 1147.55 952.965 1147.13 953.727 1147C954.488 1146.88 955.27 1147.05 955.91 1147.48C956.549 1147.91 956.997 1148.57 957.16 1149.33L962.23 1179.75C963.94 1189.95 979.92 1196.13 997.12 1193.26L1030.44 1187.7L1030.1 982.7C1030.1 981.904 1030.42 981.141 1030.98 980.579C1031.54 980.016 1032.3 979.7 1033.1 979.7V979.7C1033.9 979.7 1034.66 980.016 1035.22 980.579C1035.78 981.141 1036.1 981.904 1036.1 982.7L1036.44 1190.24C1036.45 1190.96 1036.2 1191.65 1035.74 1192.2C1035.29 1192.75 1034.65 1193.12 1033.94 1193.24L998.12 1199.24C994.883 1199.76 991.609 1200.01 988.33 1200Z" fill="black"/>
<path id="Vector_37" d="M993.49 1038.37C992.932 1038.37 992.386 1038.21 991.91 1037.92C991.71 1037.79 972.37 1025.35 984.56 996.4C988.71 986.56 992.76 978.4 1007.31 962.28C1007.73 961.814 1008.29 961.493 1008.91 961.362C1009.52 961.231 1010.16 961.297 1010.74 961.55L1034.27 971.94C1034.8 972.174 1035.25 972.556 1035.57 973.04C1035.89 973.525 1036.06 974.091 1036.06 974.67V982.67C1036.06 983.23 1036.06 983.81 1036.06 984.58C1036.5 1022.11 1013.47 1034.5 994.06 1038.29C993.873 1038.34 993.682 1038.36 993.49 1038.37V1038.37ZM1010.31 967.91C997.55 982.23 993.97 989.47 990.08 998.72C981.29 1019.59 991.03 1029.61 994.19 1032.17C1018.3 1027.01 1030.37 1011.03 1030.06 984.67C1030.06 983.67 1030.06 982.96 1030.06 982.5V976.62L1010.31 967.91Z" fill="black"/>
<path id="Vector_38" d="M974.94 1018.5C969.976 1018.48 965.17 1016.75 961.32 1013.62L961.14 1013.45C939.41 990.66 976.78 950.93 978.38 949.25C978.939 948.724 979.677 948.432 980.445 948.434C981.212 948.436 981.949 948.732 982.505 949.261C983.061 949.789 983.393 950.511 983.433 951.277C983.473 952.044 983.218 952.796 982.72 953.38C982.37 953.75 947.8 990.5 965.37 1009.22C967.746 1011.05 970.592 1012.16 973.577 1012.44C976.562 1012.71 979.562 1012.13 982.23 1010.76C982.941 1010.46 983.741 1010.45 984.462 1010.72C985.184 1010.99 985.772 1011.54 986.104 1012.23C986.436 1012.93 986.487 1013.73 986.246 1014.46C986.005 1015.19 985.491 1015.81 984.81 1016.17C981.738 1017.68 978.364 1018.48 974.94 1018.5V1018.5Z" fill="black"/>
<path id="Vector_39" d="M994.27 1020.59C995.158 1020.95 995.95 1021.51 996.581 1022.23C997.212 1022.95 997.665 1023.81 997.904 1024.74C998.142 1025.67 998.159 1026.64 997.953 1027.58C997.748 1028.51 997.325 1029.39 996.72 1030.13C996.185 1030.81 995.694 1031.53 995.25 1032.27C992.81 1036.27 992.68 1041.1 995.17 1047.11C992.761 1045.99 990.668 1044.29 989.08 1042.16C987.196 1039.61 985.955 1036.64 985.464 1033.51C984.973 1030.37 985.246 1027.17 986.26 1024.16C986.525 1023.38 986.948 1022.67 987.501 1022.06C988.055 1021.45 988.728 1020.96 989.478 1020.62C990.228 1020.28 991.04 1020.1 991.863 1020.09C992.685 1020.08 993.501 1020.24 994.26 1020.56L994.27 1020.59Z" fill="black"/>
<path id="Vector_40" d="M968.08 1000.3C968.968 1000.66 969.758 1001.22 970.388 1001.95C971.018 1002.67 971.47 1003.53 971.707 1004.45C971.945 1005.38 971.961 1006.35 971.755 1007.29C971.549 1008.22 971.126 1009.1 970.52 1009.84C969.993 1010.53 969.502 1011.24 969.05 1011.98C966.62 1015.98 966.48 1020.82 968.97 1026.83C966.557 1025.69 964.465 1023.98 962.88 1021.83C960.993 1019.28 959.751 1016.31 959.26 1013.18C958.769 1010.04 959.044 1006.84 960.06 1003.83C960.324 1003.05 960.746 1002.33 961.299 1001.72C961.852 1001.11 962.525 1000.62 963.275 1000.29C964.025 999.947 964.838 999.766 965.661 999.755C966.484 999.744 967.301 999.902 968.06 1000.22L968.08 1000.3Z" fill="black"/>
<path id="Vector_41" d="M949.49 975C950.158 975.271 950.752 975.696 951.227 976.239C951.701 976.782 952.041 977.428 952.22 978.126C952.399 978.824 952.411 979.555 952.257 980.259C952.102 980.963 951.785 981.621 951.33 982.18C950.928 982.692 950.56 983.229 950.23 983.79C948.39 986.79 948.29 990.43 950.17 994.96C948.357 994.113 946.78 992.832 945.58 991.23C944.167 989.31 943.237 987.079 942.868 984.724C942.499 982.369 942.702 979.96 943.46 977.7C943.663 977.118 943.982 976.584 944.397 976.13C944.813 975.675 945.317 975.31 945.878 975.057C946.439 974.803 947.046 974.667 947.662 974.655C948.278 974.644 948.89 974.758 949.46 974.99L949.49 975Z" fill="black"/>
<g id="Group_6" opacity="0.6">
<path id="Vector_42" d="M700.4 692.88C688.34 649.71 705.52 601.1 741.49 574.4C753.22 565.51 766.42 558.6 780.49 555.04C768.771 562.851 757.789 571.714 747.68 581.52C715.87 612.32 703.15 649.41 700.42 692.88H700.4Z" fill="#D89A0F"/>
</g>
<path id="Vector_43" d="M1033.24 877.68C916.53 897.17 837.84 832.79 820.76 730.51C803.68 628.23 837.61 539.63 967.22 515.7C990.78 511.36 1033.22 511.36 1033.22 511.36L1033.24 877.68Z" fill="#FFD685"/>
<path id="Vector_44" d="M875.66 627.14C891.14 776.92 1023.36 826.73 1023.36 826.73C1014.75 829.027 1005.87 830.163 996.96 830.11C986.6 830.11 972.7 827.94 972.7 827.94C877.7 784.86 858.87 679.11 858.87 679.11C860.56 660.75 866.294 642.992 875.66 627.11V627.14Z" fill="#430E6B"/>
<path id="Vector_45" d="M1033.24 662.36C976.84 668.67 953.77 688.49 953.77 688.49C962.84 718.94 982 729 982 729C977.48 714.72 980.18 709.34 980.18 709.34C996.728 700.797 1014.68 695.312 1033.18 693.15L1033.24 662.36Z" fill="#430E6B"/>
<path id="Vector_46" d="M1033.24 823.32C1033.24 823.32 1016.96 816.94 1008.04 807.32C1008.04 807.32 1019.38 802.7 1033.24 792.16V823.32Z" fill="#430E6B"/>
<path id="Vector_47" d="M1033.1 598.84C1017.81 597.21 999.96 597.65 978.38 601.14C926.46 609.52 885.88 646.29 885.88 646.29L881.22 618.35C881.22 618.35 910.98 578.85 975.43 569.11C997.99 565.7 1017.17 565.67 1033.21 567.51L1033.1 598.84Z" fill="#430E6B"/>
<path id="Vector_48" d="M986.09 949.09C912.49 949.09 837.59 923.45 774.87 875.82C696.3 816.15 644 729.28 627.64 631.23C615.47 558.4 623.49 484.59 650.82 417.7C642.404 396.953 636.298 375.343 632.61 353.26C626.155 314.988 627.137 275.831 635.5 237.93L576.81 183.63C576.404 183.249 576.113 182.763 575.968 182.225C575.823 181.688 575.83 181.121 575.989 180.588C576.148 180.055 576.452 179.576 576.867 179.206C577.282 178.835 577.792 178.587 578.34 178.49L663.8 163.77C664.554 163.698 665.308 163.914 665.91 164.375C666.511 164.836 666.916 165.508 667.043 166.255C667.17 167.002 667.009 167.77 666.593 168.403C666.177 169.037 665.536 169.489 664.8 169.67L585.31 183.36L640.81 234.71C641.196 235.067 641.481 235.519 641.637 236.021C641.794 236.523 641.815 237.057 641.7 237.57C628.258 297.374 633.533 359.865 656.81 416.57C657.11 417.3 657.11 418.12 656.81 418.85C629.55 485 621.49 558.1 633.54 630.24C666.11 825.24 847.16 966.5 1029.63 939.99L1030.4 22.77C969.186 1.27785 902.623 0.388021 840.857 20.2362C779.09 40.0843 725.506 79.582 688.27 132.71C688.056 133.059 687.773 133.36 687.439 133.595C687.104 133.83 686.725 133.995 686.325 134.078C685.924 134.161 685.511 134.162 685.11 134.08C684.71 133.998 684.33 133.835 683.995 133.6C683.66 133.366 683.376 133.066 683.161 132.718C682.946 132.37 682.804 131.982 682.745 131.577C682.685 131.173 682.709 130.76 682.815 130.365C682.921 129.97 683.106 129.601 683.36 129.28C721.558 74.7806 776.613 34.3501 840.046 14.2151C903.48 -5.91994 971.774 -4.64273 1034.41 17.85C1034.99 18.0563 1035.5 18.4381 1035.86 18.943C1036.22 19.4478 1036.41 20.0511 1036.41 20.67L1035.64 942.57C1035.64 943.283 1035.38 943.972 1034.91 944.513C1034.45 945.054 1033.8 945.411 1033.1 945.52C1017.54 947.907 1001.83 949.101 986.09 949.09V949.09Z" fill="black"/>
<path id="Vector_49" d="M1033.06 977.67C1032.64 977.668 1032.22 977.579 1031.84 977.41L967.16 948.6C966.53 948.317 966.016 947.825 965.706 947.208C965.397 946.59 965.31 945.884 965.46 945.21C965.612 944.533 965.995 943.93 966.542 943.504C967.089 943.077 967.767 942.853 968.46 942.87C968.71 942.87 993.58 943.46 1002.11 943.17C1021.11 942.51 1031.75 939.7 1031.85 939.67C1032.29 939.551 1032.75 939.535 1033.2 939.622C1033.65 939.708 1034.07 939.896 1034.44 940.171C1034.8 940.446 1035.1 940.801 1035.3 941.208C1035.51 941.615 1035.62 942.064 1035.63 942.52L1036.07 974.63C1036.07 975.426 1035.75 976.189 1035.19 976.751C1034.63 977.314 1033.87 977.63 1033.07 977.63L1033.06 977.67ZM983.06 949.14L1030 970L1029.68 946.26C1020.65 947.927 1011.49 948.884 1002.31 949.12C998.08 949.3 990.2 949.24 983.08 949.14H983.06Z" fill="black"/>
<path id="Vector_50" d="M958.33 991.61H958.15C954.314 991.409 950.612 990.13 947.47 987.92C930.14 973.6 953.47 944.48 954.47 943.25C954.696 942.892 954.996 942.585 955.349 942.351C955.702 942.116 956.101 941.959 956.519 941.89C956.937 941.821 957.365 941.841 957.775 941.95C958.184 942.058 958.566 942.252 958.896 942.519C959.225 942.786 959.494 943.119 959.685 943.497C959.876 943.876 959.985 944.29 960.005 944.714C960.024 945.137 959.953 945.56 959.797 945.954C959.641 946.348 959.404 946.704 959.1 947C958.89 947.26 938.5 972.73 951.22 983.24C953.405 984.653 955.922 985.47 958.52 985.61C959.316 985.635 960.069 985.975 960.614 986.556C961.158 987.136 961.45 987.909 961.425 988.705C961.4 989.501 961.06 990.254 960.479 990.799C959.899 991.343 959.126 991.635 958.33 991.61V991.61Z" fill="black"/>
<path id="Vector_51" d="M981.73 948.91C974.73 948.91 968.87 948.91 968.36 948.91C967.564 948.91 966.801 948.594 966.239 948.031C965.676 947.469 965.36 946.706 965.36 945.91C965.36 945.114 965.676 944.351 966.239 943.789C966.801 943.226 967.564 942.91 968.36 942.91V942.91C968.63 942.91 995.26 943.11 1003.78 942.66C1013.25 942.168 1022.69 941.166 1032.06 939.66C1032.81 939.584 1033.57 939.795 1034.17 940.251C1034.77 940.706 1035.18 941.374 1035.32 942.118C1035.45 942.863 1035.29 943.63 1034.89 944.267C1034.48 944.903 1033.84 945.361 1033.11 945.55C1023.51 947.114 1013.83 948.146 1004.11 948.64C999.47 948.85 989.84 948.91 981.73 948.91Z" fill="black"/>
</g>
<g id="tail">
<path id="Vector_52" d="M893.69 391.32L941.12 357.08L993.8 370.66L955.16 438.9L893.69 391.32Z" fill="#4C370E"/>
<path id="Vector_53" d="M885.07 397.42C885.07 397.42 894.87 380.42 906.43 363.91C919.88 344.75 937.58 325.29 937.58 325.29C952.542 332.803 966.881 341.497 980.46 351.29C990.227 358.396 999.455 366.214 1008.07 374.68L943.75 359.34L885.07 397.42Z" fill="#936F2E"/>
<path id="Vector_54" d="M1008.07 374.67C991.37 415.79 956.64 452.14 956.64 452.14C900.52 425.64 885.07 397.42 885.07 397.42L895.77 390.47C895.77 390.47 926.22 413.65 953.86 423.96C953.86 423.96 975.11 404.58 991.5 370.72L1008.07 374.67Z" fill="#725514"/>
</g>
</g>

</svg>
